<?xml version="1.0" encoding="utf-8" standalone="no"?>
<!DOCTYPE svg PUBLIC "-//W3C//DTD SVG 1.1//EN"
  "http://www.w3.org/Graphics/SVG/1.1/DTD/svg11.dtd">
<!-- Created with matplotlib (http://matplotlib.org/) -->
<svg height="318pt" version="1.1" viewBox="0 0 1392 318" width="1392pt" xmlns="http://www.w3.org/2000/svg" xmlns:xlink="http://www.w3.org/1999/xlink">
 <defs>
  <style type="text/css">
*{stroke-linecap:butt;stroke-linejoin:round;}
  </style>
 </defs>
 <g id="figure_1">
  <g id="patch_1">
   <path d="M 0 318.865625 
L 1392.182813 318.865625 
L 1392.182813 0 
L 0 0 
z
" style="fill:#ffffff;"/>
  </g>
  <g id="axes_1">
   <g id="patch_2">
    <path d="M 42.282813 282.5 
L 333.413247 282.5 
L 333.413247 10.7 
L 42.282813 10.7 
z
" style="fill:#ffffff;"/>
   </g>
   <g id="matplotlib.axis_1">
    <g id="xtick_1">
     <g id="line2d_1">
      <defs>
       <path d="M 0 0 
L 0 3.5 
" id="m1423594332" style="stroke:#000000;stroke-width:0.8;"/>
      </defs>
      <g>
       <use style="stroke:#000000;stroke-width:0.8;" x="42.282813" xlink:href="#m1423594332" y="282.5"/>
      </g>
     </g>
     <g id="text_1">
      <!-- 0.0 -->
      <defs>
       <path d="M 3.609375 32.71875 
Q 3.609375 44.046875 7.03125 52.21875 
Q 10.453125 60.40625 16.109375 64.40625 
Q 20.515625 67.578125 25.203125 67.578125 
Q 32.8125 67.578125 38.875 59.8125 
Q 46.4375 50.203125 46.4375 33.734375 
Q 46.4375 22.21875 43.109375 14.15625 
Q 39.796875 6.109375 34.640625 2.46875 
Q 29.5 -1.171875 24.703125 -1.171875 
Q 15.234375 -1.171875 8.9375 10.015625 
Q 3.609375 19.4375 3.609375 32.71875 
M 13.1875 31.5 
Q 13.1875 17.828125 16.546875 9.1875 
Q 19.34375 1.90625 24.859375 1.90625 
Q 27.484375 1.90625 30.3125 4.265625 
Q 33.15625 6.640625 34.625 12.203125 
Q 36.859375 20.609375 36.859375 35.890625 
Q 36.859375 47.21875 34.515625 54.78125 
Q 32.765625 60.40625 29.984375 62.75 
Q 27.984375 64.359375 25.140625 64.359375 
Q 21.828125 64.359375 19.234375 61.375 
Q 15.71875 57.328125 14.453125 48.625 
Q 13.1875 39.9375 13.1875 31.5 
" id="TimesNewRomanPSMT-30"/>
       <path d="M 12.5 9.46875 
Q 14.796875 9.46875 16.359375 7.875 
Q 17.921875 6.296875 17.921875 4.046875 
Q 17.921875 1.8125 16.328125 0.21875 
Q 14.75 -1.375 12.5 -1.375 
Q 10.25 -1.375 8.65625 0.21875 
Q 7.078125 1.8125 7.078125 4.046875 
Q 7.078125 6.34375 8.65625 7.90625 
Q 10.25 9.46875 12.5 9.46875 
" id="TimesNewRomanPSMT-2e"/>
      </defs>
      <g transform="translate(36.032813 296.44375)scale(0.1 -0.1)">
       <use xlink:href="#TimesNewRomanPSMT-30"/>
       <use x="50" xlink:href="#TimesNewRomanPSMT-2e"/>
       <use x="75" xlink:href="#TimesNewRomanPSMT-30"/>
      </g>
     </g>
    </g>
    <g id="xtick_2">
     <g id="line2d_2">
      <g>
       <use style="stroke:#000000;stroke-width:0.8;" x="100.508899" xlink:href="#m1423594332" y="282.5"/>
      </g>
     </g>
     <g id="text_2">
      <!-- 0.2 -->
      <defs>
       <path d="M 45.84375 12.75 
L 41.21875 0 
L 2.15625 0 
L 2.15625 1.8125 
Q 19.390625 17.53125 26.421875 27.484375 
Q 33.453125 37.453125 33.453125 45.703125 
Q 33.453125 52 29.59375 56.046875 
Q 25.734375 60.109375 20.359375 60.109375 
Q 15.484375 60.109375 11.59375 57.25 
Q 7.71875 54.390625 5.859375 48.875 
L 4.046875 48.875 
Q 5.28125 57.90625 10.328125 62.734375 
Q 15.375 67.578125 22.953125 67.578125 
Q 31 67.578125 36.390625 62.40625 
Q 41.796875 57.234375 41.796875 50.203125 
Q 41.796875 45.171875 39.453125 40.140625 
Q 35.84375 32.234375 27.734375 23.390625 
Q 15.578125 10.109375 12.546875 7.375 
L 29.828125 7.375 
Q 35.109375 7.375 37.234375 7.765625 
Q 39.359375 8.15625 41.0625 9.34375 
Q 42.78125 10.546875 44.046875 12.75 
z
" id="TimesNewRomanPSMT-32"/>
      </defs>
      <g transform="translate(94.258899 296.44375)scale(0.1 -0.1)">
       <use xlink:href="#TimesNewRomanPSMT-30"/>
       <use x="50" xlink:href="#TimesNewRomanPSMT-2e"/>
       <use x="75" xlink:href="#TimesNewRomanPSMT-32"/>
      </g>
     </g>
    </g>
    <g id="xtick_3">
     <g id="line2d_3">
      <g>
       <use style="stroke:#000000;stroke-width:0.8;" x="158.734986" xlink:href="#m1423594332" y="282.5"/>
      </g>
     </g>
     <g id="text_3">
      <!-- 0.4 -->
      <defs>
       <path d="M 46.53125 24.421875 
L 46.53125 17.484375 
L 37.640625 17.484375 
L 37.640625 0 
L 29.59375 0 
L 29.59375 17.484375 
L 1.5625 17.484375 
L 1.5625 23.734375 
L 32.28125 67.578125 
L 37.640625 67.578125 
L 37.640625 24.421875 
z
M 29.59375 24.421875 
L 29.59375 57.28125 
L 6.34375 24.421875 
z
" id="TimesNewRomanPSMT-34"/>
      </defs>
      <g transform="translate(152.484986 296.44375)scale(0.1 -0.1)">
       <use xlink:href="#TimesNewRomanPSMT-30"/>
       <use x="50" xlink:href="#TimesNewRomanPSMT-2e"/>
       <use x="75" xlink:href="#TimesNewRomanPSMT-34"/>
      </g>
     </g>
    </g>
    <g id="xtick_4">
     <g id="line2d_4">
      <g>
       <use style="stroke:#000000;stroke-width:0.8;" x="216.961073" xlink:href="#m1423594332" y="282.5"/>
      </g>
     </g>
     <g id="text_4">
      <!-- 0.6 -->
      <defs>
       <path d="M 44.828125 67.578125 
L 44.828125 65.765625 
Q 38.375 65.140625 34.296875 63.203125 
Q 30.21875 61.28125 26.234375 57.328125 
Q 22.265625 53.375 19.65625 48.515625 
Q 17.046875 43.65625 15.28125 36.96875 
Q 22.3125 41.796875 29.390625 41.796875 
Q 36.1875 41.796875 41.15625 36.328125 
Q 46.140625 30.859375 46.140625 22.265625 
Q 46.140625 13.96875 41.109375 7.125 
Q 35.0625 -1.171875 25.09375 -1.171875 
Q 18.3125 -1.171875 13.578125 3.328125 
Q 4.296875 12.0625 4.296875 25.984375 
Q 4.296875 34.859375 7.859375 42.859375 
Q 11.421875 50.875 18.03125 57.078125 
Q 24.65625 63.28125 30.703125 65.421875 
Q 36.765625 67.578125 42 67.578125 
z
M 14.453125 33.40625 
Q 13.578125 26.8125 13.578125 22.75 
Q 13.578125 18.0625 15.3125 12.5625 
Q 17.046875 7.078125 20.453125 3.859375 
Q 22.953125 1.5625 26.515625 1.5625 
Q 30.765625 1.5625 34.109375 5.5625 
Q 37.453125 9.578125 37.453125 17 
Q 37.453125 25.34375 34.125 31.4375 
Q 30.8125 37.546875 24.703125 37.546875 
Q 22.859375 37.546875 20.734375 36.765625 
Q 18.609375 35.984375 14.453125 33.40625 
" id="TimesNewRomanPSMT-36"/>
      </defs>
      <g transform="translate(210.711073 296.44375)scale(0.1 -0.1)">
       <use xlink:href="#TimesNewRomanPSMT-30"/>
       <use x="50" xlink:href="#TimesNewRomanPSMT-2e"/>
       <use x="75" xlink:href="#TimesNewRomanPSMT-36"/>
      </g>
     </g>
    </g>
    <g id="xtick_5">
     <g id="line2d_5">
      <g>
       <use style="stroke:#000000;stroke-width:0.8;" x="275.18716" xlink:href="#m1423594332" y="282.5"/>
      </g>
     </g>
     <g id="text_5">
      <!-- 0.8 -->
      <defs>
       <path d="M 19.1875 33.34375 
Q 11.328125 39.796875 9.046875 43.703125 
Q 6.78125 47.609375 6.78125 51.8125 
Q 6.78125 58.25 11.765625 62.90625 
Q 16.75 67.578125 25 67.578125 
Q 33.015625 67.578125 37.890625 63.234375 
Q 42.78125 58.890625 42.78125 53.328125 
Q 42.78125 49.609375 40.140625 45.75 
Q 37.5 41.890625 29.15625 36.671875 
Q 37.75 30.03125 40.53125 26.21875 
Q 44.234375 21.234375 44.234375 15.71875 
Q 44.234375 8.734375 38.90625 3.78125 
Q 33.59375 -1.171875 24.953125 -1.171875 
Q 15.53125 -1.171875 10.25 4.734375 
Q 6.0625 9.46875 6.0625 15.09375 
Q 6.0625 19.484375 9.015625 23.796875 
Q 11.96875 28.125 19.1875 33.34375 
M 26.859375 38.578125 
Q 32.71875 43.84375 34.28125 46.890625 
Q 35.84375 49.953125 35.84375 53.8125 
Q 35.84375 58.9375 32.953125 61.84375 
Q 30.078125 64.75 25.09375 64.75 
Q 20.125 64.75 17 61.859375 
Q 13.875 58.984375 13.875 55.125 
Q 13.875 52.59375 15.15625 50.046875 
Q 16.453125 47.515625 18.84375 45.21875 
z
M 21.484375 31.5 
Q 17.4375 28.078125 15.484375 24.046875 
Q 13.53125 20.015625 13.53125 15.328125 
Q 13.53125 9.03125 16.96875 5.25 
Q 20.40625 1.46875 25.734375 1.46875 
Q 31 1.46875 34.171875 4.4375 
Q 37.359375 7.421875 37.359375 11.671875 
Q 37.359375 15.1875 35.5 17.96875 
Q 32.03125 23.140625 21.484375 31.5 
" id="TimesNewRomanPSMT-38"/>
      </defs>
      <g transform="translate(268.93716 296.44375)scale(0.1 -0.1)">
       <use xlink:href="#TimesNewRomanPSMT-30"/>
       <use x="50" xlink:href="#TimesNewRomanPSMT-2e"/>
       <use x="75" xlink:href="#TimesNewRomanPSMT-38"/>
      </g>
     </g>
    </g>
    <g id="xtick_6">
     <g id="line2d_6">
      <g>
       <use style="stroke:#000000;stroke-width:0.8;" x="333.413247" xlink:href="#m1423594332" y="282.5"/>
      </g>
     </g>
     <g id="text_6">
      <!-- 1.0 -->
      <defs>
       <path d="M 11.71875 59.71875 
L 27.828125 67.578125 
L 29.4375 67.578125 
L 29.4375 11.671875 
Q 29.4375 6.109375 29.90625 4.734375 
Q 30.375 3.375 31.828125 2.640625 
Q 33.296875 1.90625 37.796875 1.8125 
L 37.796875 0 
L 12.890625 0 
L 12.890625 1.8125 
Q 17.578125 1.90625 18.9375 2.609375 
Q 20.3125 3.328125 20.84375 4.515625 
Q 21.390625 5.71875 21.390625 11.671875 
L 21.390625 47.40625 
Q 21.390625 54.640625 20.90625 56.6875 
Q 20.5625 58.25 19.65625 58.984375 
Q 18.75 59.71875 17.484375 59.71875 
Q 15.671875 59.71875 12.453125 58.203125 
z
" id="TimesNewRomanPSMT-31"/>
      </defs>
      <g transform="translate(327.163247 296.44375)scale(0.1 -0.1)">
       <use xlink:href="#TimesNewRomanPSMT-31"/>
       <use x="50" xlink:href="#TimesNewRomanPSMT-2e"/>
       <use x="75" xlink:href="#TimesNewRomanPSMT-30"/>
      </g>
     </g>
    </g>
    <g id="text_7">
     <!-- Caudal Finbeat Period (s) -->
     <defs>
      <path d="M 60.203125 67.71875 
L 61.71875 45.21875 
L 60.203125 45.21875 
Q 57.171875 55.328125 51.5625 59.765625 
Q 45.953125 64.203125 38.09375 64.203125 
Q 31.5 64.203125 26.171875 60.859375 
Q 20.84375 57.515625 17.796875 50.1875 
Q 14.75 42.875 14.75 31.984375 
Q 14.75 23 17.625 16.40625 
Q 20.515625 9.8125 26.296875 6.296875 
Q 32.078125 2.78125 39.5 2.78125 
Q 45.953125 2.78125 50.875 5.53125 
Q 55.8125 8.296875 61.71875 16.5 
L 63.234375 15.53125 
Q 58.25 6.6875 51.609375 2.578125 
Q 44.96875 -1.515625 35.84375 -1.515625 
Q 19.390625 -1.515625 10.359375 10.6875 
Q 3.609375 19.78125 3.609375 32.078125 
Q 3.609375 42 8.046875 50.296875 
Q 12.5 58.59375 20.28125 63.15625 
Q 28.078125 67.71875 37.3125 67.71875 
Q 44.484375 67.71875 51.46875 64.203125 
Q 53.515625 63.140625 54.390625 63.140625 
Q 55.71875 63.140625 56.6875 64.0625 
Q 57.953125 65.375 58.5 67.71875 
z
" id="TimesNewRomanPSMT-43"/>
      <path d="M 28.46875 6.453125 
Q 21.578125 1.125 19.828125 0.296875 
Q 17.1875 -0.921875 14.203125 -0.921875 
Q 9.578125 -0.921875 6.5625 2.25 
Q 3.5625 5.421875 3.5625 10.59375 
Q 3.5625 13.875 5.03125 16.265625 
Q 7.03125 19.578125 11.984375 22.5 
Q 16.9375 25.4375 28.46875 29.640625 
L 28.46875 31.390625 
Q 28.46875 38.09375 26.34375 40.578125 
Q 24.21875 43.0625 20.171875 43.0625 
Q 17.09375 43.0625 15.28125 41.40625 
Q 13.421875 39.75 13.421875 37.59375 
L 13.53125 34.765625 
Q 13.53125 32.515625 12.375 31.296875 
Q 11.234375 30.078125 9.375 30.078125 
Q 7.5625 30.078125 6.421875 31.34375 
Q 5.28125 32.625 5.28125 34.8125 
Q 5.28125 39.015625 9.578125 42.53125 
Q 13.875 46.046875 21.625 46.046875 
Q 27.59375 46.046875 31.390625 44.046875 
Q 34.28125 42.53125 35.640625 39.3125 
Q 36.53125 37.203125 36.53125 30.71875 
L 36.53125 15.53125 
Q 36.53125 9.125 36.765625 7.6875 
Q 37.015625 6.25 37.578125 5.765625 
Q 38.140625 5.28125 38.875 5.28125 
Q 39.65625 5.28125 40.234375 5.609375 
Q 41.265625 6.25 44.1875 9.1875 
L 44.1875 6.453125 
Q 38.71875 -0.875 33.734375 -0.875 
Q 31.34375 -0.875 29.921875 0.78125 
Q 28.515625 2.4375 28.46875 6.453125 
M 28.46875 9.625 
L 28.46875 26.65625 
Q 21.09375 23.734375 18.953125 22.515625 
Q 15.09375 20.359375 13.421875 18.015625 
Q 11.765625 15.671875 11.765625 12.890625 
Q 11.765625 9.375 13.859375 7.046875 
Q 15.96875 4.734375 18.703125 4.734375 
Q 22.40625 4.734375 28.46875 9.625 
" id="TimesNewRomanPSMT-61"/>
      <path d="M 42.328125 44.734375 
L 42.328125 17.625 
Q 42.328125 9.859375 42.6875 8.125 
Q 43.0625 6.390625 43.859375 5.703125 
Q 44.671875 5.03125 45.75 5.03125 
Q 47.265625 5.03125 49.171875 5.859375 
L 49.859375 4.15625 
L 36.46875 -1.375 
L 34.28125 -1.375 
L 34.28125 8.109375 
Q 28.515625 1.859375 25.484375 0.234375 
Q 22.46875 -1.375 19.09375 -1.375 
Q 15.328125 -1.375 12.5625 0.796875 
Q 9.8125 2.984375 8.734375 6.390625 
Q 7.671875 9.8125 7.671875 16.0625 
L 7.671875 36.03125 
Q 7.671875 39.203125 6.984375 40.421875 
Q 6.296875 41.65625 4.953125 42.3125 
Q 3.609375 42.96875 0.09375 42.921875 
L 0.09375 44.734375 
L 15.765625 44.734375 
L 15.765625 14.796875 
Q 15.765625 8.546875 17.9375 6.59375 
Q 20.125 4.640625 23.1875 4.640625 
Q 25.296875 4.640625 27.953125 5.953125 
Q 30.609375 7.28125 34.28125 10.984375 
L 34.28125 36.328125 
Q 34.28125 40.140625 32.890625 41.484375 
Q 31.5 42.828125 27.09375 42.921875 
L 27.09375 44.734375 
z
" id="TimesNewRomanPSMT-75"/>
      <path d="M 34.71875 5.03125 
Q 31.453125 1.609375 28.328125 0.109375 
Q 25.203125 -1.375 21.578125 -1.375 
Q 14.265625 -1.375 8.796875 4.75 
Q 3.328125 10.890625 3.328125 20.515625 
Q 3.328125 30.125 9.375 38.109375 
Q 15.4375 46.09375 24.953125 46.09375 
Q 30.859375 46.09375 34.71875 42.328125 
L 34.71875 50.59375 
Q 34.71875 58.25 34.34375 60 
Q 33.984375 61.765625 33.203125 62.390625 
Q 32.421875 63.03125 31.25 63.03125 
Q 29.984375 63.03125 27.875 62.25 
L 27.25 63.96875 
L 40.578125 69.4375 
L 42.78125 69.4375 
L 42.78125 17.71875 
Q 42.78125 9.859375 43.140625 8.125 
Q 43.5 6.390625 44.3125 5.703125 
Q 45.125 5.03125 46.1875 5.03125 
Q 47.515625 5.03125 49.703125 5.859375 
L 50.25 4.15625 
L 36.96875 -1.375 
L 34.71875 -1.375 
z
M 34.71875 8.453125 
L 34.71875 31.5 
Q 34.421875 34.8125 32.953125 37.546875 
Q 31.5 40.28125 29.078125 41.671875 
Q 26.65625 43.0625 24.359375 43.0625 
Q 20.0625 43.0625 16.703125 39.203125 
Q 12.25 34.125 12.25 24.359375 
Q 12.25 14.5 16.546875 9.25 
Q 20.84375 4 26.125 4 
Q 30.5625 4 34.71875 8.453125 
" id="TimesNewRomanPSMT-64"/>
      <path d="M 18.5 69.4375 
L 18.5 10.109375 
Q 18.5 5.90625 19.109375 4.53125 
Q 19.734375 3.171875 21 2.46875 
Q 22.265625 1.765625 25.734375 1.765625 
L 25.734375 0 
L 3.8125 0 
L 3.8125 1.765625 
Q 6.890625 1.765625 8 2.390625 
Q 9.125 3.03125 9.765625 4.484375 
Q 10.40625 5.953125 10.40625 10.109375 
L 10.40625 50.734375 
Q 10.40625 58.296875 10.0625 60.03125 
Q 9.71875 61.765625 8.953125 62.390625 
Q 8.203125 63.03125 7.03125 63.03125 
Q 5.765625 63.03125 3.8125 62.25 
L 2.984375 63.96875 
L 16.3125 69.4375 
z
" id="TimesNewRomanPSMT-6c"/>
      <path id="TimesNewRomanPSMT-20"/>
      <path d="M 20.453125 62.59375 
L 20.453125 36.578125 
L 32.515625 36.578125 
Q 36.671875 36.578125 38.59375 38.40625 
Q 40.53125 40.234375 41.15625 45.65625 
L 42.96875 45.65625 
L 42.96875 23.25 
L 41.15625 23.25 
Q 41.109375 27.09375 40.15625 28.90625 
Q 39.203125 30.71875 37.515625 31.609375 
Q 35.84375 32.515625 32.515625 32.515625 
L 20.453125 32.515625 
L 20.453125 11.71875 
Q 20.453125 6.6875 21.09375 5.078125 
Q 21.578125 3.859375 23.140625 2.984375 
Q 25.296875 1.8125 27.640625 1.8125 
L 30.03125 1.8125 
L 30.03125 0 
L 1.609375 0 
L 1.609375 1.8125 
L 3.953125 1.8125 
Q 8.0625 1.8125 9.90625 4.203125 
Q 11.078125 5.765625 11.078125 11.71875 
L 11.078125 54.5 
Q 11.078125 59.515625 10.453125 61.140625 
Q 9.96875 62.359375 8.453125 63.234375 
Q 6.34375 64.40625 3.953125 64.40625 
L 1.609375 64.40625 
L 1.609375 66.21875 
L 50.875 66.21875 
L 51.515625 51.65625 
L 49.8125 51.65625 
Q 48.53125 56.296875 46.84375 58.46875 
Q 45.171875 60.640625 42.703125 61.609375 
Q 40.234375 62.59375 35.0625 62.59375 
z
" id="TimesNewRomanPSMT-46"/>
      <path d="M 14.5 69.4375 
Q 16.546875 69.4375 17.984375 67.984375 
Q 19.4375 66.546875 19.4375 64.5 
Q 19.4375 62.453125 17.984375 60.984375 
Q 16.546875 59.515625 14.5 59.515625 
Q 12.453125 59.515625 10.984375 60.984375 
Q 9.515625 62.453125 9.515625 64.5 
Q 9.515625 66.546875 10.953125 67.984375 
Q 12.40625 69.4375 14.5 69.4375 
M 18.5625 46.046875 
L 18.5625 10.109375 
Q 18.5625 5.90625 19.171875 4.515625 
Q 19.78125 3.125 20.96875 2.4375 
Q 22.171875 1.765625 25.34375 1.765625 
L 25.34375 0 
L 3.609375 0 
L 3.609375 1.765625 
Q 6.890625 1.765625 8 2.390625 
Q 9.125 3.03125 9.78125 4.484375 
Q 10.453125 5.953125 10.453125 10.109375 
L 10.453125 27.34375 
Q 10.453125 34.625 10.015625 36.765625 
Q 9.671875 38.328125 8.9375 38.9375 
Q 8.203125 39.546875 6.9375 39.546875 
Q 5.5625 39.546875 3.609375 38.8125 
L 2.9375 40.578125 
L 16.40625 46.046875 
z
" id="TimesNewRomanPSMT-69"/>
      <path d="M 16.15625 36.578125 
Q 24.03125 46.046875 31.15625 46.046875 
Q 34.8125 46.046875 37.453125 44.21875 
Q 40.09375 42.390625 41.65625 38.1875 
Q 42.71875 35.25 42.71875 29.203125 
L 42.71875 10.109375 
Q 42.71875 5.859375 43.40625 4.34375 
Q 43.953125 3.125 45.140625 2.4375 
Q 46.34375 1.765625 49.5625 1.765625 
L 49.5625 0 
L 27.4375 0 
L 27.4375 1.765625 
L 28.375 1.765625 
Q 31.5 1.765625 32.734375 2.703125 
Q 33.984375 3.65625 34.46875 5.515625 
Q 34.671875 6.25 34.671875 10.109375 
L 34.671875 28.421875 
Q 34.671875 34.515625 33.078125 37.28125 
Q 31.5 40.046875 27.734375 40.046875 
Q 21.921875 40.046875 16.15625 33.6875 
L 16.15625 10.109375 
Q 16.15625 5.5625 16.703125 4.5 
Q 17.390625 3.078125 18.578125 2.421875 
Q 19.78125 1.765625 23.4375 1.765625 
L 23.4375 0 
L 1.3125 0 
L 1.3125 1.765625 
L 2.296875 1.765625 
Q 5.71875 1.765625 6.90625 3.484375 
Q 8.109375 5.21875 8.109375 10.109375 
L 8.109375 26.703125 
Q 8.109375 34.765625 7.734375 36.515625 
Q 7.375 38.28125 6.609375 38.90625 
Q 5.859375 39.546875 4.59375 39.546875 
Q 3.21875 39.546875 1.3125 38.8125 
L 0.59375 40.578125 
L 14.0625 46.046875 
L 16.15625 46.046875 
z
" id="TimesNewRomanPSMT-6e"/>
      <path d="M 15.375 37.015625 
Q 21.875 46.046875 29.390625 46.046875 
Q 36.28125 46.046875 41.40625 40.15625 
Q 46.53125 34.28125 46.53125 24.078125 
Q 46.53125 12.15625 38.625 4.890625 
Q 31.84375 -1.375 23.484375 -1.375 
Q 19.578125 -1.375 15.546875 0.046875 
Q 11.53125 1.46875 7.328125 4.296875 
L 7.328125 50.640625 
Q 7.328125 58.25 6.953125 60 
Q 6.59375 61.765625 5.8125 62.390625 
Q 5.03125 63.03125 3.859375 63.03125 
Q 2.484375 63.03125 0.4375 62.25 
L -0.25 63.96875 
L 13.1875 69.4375 
L 15.375 69.4375 
z
M 15.375 33.890625 
L 15.375 7.125 
Q 17.875 4.6875 20.53125 3.4375 
Q 23.1875 2.203125 25.984375 2.203125 
Q 30.421875 2.203125 34.25 7.078125 
Q 38.09375 11.96875 38.09375 21.296875 
Q 38.09375 29.890625 34.25 34.5 
Q 30.421875 39.109375 25.53125 39.109375 
Q 22.953125 39.109375 20.359375 37.796875 
Q 18.40625 36.8125 15.375 33.890625 
" id="TimesNewRomanPSMT-62"/>
      <path d="M 10.640625 27.875 
Q 10.59375 17.921875 15.484375 12.25 
Q 20.359375 6.59375 26.953125 6.59375 
Q 31.34375 6.59375 34.59375 9 
Q 37.84375 11.421875 40.046875 17.28125 
L 41.546875 16.3125 
Q 40.53125 9.625 35.59375 4.125 
Q 30.671875 -1.375 23.25 -1.375 
Q 15.1875 -1.375 9.453125 4.90625 
Q 3.71875 11.1875 3.71875 21.78125 
Q 3.71875 33.25 9.59375 39.671875 
Q 15.484375 46.09375 24.359375 46.09375 
Q 31.890625 46.09375 36.71875 41.140625 
Q 41.546875 36.1875 41.546875 27.875 
z
M 10.640625 30.71875 
L 31.34375 30.71875 
Q 31.109375 35.015625 30.328125 36.765625 
Q 29.109375 39.5 26.6875 41.0625 
Q 24.265625 42.625 21.625 42.625 
Q 17.578125 42.625 14.375 39.46875 
Q 11.1875 36.328125 10.640625 30.71875 
" id="TimesNewRomanPSMT-65"/>
      <path d="M 16.109375 59.421875 
L 16.109375 44.734375 
L 26.5625 44.734375 
L 26.5625 41.3125 
L 16.109375 41.3125 
L 16.109375 12.3125 
Q 16.109375 7.953125 17.359375 6.4375 
Q 18.609375 4.9375 20.5625 4.9375 
Q 22.171875 4.9375 23.6875 5.9375 
Q 25.203125 6.9375 26.03125 8.890625 
L 27.9375 8.890625 
Q 26.21875 4.109375 23.09375 1.6875 
Q 19.96875 -0.734375 16.65625 -0.734375 
Q 14.40625 -0.734375 12.25 0.515625 
Q 10.109375 1.765625 9.078125 4.078125 
Q 8.0625 6.390625 8.0625 11.234375 
L 8.0625 41.3125 
L 0.984375 41.3125 
L 0.984375 42.921875 
Q 3.65625 44 6.46875 46.5625 
Q 9.28125 49.125 11.46875 52.640625 
Q 12.59375 54.5 14.59375 59.421875 
z
" id="TimesNewRomanPSMT-74"/>
      <path d="M 20.515625 31 
L 20.515625 11.71875 
Q 20.515625 5.46875 21.875 3.953125 
Q 23.734375 1.8125 27.484375 1.8125 
L 30.03125 1.8125 
L 30.03125 0 
L 1.65625 0 
L 1.65625 1.8125 
L 4.15625 1.8125 
Q 8.34375 1.8125 10.15625 4.546875 
Q 11.140625 6.0625 11.140625 11.71875 
L 11.140625 54.5 
Q 11.140625 60.75 9.8125 62.25 
Q 7.90625 64.40625 4.15625 64.40625 
L 1.65625 64.40625 
L 1.65625 66.21875 
L 25.921875 66.21875 
Q 34.8125 66.21875 39.9375 64.375 
Q 45.0625 62.546875 48.578125 58.203125 
Q 52.09375 53.859375 52.09375 47.90625 
Q 52.09375 39.796875 46.75 34.71875 
Q 41.40625 29.640625 31.640625 29.640625 
Q 29.25 29.640625 26.46875 29.984375 
Q 23.6875 30.328125 20.515625 31 
M 20.515625 33.796875 
Q 23.09375 33.296875 25.09375 33.046875 
Q 27.09375 32.8125 28.515625 32.8125 
Q 33.59375 32.8125 37.28125 36.734375 
Q 40.96875 40.671875 40.96875 46.921875 
Q 40.96875 51.21875 39.203125 54.90625 
Q 37.453125 58.59375 34.21875 60.421875 
Q 31 62.25 26.90625 62.25 
Q 24.421875 62.25 20.515625 61.328125 
z
" id="TimesNewRomanPSMT-50"/>
      <path d="M 16.21875 46.046875 
L 16.21875 35.984375 
Q 21.828125 46.046875 27.734375 46.046875 
Q 30.421875 46.046875 32.171875 44.40625 
Q 33.9375 42.78125 33.9375 40.625 
Q 33.9375 38.71875 32.65625 37.390625 
Q 31.390625 36.078125 29.640625 36.078125 
Q 27.9375 36.078125 25.8125 37.765625 
Q 23.6875 39.453125 22.65625 39.453125 
Q 21.78125 39.453125 20.75 38.484375 
Q 18.5625 36.46875 16.21875 31.890625 
L 16.21875 10.453125 
Q 16.21875 6.734375 17.140625 4.828125 
Q 17.78125 3.515625 19.390625 2.640625 
Q 21 1.765625 24.03125 1.765625 
L 24.03125 0 
L 1.125 0 
L 1.125 1.765625 
Q 4.546875 1.765625 6.203125 2.828125 
Q 7.421875 3.609375 7.90625 5.328125 
Q 8.15625 6.15625 8.15625 10.0625 
L 8.15625 27.390625 
Q 8.15625 35.203125 7.828125 36.6875 
Q 7.515625 38.1875 6.65625 38.859375 
Q 5.8125 39.546875 4.546875 39.546875 
Q 3.03125 39.546875 1.125 38.8125 
L 0.640625 40.578125 
L 14.15625 46.046875 
z
" id="TimesNewRomanPSMT-72"/>
      <path d="M 25 46.046875 
Q 35.15625 46.046875 41.3125 38.328125 
Q 46.53125 31.734375 46.53125 23.1875 
Q 46.53125 17.1875 43.640625 11.03125 
Q 40.765625 4.890625 35.71875 1.75 
Q 30.671875 -1.375 24.46875 -1.375 
Q 14.359375 -1.375 8.40625 6.6875 
Q 3.375 13.484375 3.375 21.921875 
Q 3.375 28.078125 6.421875 34.15625 
Q 9.46875 40.234375 14.453125 43.140625 
Q 19.4375 46.046875 25 46.046875 
M 23.484375 42.875 
Q 20.90625 42.875 18.28125 41.328125 
Q 15.671875 39.796875 14.0625 35.9375 
Q 12.453125 32.078125 12.453125 26.03125 
Q 12.453125 16.265625 16.328125 9.171875 
Q 20.21875 2.09375 26.5625 2.09375 
Q 31.296875 2.09375 34.375 6 
Q 37.453125 9.90625 37.453125 19.4375 
Q 37.453125 31.34375 32.328125 38.1875 
Q 28.859375 42.875 23.484375 42.875 
" id="TimesNewRomanPSMT-6f"/>
      <path d="M 31.0625 -19.578125 
L 31.0625 -21.390625 
Q 23.6875 -17.671875 18.75 -12.703125 
Q 11.71875 -5.609375 7.90625 4 
Q 4.109375 13.625 4.109375 23.96875 
Q 4.109375 39.109375 11.578125 51.578125 
Q 19.046875 64.0625 31.0625 69.4375 
L 31.0625 67.390625 
Q 25.046875 64.0625 21.1875 58.296875 
Q 17.328125 52.546875 15.421875 43.703125 
Q 13.53125 34.859375 13.53125 25.25 
Q 13.53125 14.796875 15.140625 6.25 
Q 16.40625 -0.484375 18.203125 -4.5625 
Q 20.015625 -8.640625 23.0625 -12.390625 
Q 26.125 -16.15625 31.0625 -19.578125 
" id="TimesNewRomanPSMT-28"/>
      <path d="M 32.03125 46.046875 
L 32.03125 30.8125 
L 30.421875 30.8125 
Q 28.5625 37.984375 25.65625 40.578125 
Q 22.75 43.171875 18.265625 43.171875 
Q 14.84375 43.171875 12.734375 41.359375 
Q 10.640625 39.546875 10.640625 37.359375 
Q 10.640625 34.625 12.203125 32.671875 
Q 13.71875 30.671875 18.359375 28.421875 
L 25.484375 24.953125 
Q 35.40625 20.125 35.40625 12.203125 
Q 35.40625 6.109375 30.78125 2.359375 
Q 26.171875 -1.375 20.453125 -1.375 
Q 16.359375 -1.375 11.078125 0.09375 
Q 9.46875 0.59375 8.453125 0.59375 
Q 7.328125 0.59375 6.6875 -0.6875 
L 5.078125 -0.6875 
L 5.078125 15.28125 
L 6.6875 15.28125 
Q 8.0625 8.453125 11.90625 4.984375 
Q 15.765625 1.515625 20.5625 1.515625 
Q 23.921875 1.515625 26.046875 3.484375 
Q 28.171875 5.46875 28.171875 8.25 
Q 28.171875 11.625 25.796875 13.921875 
Q 23.4375 16.21875 16.359375 19.734375 
Q 9.28125 23.25 7.078125 26.078125 
Q 4.890625 28.859375 4.890625 33.109375 
Q 4.890625 38.625 8.671875 42.328125 
Q 12.453125 46.046875 18.453125 46.046875 
Q 21.09375 46.046875 24.859375 44.921875 
Q 27.34375 44.1875 28.171875 44.1875 
Q 28.953125 44.1875 29.390625 44.53125 
Q 29.828125 44.875 30.421875 46.046875 
z
" id="TimesNewRomanPSMT-73"/>
      <path d="M 2.25 67.390625 
L 2.25 69.4375 
Q 9.671875 65.765625 14.59375 60.796875 
Q 21.578125 53.65625 25.390625 44.0625 
Q 29.203125 34.46875 29.203125 24.078125 
Q 29.203125 8.9375 21.75 -3.53125 
Q 14.3125 -16.015625 2.25 -21.390625 
L 2.25 -19.578125 
Q 8.25 -16.21875 12.125 -10.46875 
Q 16.015625 -4.734375 17.890625 4.125 
Q 19.78125 12.984375 19.78125 22.609375 
Q 19.78125 33.015625 18.171875 41.609375 
Q 16.9375 48.34375 15.109375 52.390625 
Q 13.28125 56.453125 10.25 60.203125 
Q 7.234375 63.96875 2.25 67.390625 
" id="TimesNewRomanPSMT-29"/>
     </defs>
     <g transform="translate(136.607405 309.526562)scale(0.1 -0.1)">
      <use xlink:href="#TimesNewRomanPSMT-43"/>
      <use x="66.699219" xlink:href="#TimesNewRomanPSMT-61"/>
      <use x="111.083984" xlink:href="#TimesNewRomanPSMT-75"/>
      <use x="161.083984" xlink:href="#TimesNewRomanPSMT-64"/>
      <use x="211.083984" xlink:href="#TimesNewRomanPSMT-61"/>
      <use x="255.46875" xlink:href="#TimesNewRomanPSMT-6c"/>
      <use x="283.251953" xlink:href="#TimesNewRomanPSMT-20"/>
      <use x="308.251953" xlink:href="#TimesNewRomanPSMT-46"/>
      <use x="363.867188" xlink:href="#TimesNewRomanPSMT-69"/>
      <use x="391.650391" xlink:href="#TimesNewRomanPSMT-6e"/>
      <use x="441.650391" xlink:href="#TimesNewRomanPSMT-62"/>
      <use x="491.650391" xlink:href="#TimesNewRomanPSMT-65"/>
      <use x="536.035156" xlink:href="#TimesNewRomanPSMT-61"/>
      <use x="580.419922" xlink:href="#TimesNewRomanPSMT-74"/>
      <use x="608.203125" xlink:href="#TimesNewRomanPSMT-20"/>
      <use x="633.203125" xlink:href="#TimesNewRomanPSMT-50"/>
      <use x="688.818359" xlink:href="#TimesNewRomanPSMT-65"/>
      <use x="733.203125" xlink:href="#TimesNewRomanPSMT-72"/>
      <use x="766.503906" xlink:href="#TimesNewRomanPSMT-69"/>
      <use x="794.287109" xlink:href="#TimesNewRomanPSMT-6f"/>
      <use x="844.287109" xlink:href="#TimesNewRomanPSMT-64"/>
      <use x="894.287109" xlink:href="#TimesNewRomanPSMT-20"/>
      <use x="919.287109" xlink:href="#TimesNewRomanPSMT-28"/>
      <use x="952.587891" xlink:href="#TimesNewRomanPSMT-73"/>
      <use x="991.503906" xlink:href="#TimesNewRomanPSMT-29"/>
     </g>
    </g>
   </g>
   <g id="matplotlib.axis_2">
    <g id="ytick_1">
     <g id="line2d_7">
      <defs>
       <path d="M 0 0 
L -3.5 0 
" id="m8c0530908f" style="stroke:#000000;stroke-width:0.8;"/>
      </defs>
      <g>
       <use style="stroke:#000000;stroke-width:0.8;" x="42.282813" xlink:href="#m8c0530908f" y="282.5"/>
      </g>
     </g>
     <g id="text_8">
      <!-- 0 -->
      <g transform="translate(30.282813 285.971875)scale(0.1 -0.1)">
       <use xlink:href="#TimesNewRomanPSMT-30"/>
      </g>
     </g>
    </g>
    <g id="ytick_2">
     <g id="line2d_8">
      <g>
       <use style="stroke:#000000;stroke-width:0.8;" x="42.282813" xlink:href="#m8c0530908f" y="246.26"/>
      </g>
     </g>
     <g id="text_9">
      <!-- 20 -->
      <g transform="translate(25.282813 249.731875)scale(0.1 -0.1)">
       <use xlink:href="#TimesNewRomanPSMT-32"/>
       <use x="50" xlink:href="#TimesNewRomanPSMT-30"/>
      </g>
     </g>
    </g>
    <g id="ytick_3">
     <g id="line2d_9">
      <g>
       <use style="stroke:#000000;stroke-width:0.8;" x="42.282813" xlink:href="#m8c0530908f" y="210.02"/>
      </g>
     </g>
     <g id="text_10">
      <!-- 40 -->
      <g transform="translate(25.282813 213.491875)scale(0.1 -0.1)">
       <use xlink:href="#TimesNewRomanPSMT-34"/>
       <use x="50" xlink:href="#TimesNewRomanPSMT-30"/>
      </g>
     </g>
    </g>
    <g id="ytick_4">
     <g id="line2d_10">
      <g>
       <use style="stroke:#000000;stroke-width:0.8;" x="42.282813" xlink:href="#m8c0530908f" y="173.78"/>
      </g>
     </g>
     <g id="text_11">
      <!-- 60 -->
      <g transform="translate(25.282813 177.251875)scale(0.1 -0.1)">
       <use xlink:href="#TimesNewRomanPSMT-36"/>
       <use x="50" xlink:href="#TimesNewRomanPSMT-30"/>
      </g>
     </g>
    </g>
    <g id="ytick_5">
     <g id="line2d_11">
      <g>
       <use style="stroke:#000000;stroke-width:0.8;" x="42.282813" xlink:href="#m8c0530908f" y="137.54"/>
      </g>
     </g>
     <g id="text_12">
      <!-- 80 -->
      <g transform="translate(25.282813 141.011875)scale(0.1 -0.1)">
       <use xlink:href="#TimesNewRomanPSMT-38"/>
       <use x="50" xlink:href="#TimesNewRomanPSMT-30"/>
      </g>
     </g>
    </g>
    <g id="ytick_6">
     <g id="line2d_12">
      <g>
       <use style="stroke:#000000;stroke-width:0.8;" x="42.282813" xlink:href="#m8c0530908f" y="101.3"/>
      </g>
     </g>
     <g id="text_13">
      <!-- 100 -->
      <g transform="translate(20.282813 104.771875)scale(0.1 -0.1)">
       <use xlink:href="#TimesNewRomanPSMT-31"/>
       <use x="50" xlink:href="#TimesNewRomanPSMT-30"/>
       <use x="100" xlink:href="#TimesNewRomanPSMT-30"/>
      </g>
     </g>
    </g>
    <g id="ytick_7">
     <g id="line2d_13">
      <g>
       <use style="stroke:#000000;stroke-width:0.8;" x="42.282813" xlink:href="#m8c0530908f" y="65.06"/>
      </g>
     </g>
     <g id="text_14">
      <!-- 120 -->
      <g transform="translate(20.282813 68.531875)scale(0.1 -0.1)">
       <use xlink:href="#TimesNewRomanPSMT-31"/>
       <use x="50" xlink:href="#TimesNewRomanPSMT-32"/>
       <use x="100" xlink:href="#TimesNewRomanPSMT-30"/>
      </g>
     </g>
    </g>
    <g id="ytick_8">
     <g id="line2d_14">
      <g>
       <use style="stroke:#000000;stroke-width:0.8;" x="42.282813" xlink:href="#m8c0530908f" y="28.82"/>
      </g>
     </g>
     <g id="text_15">
      <!-- 140 -->
      <g transform="translate(20.282813 32.291875)scale(0.1 -0.1)">
       <use xlink:href="#TimesNewRomanPSMT-31"/>
       <use x="50" xlink:href="#TimesNewRomanPSMT-34"/>
       <use x="100" xlink:href="#TimesNewRomanPSMT-30"/>
      </g>
     </g>
    </g>
    <g id="text_16">
     <!-- Speed (cm/s) -->
     <defs>
      <path d="M 45.84375 67.71875 
L 45.84375 44.828125 
L 44.046875 44.828125 
Q 43.171875 51.421875 40.890625 55.328125 
Q 38.625 59.234375 34.421875 61.515625 
Q 30.21875 63.8125 25.734375 63.8125 
Q 20.65625 63.8125 17.328125 60.71875 
Q 14.015625 57.625 14.015625 53.65625 
Q 14.015625 50.640625 16.109375 48.140625 
Q 19.140625 44.484375 30.515625 38.375 
Q 39.796875 33.40625 43.1875 30.734375 
Q 46.578125 28.078125 48.40625 24.453125 
Q 50.25 20.84375 50.25 16.890625 
Q 50.25 9.375 44.40625 3.921875 
Q 38.578125 -1.515625 29.390625 -1.515625 
Q 26.515625 -1.515625 23.96875 -1.078125 
Q 22.46875 -0.828125 17.703125 0.703125 
Q 12.9375 2.25 11.671875 2.25 
Q 10.453125 2.25 9.734375 1.515625 
Q 9.03125 0.78125 8.6875 -1.515625 
L 6.890625 -1.515625 
L 6.890625 21.1875 
L 8.6875 21.1875 
Q 9.96875 14.0625 12.109375 10.515625 
Q 14.265625 6.984375 18.671875 4.640625 
Q 23.09375 2.296875 28.375 2.296875 
Q 34.46875 2.296875 38 5.515625 
Q 41.546875 8.734375 41.546875 13.140625 
Q 41.546875 15.578125 40.203125 18.0625 
Q 38.875 20.5625 36.03125 22.703125 
Q 34.125 24.171875 25.625 28.921875 
Q 17.140625 33.6875 13.546875 36.515625 
Q 9.96875 39.359375 8.109375 42.765625 
Q 6.25 46.1875 6.25 50.296875 
Q 6.25 57.421875 11.71875 62.5625 
Q 17.1875 67.71875 25.640625 67.71875 
Q 30.90625 67.71875 36.8125 65.140625 
Q 39.546875 63.921875 40.671875 63.921875 
Q 41.9375 63.921875 42.75 64.671875 
Q 43.5625 65.4375 44.046875 67.71875 
z
" id="TimesNewRomanPSMT-53"/>
      <path d="M -0.09375 40.28125 
L 13.671875 45.84375 
L 15.53125 45.84375 
L 15.53125 35.40625 
Q 19 41.3125 22.484375 43.671875 
Q 25.984375 46.046875 29.828125 46.046875 
Q 36.578125 46.046875 41.0625 40.765625 
Q 46.578125 34.328125 46.578125 23.96875 
Q 46.578125 12.40625 39.9375 4.828125 
Q 34.46875 -1.375 26.171875 -1.375 
Q 22.5625 -1.375 19.921875 -0.34375 
Q 17.96875 0.390625 15.53125 2.59375 
L 15.53125 -11.03125 
Q 15.53125 -15.625 16.09375 -16.859375 
Q 16.65625 -18.109375 18.046875 -18.84375 
Q 19.4375 -19.578125 23.09375 -19.578125 
L 23.09375 -21.390625 
L -0.34375 -21.390625 
L -0.34375 -19.578125 
L 0.875 -19.578125 
Q 3.5625 -19.625 5.46875 -18.5625 
Q 6.390625 -18.015625 6.90625 -16.8125 
Q 7.421875 -15.625 7.421875 -10.75 
L 7.421875 31.546875 
Q 7.421875 35.890625 7.03125 37.0625 
Q 6.640625 38.234375 5.78125 38.8125 
Q 4.9375 39.40625 3.46875 39.40625 
Q 2.296875 39.40625 0.484375 38.71875 
z
M 15.53125 32.515625 
L 15.53125 15.828125 
Q 15.53125 10.40625 15.96875 8.6875 
Q 16.65625 5.859375 19.3125 3.703125 
Q 21.96875 1.5625 26.03125 1.5625 
Q 30.90625 1.5625 33.9375 5.375 
Q 37.890625 10.359375 37.890625 19.390625 
Q 37.890625 29.640625 33.40625 35.15625 
Q 30.28125 38.96875 25.984375 38.96875 
Q 23.640625 38.96875 21.34375 37.796875 
Q 19.578125 36.921875 15.53125 32.515625 
" id="TimesNewRomanPSMT-70"/>
      <path d="M 41.109375 17 
Q 39.3125 8.15625 34.03125 3.390625 
Q 28.765625 -1.375 22.359375 -1.375 
Q 14.75 -1.375 9.078125 5.015625 
Q 3.421875 11.421875 3.421875 22.3125 
Q 3.421875 32.859375 9.6875 39.453125 
Q 15.96875 46.046875 24.75 46.046875 
Q 31.34375 46.046875 35.59375 42.546875 
Q 39.84375 39.0625 39.84375 35.296875 
Q 39.84375 33.453125 38.640625 32.296875 
Q 37.453125 31.15625 35.296875 31.15625 
Q 32.421875 31.15625 30.953125 33.015625 
Q 30.125 34.03125 29.859375 36.90625 
Q 29.59375 39.796875 27.875 41.3125 
Q 26.171875 42.78125 23.140625 42.78125 
Q 18.265625 42.78125 15.28125 39.15625 
Q 11.328125 34.375 11.328125 26.515625 
Q 11.328125 18.5 15.25 12.375 
Q 19.1875 6.25 25.875 6.25 
Q 30.671875 6.25 34.46875 9.515625 
Q 37.15625 11.765625 39.703125 17.671875 
z
" id="TimesNewRomanPSMT-63"/>
      <path d="M 16.40625 36.53125 
Q 21.296875 41.40625 22.171875 42.140625 
Q 24.359375 44 26.890625 45.015625 
Q 29.4375 46.046875 31.9375 46.046875 
Q 36.140625 46.046875 39.15625 43.59375 
Q 42.1875 41.15625 43.21875 36.53125 
Q 48.25 42.390625 51.703125 44.21875 
Q 55.171875 46.046875 58.84375 46.046875 
Q 62.40625 46.046875 65.15625 44.21875 
Q 67.921875 42.390625 69.53125 38.234375 
Q 70.609375 35.40625 70.609375 29.34375 
L 70.609375 10.109375 
Q 70.609375 5.90625 71.234375 4.34375 
Q 71.734375 3.265625 73.046875 2.515625 
Q 74.359375 1.765625 77.34375 1.765625 
L 77.34375 0 
L 55.28125 0 
L 55.28125 1.765625 
L 56.203125 1.765625 
Q 59.078125 1.765625 60.6875 2.875 
Q 61.8125 3.65625 62.3125 5.375 
Q 62.5 6.203125 62.5 10.109375 
L 62.5 29.34375 
Q 62.5 34.8125 61.1875 37.0625 
Q 59.28125 40.1875 55.078125 40.1875 
Q 52.484375 40.1875 49.875 38.890625 
Q 47.265625 37.59375 43.5625 34.078125 
L 43.453125 33.546875 
L 43.5625 31.453125 
L 43.5625 10.109375 
Q 43.5625 5.515625 44.0625 4.390625 
Q 44.578125 3.265625 45.984375 2.515625 
Q 47.40625 1.765625 50.828125 1.765625 
L 50.828125 0 
L 28.21875 0 
L 28.21875 1.765625 
Q 31.9375 1.765625 33.328125 2.640625 
Q 34.71875 3.515625 35.25 5.28125 
Q 35.5 6.109375 35.5 10.109375 
L 35.5 29.34375 
Q 35.5 34.8125 33.890625 37.203125 
Q 31.734375 40.328125 27.875 40.328125 
Q 25.25 40.328125 22.65625 38.921875 
Q 18.609375 36.765625 16.40625 34.078125 
L 16.40625 10.109375 
Q 16.40625 5.71875 17.015625 4.390625 
Q 17.625 3.078125 18.8125 2.421875 
Q 20.015625 1.765625 23.6875 1.765625 
L 23.6875 0 
L 1.5625 0 
L 1.5625 1.765625 
Q 4.640625 1.765625 5.859375 2.421875 
Q 7.078125 3.078125 7.703125 4.515625 
Q 8.34375 5.953125 8.34375 10.109375 
L 8.34375 27.203125 
Q 8.34375 34.578125 7.90625 36.71875 
Q 7.5625 38.328125 6.828125 38.9375 
Q 6.109375 39.546875 4.828125 39.546875 
Q 3.46875 39.546875 1.5625 38.8125 
L 0.828125 40.578125 
L 14.3125 46.046875 
L 16.40625 46.046875 
z
" id="TimesNewRomanPSMT-6d"/>
      <path d="M 28.03125 69.4375 
L 4.046875 -1.375 
L 0.140625 -1.375 
L 24.125 69.4375 
z
" id="TimesNewRomanPSMT-2f"/>
     </defs>
     <g transform="translate(14.14375 172.842969)rotate(-90)scale(0.1 -0.1)">
      <use xlink:href="#TimesNewRomanPSMT-53"/>
      <use x="55.615234" xlink:href="#TimesNewRomanPSMT-70"/>
      <use x="105.615234" xlink:href="#TimesNewRomanPSMT-65"/>
      <use x="150" xlink:href="#TimesNewRomanPSMT-65"/>
      <use x="194.384766" xlink:href="#TimesNewRomanPSMT-64"/>
      <use x="244.384766" xlink:href="#TimesNewRomanPSMT-20"/>
      <use x="269.384766" xlink:href="#TimesNewRomanPSMT-28"/>
      <use x="302.685547" xlink:href="#TimesNewRomanPSMT-63"/>
      <use x="347.070312" xlink:href="#TimesNewRomanPSMT-6d"/>
      <use x="424.853516" xlink:href="#TimesNewRomanPSMT-2f"/>
      <use x="452.636719" xlink:href="#TimesNewRomanPSMT-73"/>
      <use x="491.552734" xlink:href="#TimesNewRomanPSMT-29"/>
     </g>
    </g>
   </g>
   <g id="line2d_15">
    <path clip-path="url(#p24c68c4f05)" d="M 333.201887 282.3188 
L 330.292523 279.575176 
L 327.38316 276.831552 
L 324.473796 274.087927 
L 321.564433 271.344303 
L 318.655069 268.600679 
L 315.745706 265.857055 
L 312.836342 263.11343 
L 309.926979 260.369806 
L 307.017615 257.626182 
L 304.108252 254.882558 
L 301.198888 252.138933 
L 298.289525 249.395309 
L 295.380161 246.651685 
L 292.470798 243.908061 
L 289.561434 241.164436 
L 286.652071 238.420812 
L 283.742707 235.677188 
L 280.833344 232.933564 
L 277.923981 230.189939 
L 275.014617 227.446315 
L 272.105254 224.702691 
L 269.19589 221.959067 
L 266.286527 219.215442 
L 263.377163 216.471818 
L 260.4678 213.728194 
L 257.558436 210.98457 
L 254.649073 208.240945 
L 251.739709 205.497321 
L 248.830346 202.753697 
L 245.920982 200.010073 
L 243.011619 197.266448 
L 240.102255 194.522824 
L 237.192892 191.7792 
L 234.283528 189.035576 
L 231.374165 186.291952 
L 228.464801 183.548327 
L 225.555438 180.804703 
L 222.646074 178.061079 
L 219.736711 175.317455 
L 216.827347 172.57383 
L 213.917984 169.830206 
L 211.008621 167.086582 
L 208.099257 164.342958 
L 205.189894 161.599333 
L 202.28053 158.855709 
L 199.371167 156.112085 
L 196.461803 153.368461 
L 193.55244 150.624836 
L 190.643076 147.881212 
L 187.733713 145.137588 
L 184.824349 142.393964 
L 181.914986 139.650339 
L 179.005622 136.906715 
L 176.096259 134.163091 
L 173.186895 131.419467 
L 170.277532 128.675842 
L 167.368168 125.932218 
L 164.458805 123.188594 
L 161.549441 120.44497 
L 158.640078 117.701345 
L 155.730714 114.957721 
L 152.821351 112.214097 
L 149.911987 109.470473 
L 147.002624 106.726848 
L 144.093261 103.983224 
L 141.183897 101.2396 
L 138.274534 98.495976 
L 135.36517 95.752352 
L 132.455807 93.008727 
L 129.546443 90.265103 
L 126.63708 87.521479 
L 123.727716 84.777855 
L 120.818353 82.03423 
L 117.908989 79.290606 
L 114.999626 76.546982 
L 112.090262 73.803358 
L 109.180899 71.059733 
L 106.271535 68.316109 
L 103.362172 65.572485 
L 100.452808 62.828861 
L 97.543445 60.085236 
L 94.634081 57.341612 
L 91.724718 54.597988 
L 88.815354 51.854364 
L 85.905991 49.110739 
L 82.996627 46.367115 
L 80.087264 43.623491 
L 77.177901 40.879867 
L 74.268537 38.136242 
L 71.359174 35.392618 
L 68.44981 32.648994 
L 65.540447 29.90537 
L 62.631083 27.161745 
L 59.72172 24.418121 
L 56.812356 21.674497 
L 53.902993 18.930873 
L 50.993629 16.187248 
L 48.084266 13.443624 
L 45.174902 10.7 
" style="fill:none;stroke:#1f77b4;stroke-linecap:square;stroke-width:3;"/>
   </g>
   <g id="patch_3">
    <path d="M 42.282813 282.5 
L 42.282813 10.7 
" style="fill:none;stroke:#000000;stroke-linecap:square;stroke-linejoin:miter;stroke-width:0.8;"/>
   </g>
   <g id="patch_4">
    <path d="M 333.413247 282.5 
L 333.413247 10.7 
" style="fill:none;stroke:#000000;stroke-linecap:square;stroke-linejoin:miter;stroke-width:0.8;"/>
   </g>
   <g id="patch_5">
    <path d="M 42.282813 282.5 
L 333.413247 282.5 
" style="fill:none;stroke:#000000;stroke-linecap:square;stroke-linejoin:miter;stroke-width:0.8;"/>
   </g>
   <g id="patch_6">
    <path d="M 42.282813 10.7 
L 333.413247 10.7 
" style="fill:none;stroke:#000000;stroke-linecap:square;stroke-linejoin:miter;stroke-width:0.8;"/>
   </g>
  </g>
  <g id="axes_2">
   <g id="patch_7">
    <path d="M 391.639334 282.5 
L 682.769769 282.5 
L 682.769769 10.7 
L 391.639334 10.7 
z
" style="fill:#ffffff;"/>
   </g>
   <g id="matplotlib.axis_3">
    <g id="xtick_7">
     <g id="line2d_16">
      <g>
       <use style="stroke:#000000;stroke-width:0.8;" x="391.639334" xlink:href="#m1423594332" y="282.5"/>
      </g>
     </g>
     <g id="text_17">
      <!-- 0 -->
      <g transform="translate(389.139334 296.44375)scale(0.1 -0.1)">
       <use xlink:href="#TimesNewRomanPSMT-30"/>
      </g>
     </g>
    </g>
    <g id="xtick_8">
     <g id="line2d_17">
      <g>
       <use style="stroke:#000000;stroke-width:0.8;" x="449.865421" xlink:href="#m1423594332" y="282.5"/>
      </g>
     </g>
     <g id="text_18">
      <!-- 1 -->
      <g transform="translate(447.365421 296.44375)scale(0.1 -0.1)">
       <use xlink:href="#TimesNewRomanPSMT-31"/>
      </g>
     </g>
    </g>
    <g id="xtick_9">
     <g id="line2d_18">
      <g>
       <use style="stroke:#000000;stroke-width:0.8;" x="508.091508" xlink:href="#m1423594332" y="282.5"/>
      </g>
     </g>
     <g id="text_19">
      <!-- 2 -->
      <g transform="translate(505.591508 296.44375)scale(0.1 -0.1)">
       <use xlink:href="#TimesNewRomanPSMT-32"/>
      </g>
     </g>
    </g>
    <g id="xtick_10">
     <g id="line2d_19">
      <g>
       <use style="stroke:#000000;stroke-width:0.8;" x="566.317595" xlink:href="#m1423594332" y="282.5"/>
      </g>
     </g>
     <g id="text_20">
      <!-- 3 -->
      <defs>
       <path d="M 5.078125 53.609375 
Q 7.90625 60.296875 12.21875 63.9375 
Q 16.546875 67.578125 23 67.578125 
Q 30.953125 67.578125 35.203125 62.40625 
Q 38.421875 58.546875 38.421875 54.15625 
Q 38.421875 46.921875 29.34375 39.203125 
Q 35.453125 36.8125 38.578125 32.375 
Q 41.703125 27.9375 41.703125 21.921875 
Q 41.703125 13.328125 36.234375 7.03125 
Q 29.109375 -1.171875 15.578125 -1.171875 
Q 8.890625 -1.171875 6.46875 0.484375 
Q 4.046875 2.15625 4.046875 4.046875 
Q 4.046875 5.46875 5.1875 6.546875 
Q 6.34375 7.625 7.953125 7.625 
Q 9.1875 7.625 10.453125 7.234375 
Q 11.28125 6.984375 14.203125 5.4375 
Q 17.140625 3.90625 18.265625 3.609375 
Q 20.0625 3.078125 22.125 3.078125 
Q 27.09375 3.078125 30.78125 6.9375 
Q 34.46875 10.796875 34.46875 16.0625 
Q 34.46875 19.921875 32.765625 23.578125 
Q 31.5 26.3125 29.984375 27.734375 
Q 27.875 29.6875 24.21875 31.265625 
Q 20.5625 32.859375 16.75 32.859375 
L 15.1875 32.859375 
L 15.1875 34.328125 
Q 19.046875 34.8125 22.921875 37.109375 
Q 26.8125 39.40625 28.5625 42.625 
Q 30.328125 45.84375 30.328125 49.703125 
Q 30.328125 54.734375 27.171875 57.828125 
Q 24.03125 60.9375 19.34375 60.9375 
Q 11.765625 60.9375 6.6875 52.828125 
z
" id="TimesNewRomanPSMT-33"/>
      </defs>
      <g transform="translate(563.817595 296.44375)scale(0.1 -0.1)">
       <use xlink:href="#TimesNewRomanPSMT-33"/>
      </g>
     </g>
    </g>
    <g id="xtick_11">
     <g id="line2d_20">
      <g>
       <use style="stroke:#000000;stroke-width:0.8;" x="624.543682" xlink:href="#m1423594332" y="282.5"/>
      </g>
     </g>
     <g id="text_21">
      <!-- 4 -->
      <g transform="translate(622.043682 296.44375)scale(0.1 -0.1)">
       <use xlink:href="#TimesNewRomanPSMT-34"/>
      </g>
     </g>
    </g>
    <g id="xtick_12">
     <g id="line2d_21">
      <g>
       <use style="stroke:#000000;stroke-width:0.8;" x="682.769769" xlink:href="#m1423594332" y="282.5"/>
      </g>
     </g>
     <g id="text_22">
      <!-- 5 -->
      <defs>
       <path d="M 43.40625 66.21875 
L 39.59375 57.90625 
L 19.671875 57.90625 
L 15.328125 49.03125 
Q 28.265625 47.125 35.84375 39.40625 
Q 42.328125 32.765625 42.328125 23.78125 
Q 42.328125 18.5625 40.203125 14.109375 
Q 38.09375 9.671875 34.859375 6.546875 
Q 31.640625 3.421875 27.6875 1.515625 
Q 22.078125 -1.171875 16.15625 -1.171875 
Q 10.203125 -1.171875 7.484375 0.84375 
Q 4.78125 2.875 4.78125 5.328125 
Q 4.78125 6.6875 5.90625 7.734375 
Q 7.03125 8.796875 8.734375 8.796875 
Q 10.015625 8.796875 10.96875 8.40625 
Q 11.921875 8.015625 14.203125 6.390625 
Q 17.875 3.859375 21.625 3.859375 
Q 27.34375 3.859375 31.65625 8.171875 
Q 35.984375 12.5 35.984375 18.703125 
Q 35.984375 24.703125 32.125 29.90625 
Q 28.265625 35.109375 21.484375 37.9375 
Q 16.15625 40.140625 6.984375 40.484375 
L 19.671875 66.21875 
z
" id="TimesNewRomanPSMT-35"/>
      </defs>
      <g transform="translate(680.269769 296.44375)scale(0.1 -0.1)">
       <use xlink:href="#TimesNewRomanPSMT-35"/>
      </g>
     </g>
    </g>
    <g id="text_23">
     <!-- Caudal Finbeat Amplitude (cm) -->
     <defs>
      <path d="M 45.75 22.171875 
L 20.125 22.171875 
L 15.625 11.71875 
Q 13.96875 7.859375 13.96875 5.953125 
Q 13.96875 4.4375 15.40625 3.296875 
Q 16.84375 2.15625 21.625 1.8125 
L 21.625 0 
L 0.78125 0 
L 0.78125 1.8125 
Q 4.9375 2.546875 6.15625 3.71875 
Q 8.640625 6.0625 11.671875 13.234375 
L 34.96875 67.71875 
L 36.671875 67.71875 
L 59.71875 12.640625 
Q 62.5 6 64.765625 4.015625 
Q 67.046875 2.046875 71.09375 1.8125 
L 71.09375 0 
L 44.96875 0 
L 44.96875 1.8125 
Q 48.921875 2 50.3125 3.125 
Q 51.703125 4.25 51.703125 5.859375 
Q 51.703125 8.015625 49.75 12.640625 
z
M 44.390625 25.78125 
L 33.15625 52.546875 
L 21.625 25.78125 
z
" id="TimesNewRomanPSMT-41"/>
     </defs>
     <g transform="translate(473.47252 309.526562)scale(0.1 -0.1)">
      <use xlink:href="#TimesNewRomanPSMT-43"/>
      <use x="66.699219" xlink:href="#TimesNewRomanPSMT-61"/>
      <use x="111.083984" xlink:href="#TimesNewRomanPSMT-75"/>
      <use x="161.083984" xlink:href="#TimesNewRomanPSMT-64"/>
      <use x="211.083984" xlink:href="#TimesNewRomanPSMT-61"/>
      <use x="255.46875" xlink:href="#TimesNewRomanPSMT-6c"/>
      <use x="283.251953" xlink:href="#TimesNewRomanPSMT-20"/>
      <use x="308.251953" xlink:href="#TimesNewRomanPSMT-46"/>
      <use x="363.867188" xlink:href="#TimesNewRomanPSMT-69"/>
      <use x="391.650391" xlink:href="#TimesNewRomanPSMT-6e"/>
      <use x="441.650391" xlink:href="#TimesNewRomanPSMT-62"/>
      <use x="491.650391" xlink:href="#TimesNewRomanPSMT-65"/>
      <use x="536.035156" xlink:href="#TimesNewRomanPSMT-61"/>
      <use x="580.419922" xlink:href="#TimesNewRomanPSMT-74"/>
      <use x="608.203125" xlink:href="#TimesNewRomanPSMT-20"/>
      <use x="633.125" xlink:href="#TimesNewRomanPSMT-41"/>
      <use x="705.341797" xlink:href="#TimesNewRomanPSMT-6d"/>
      <use x="783.125" xlink:href="#TimesNewRomanPSMT-70"/>
      <use x="833.125" xlink:href="#TimesNewRomanPSMT-6c"/>
      <use x="860.908203" xlink:href="#TimesNewRomanPSMT-69"/>
      <use x="888.691406" xlink:href="#TimesNewRomanPSMT-74"/>
      <use x="916.474609" xlink:href="#TimesNewRomanPSMT-75"/>
      <use x="966.474609" xlink:href="#TimesNewRomanPSMT-64"/>
      <use x="1016.474609" xlink:href="#TimesNewRomanPSMT-65"/>
      <use x="1060.859375" xlink:href="#TimesNewRomanPSMT-20"/>
      <use x="1085.859375" xlink:href="#TimesNewRomanPSMT-28"/>
      <use x="1119.160156" xlink:href="#TimesNewRomanPSMT-63"/>
      <use x="1163.544922" xlink:href="#TimesNewRomanPSMT-6d"/>
      <use x="1241.328125" xlink:href="#TimesNewRomanPSMT-29"/>
     </g>
    </g>
   </g>
   <g id="matplotlib.axis_4">
    <g id="ytick_9">
     <g id="line2d_22">
      <g>
       <use style="stroke:#000000;stroke-width:0.8;" x="391.639334" xlink:href="#m8c0530908f" y="282.5"/>
      </g>
     </g>
     <g id="text_24">
      <!-- 0 -->
      <g transform="translate(379.639334 285.971875)scale(0.1 -0.1)">
       <use xlink:href="#TimesNewRomanPSMT-30"/>
      </g>
     </g>
    </g>
    <g id="ytick_10">
     <g id="line2d_23">
      <g>
       <use style="stroke:#000000;stroke-width:0.8;" x="391.639334" xlink:href="#m8c0530908f" y="246.26"/>
      </g>
     </g>
     <g id="text_25">
      <!-- 20 -->
      <g transform="translate(374.639334 249.731875)scale(0.1 -0.1)">
       <use xlink:href="#TimesNewRomanPSMT-32"/>
       <use x="50" xlink:href="#TimesNewRomanPSMT-30"/>
      </g>
     </g>
    </g>
    <g id="ytick_11">
     <g id="line2d_24">
      <g>
       <use style="stroke:#000000;stroke-width:0.8;" x="391.639334" xlink:href="#m8c0530908f" y="210.02"/>
      </g>
     </g>
     <g id="text_26">
      <!-- 40 -->
      <g transform="translate(374.639334 213.491875)scale(0.1 -0.1)">
       <use xlink:href="#TimesNewRomanPSMT-34"/>
       <use x="50" xlink:href="#TimesNewRomanPSMT-30"/>
      </g>
     </g>
    </g>
    <g id="ytick_12">
     <g id="line2d_25">
      <g>
       <use style="stroke:#000000;stroke-width:0.8;" x="391.639334" xlink:href="#m8c0530908f" y="173.78"/>
      </g>
     </g>
     <g id="text_27">
      <!-- 60 -->
      <g transform="translate(374.639334 177.251875)scale(0.1 -0.1)">
       <use xlink:href="#TimesNewRomanPSMT-36"/>
       <use x="50" xlink:href="#TimesNewRomanPSMT-30"/>
      </g>
     </g>
    </g>
    <g id="ytick_13">
     <g id="line2d_26">
      <g>
       <use style="stroke:#000000;stroke-width:0.8;" x="391.639334" xlink:href="#m8c0530908f" y="137.54"/>
      </g>
     </g>
     <g id="text_28">
      <!-- 80 -->
      <g transform="translate(374.639334 141.011875)scale(0.1 -0.1)">
       <use xlink:href="#TimesNewRomanPSMT-38"/>
       <use x="50" xlink:href="#TimesNewRomanPSMT-30"/>
      </g>
     </g>
    </g>
    <g id="ytick_14">
     <g id="line2d_27">
      <g>
       <use style="stroke:#000000;stroke-width:0.8;" x="391.639334" xlink:href="#m8c0530908f" y="101.3"/>
      </g>
     </g>
     <g id="text_29">
      <!-- 100 -->
      <g transform="translate(369.639334 104.771875)scale(0.1 -0.1)">
       <use xlink:href="#TimesNewRomanPSMT-31"/>
       <use x="50" xlink:href="#TimesNewRomanPSMT-30"/>
       <use x="100" xlink:href="#TimesNewRomanPSMT-30"/>
      </g>
     </g>
    </g>
    <g id="ytick_15">
     <g id="line2d_28">
      <g>
       <use style="stroke:#000000;stroke-width:0.8;" x="391.639334" xlink:href="#m8c0530908f" y="65.06"/>
      </g>
     </g>
     <g id="text_30">
      <!-- 120 -->
      <g transform="translate(369.639334 68.531875)scale(0.1 -0.1)">
       <use xlink:href="#TimesNewRomanPSMT-31"/>
       <use x="50" xlink:href="#TimesNewRomanPSMT-32"/>
       <use x="100" xlink:href="#TimesNewRomanPSMT-30"/>
      </g>
     </g>
    </g>
    <g id="ytick_16">
     <g id="line2d_29">
      <g>
       <use style="stroke:#000000;stroke-width:0.8;" x="391.639334" xlink:href="#m8c0530908f" y="28.82"/>
      </g>
     </g>
     <g id="text_31">
      <!-- 140 -->
      <g transform="translate(369.639334 32.291875)scale(0.1 -0.1)">
       <use xlink:href="#TimesNewRomanPSMT-31"/>
       <use x="50" xlink:href="#TimesNewRomanPSMT-34"/>
       <use x="100" xlink:href="#TimesNewRomanPSMT-30"/>
      </g>
     </g>
    </g>
    <g id="text_32">
     <!-- Speed (cm/s) -->
     <g transform="translate(363.500272 172.842969)rotate(-90)scale(0.1 -0.1)">
      <use xlink:href="#TimesNewRomanPSMT-53"/>
      <use x="55.615234" xlink:href="#TimesNewRomanPSMT-70"/>
      <use x="105.615234" xlink:href="#TimesNewRomanPSMT-65"/>
      <use x="150" xlink:href="#TimesNewRomanPSMT-65"/>
      <use x="194.384766" xlink:href="#TimesNewRomanPSMT-64"/>
      <use x="244.384766" xlink:href="#TimesNewRomanPSMT-20"/>
      <use x="269.384766" xlink:href="#TimesNewRomanPSMT-28"/>
      <use x="302.685547" xlink:href="#TimesNewRomanPSMT-63"/>
      <use x="347.070312" xlink:href="#TimesNewRomanPSMT-6d"/>
      <use x="424.853516" xlink:href="#TimesNewRomanPSMT-2f"/>
      <use x="452.636719" xlink:href="#TimesNewRomanPSMT-73"/>
      <use x="491.552734" xlink:href="#TimesNewRomanPSMT-29"/>
     </g>
    </g>
   </g>
   <g id="line2d_30">
    <path clip-path="url(#p15fe51ab3c)" d="M 444.831871 282.3188 
L 480.127917 279.575176 
L 488.624525 276.831552 
L 493.747551 274.087927 
L 497.44994 271.344303 
L 500.364879 268.600679 
L 502.778771 265.857055 
L 504.845785 263.11343 
L 506.658513 260.369806 
L 508.276946 257.626182 
L 509.742191 254.882558 
L 511.083655 252.138933 
L 512.323103 249.395309 
L 513.477103 246.651685 
L 514.558562 243.908061 
L 515.577732 241.164436 
L 516.542898 238.420812 
L 517.46085 235.677188 
L 518.337226 232.933564 
L 519.176764 230.189939 
L 519.98348 227.446315 
L 520.760817 224.702691 
L 521.511744 221.959067 
L 522.238848 219.215442 
L 522.944392 216.471818 
L 523.630376 213.728194 
L 524.298571 210.98457 
L 524.950559 208.240945 
L 525.587762 205.497321 
L 526.211458 202.753697 
L 526.82281 200.010073 
L 527.422875 197.266448 
L 528.012621 194.522824 
L 528.592937 191.7792 
L 529.164646 189.035576 
L 529.72851 186.291952 
L 530.28524 183.548327 
L 530.835499 180.804703 
L 531.379913 178.061079 
L 531.919072 175.317455 
L 532.453534 172.57383 
L 532.983834 169.830206 
L 533.51048 167.086582 
L 534.033962 164.342958 
L 534.554755 161.599333 
L 535.073318 158.855709 
L 535.590098 156.112085 
L 536.105536 153.368461 
L 536.620062 150.624836 
L 537.134105 147.881212 
L 537.648089 145.137588 
L 538.162441 142.393964 
L 538.677586 139.650339 
L 539.193956 136.906715 
L 539.711987 134.163091 
L 540.232125 131.419467 
L 540.754826 128.675842 
L 541.280559 125.932218 
L 541.809809 123.188594 
L 542.343081 120.44497 
L 542.880901 117.701345 
L 543.42382 114.957721 
L 543.97242 112.214097 
L 544.527316 109.470473 
L 545.08916 106.726848 
L 545.65865 103.983224 
L 546.236533 101.2396 
L 546.823614 98.495976 
L 547.420764 95.752352 
L 548.028928 93.008727 
L 548.649137 90.265103 
L 549.282523 87.521479 
L 549.930333 84.777855 
L 550.593945 82.03423 
L 551.274896 79.290606 
L 551.974902 76.546982 
L 552.695896 73.803358 
L 553.440065 71.059733 
L 554.2099 68.316109 
L 555.008261 65.572485 
L 555.838448 62.828861 
L 556.704312 60.085236 
L 557.610374 57.341612 
L 558.562005 54.597988 
L 559.565651 51.854364 
L 560.629148 49.110739 
L 561.762152 46.367115 
L 562.97676 43.623491 
L 564.288412 40.879867 
L 565.717259 38.136242 
L 567.290299 35.392618 
L 569.044896 32.648994 
L 571.034885 29.90537 
L 573.341958 27.161745 
L 576.099001 24.418121 
L 579.544496 21.674497 
L 584.176364 18.930873 
L 591.357655 16.187248 
L 608.839938 13.443624 
" style="fill:none;stroke:#1f77b4;stroke-linecap:square;stroke-width:3;"/>
   </g>
   <g id="patch_8">
    <path d="M 391.639334 282.5 
L 391.639334 10.7 
" style="fill:none;stroke:#000000;stroke-linecap:square;stroke-linejoin:miter;stroke-width:0.8;"/>
   </g>
   <g id="patch_9">
    <path d="M 682.769769 282.5 
L 682.769769 10.7 
" style="fill:none;stroke:#000000;stroke-linecap:square;stroke-linejoin:miter;stroke-width:0.8;"/>
   </g>
   <g id="patch_10">
    <path d="M 391.639334 282.5 
L 682.769769 282.5 
" style="fill:none;stroke:#000000;stroke-linecap:square;stroke-linejoin:miter;stroke-width:0.8;"/>
   </g>
   <g id="patch_11">
    <path d="M 391.639334 10.7 
L 682.769769 10.7 
" style="fill:none;stroke:#000000;stroke-linecap:square;stroke-linejoin:miter;stroke-width:0.8;"/>
   </g>
  </g>
  <g id="axes_3">
   <g id="patch_12">
    <path d="M 740.995856 282.5 
L 1032.126291 282.5 
L 1032.126291 10.7 
L 740.995856 10.7 
z
" style="fill:#ffffff;"/>
   </g>
   <g id="matplotlib.axis_5">
    <g id="xtick_13">
     <g id="line2d_31">
      <g>
       <use style="stroke:#000000;stroke-width:0.8;" x="740.995856" xlink:href="#m1423594332" y="282.5"/>
      </g>
     </g>
     <g id="text_33">
      <!-- 0.0 -->
      <g transform="translate(734.745856 296.44375)scale(0.1 -0.1)">
       <use xlink:href="#TimesNewRomanPSMT-30"/>
       <use x="50" xlink:href="#TimesNewRomanPSMT-2e"/>
       <use x="75" xlink:href="#TimesNewRomanPSMT-30"/>
      </g>
     </g>
    </g>
    <g id="xtick_14">
     <g id="line2d_32">
      <g>
       <use style="stroke:#000000;stroke-width:0.8;" x="777.38716" xlink:href="#m1423594332" y="282.5"/>
      </g>
     </g>
     <g id="text_34">
      <!-- 2.5 -->
      <g transform="translate(771.13716 296.44375)scale(0.1 -0.1)">
       <use xlink:href="#TimesNewRomanPSMT-32"/>
       <use x="50" xlink:href="#TimesNewRomanPSMT-2e"/>
       <use x="75" xlink:href="#TimesNewRomanPSMT-35"/>
      </g>
     </g>
    </g>
    <g id="xtick_15">
     <g id="line2d_33">
      <g>
       <use style="stroke:#000000;stroke-width:0.8;" x="813.778465" xlink:href="#m1423594332" y="282.5"/>
      </g>
     </g>
     <g id="text_35">
      <!-- 5.0 -->
      <g transform="translate(807.528465 296.44375)scale(0.1 -0.1)">
       <use xlink:href="#TimesNewRomanPSMT-35"/>
       <use x="50" xlink:href="#TimesNewRomanPSMT-2e"/>
       <use x="75" xlink:href="#TimesNewRomanPSMT-30"/>
      </g>
     </g>
    </g>
    <g id="xtick_16">
     <g id="line2d_34">
      <g>
       <use style="stroke:#000000;stroke-width:0.8;" x="850.169769" xlink:href="#m1423594332" y="282.5"/>
      </g>
     </g>
     <g id="text_36">
      <!-- 7.5 -->
      <defs>
       <path d="M 10.0625 66.21875 
L 45.5625 66.21875 
L 45.5625 64.359375 
L 23.484375 -1.375 
L 18.015625 -1.375 
L 37.796875 58.25 
L 19.578125 58.25 
Q 14.0625 58.25 11.71875 56.9375 
Q 7.625 54.6875 5.125 50 
L 3.71875 50.53125 
z
" id="TimesNewRomanPSMT-37"/>
      </defs>
      <g transform="translate(843.919769 296.44375)scale(0.1 -0.1)">
       <use xlink:href="#TimesNewRomanPSMT-37"/>
       <use x="50" xlink:href="#TimesNewRomanPSMT-2e"/>
       <use x="75" xlink:href="#TimesNewRomanPSMT-35"/>
      </g>
     </g>
    </g>
    <g id="xtick_17">
     <g id="line2d_35">
      <g>
       <use style="stroke:#000000;stroke-width:0.8;" x="886.561073" xlink:href="#m1423594332" y="282.5"/>
      </g>
     </g>
     <g id="text_37">
      <!-- 10.0 -->
      <g transform="translate(877.811073 296.44375)scale(0.1 -0.1)">
       <use xlink:href="#TimesNewRomanPSMT-31"/>
       <use x="50" xlink:href="#TimesNewRomanPSMT-30"/>
       <use x="100" xlink:href="#TimesNewRomanPSMT-2e"/>
       <use x="125" xlink:href="#TimesNewRomanPSMT-30"/>
      </g>
     </g>
    </g>
    <g id="xtick_18">
     <g id="line2d_36">
      <g>
       <use style="stroke:#000000;stroke-width:0.8;" x="922.952378" xlink:href="#m1423594332" y="282.5"/>
      </g>
     </g>
     <g id="text_38">
      <!-- 12.5 -->
      <g transform="translate(914.202378 296.44375)scale(0.1 -0.1)">
       <use xlink:href="#TimesNewRomanPSMT-31"/>
       <use x="50" xlink:href="#TimesNewRomanPSMT-32"/>
       <use x="100" xlink:href="#TimesNewRomanPSMT-2e"/>
       <use x="125" xlink:href="#TimesNewRomanPSMT-35"/>
      </g>
     </g>
    </g>
    <g id="xtick_19">
     <g id="line2d_37">
      <g>
       <use style="stroke:#000000;stroke-width:0.8;" x="959.343682" xlink:href="#m1423594332" y="282.5"/>
      </g>
     </g>
     <g id="text_39">
      <!-- 15.0 -->
      <g transform="translate(950.593682 296.44375)scale(0.1 -0.1)">
       <use xlink:href="#TimesNewRomanPSMT-31"/>
       <use x="50" xlink:href="#TimesNewRomanPSMT-35"/>
       <use x="100" xlink:href="#TimesNewRomanPSMT-2e"/>
       <use x="125" xlink:href="#TimesNewRomanPSMT-30"/>
      </g>
     </g>
    </g>
    <g id="xtick_20">
     <g id="line2d_38">
      <g>
       <use style="stroke:#000000;stroke-width:0.8;" x="995.734986" xlink:href="#m1423594332" y="282.5"/>
      </g>
     </g>
     <g id="text_40">
      <!-- 17.5 -->
      <g transform="translate(986.984986 296.44375)scale(0.1 -0.1)">
       <use xlink:href="#TimesNewRomanPSMT-31"/>
       <use x="50" xlink:href="#TimesNewRomanPSMT-37"/>
       <use x="100" xlink:href="#TimesNewRomanPSMT-2e"/>
       <use x="125" xlink:href="#TimesNewRomanPSMT-35"/>
      </g>
     </g>
    </g>
    <g id="xtick_21">
     <g id="line2d_39">
      <g>
       <use style="stroke:#000000;stroke-width:0.8;" x="1032.126291" xlink:href="#m1423594332" y="282.5"/>
      </g>
     </g>
     <g id="text_41">
      <!-- 20.0 -->
      <g transform="translate(1023.376291 296.44375)scale(0.1 -0.1)">
       <use xlink:href="#TimesNewRomanPSMT-32"/>
       <use x="50" xlink:href="#TimesNewRomanPSMT-30"/>
       <use x="100" xlink:href="#TimesNewRomanPSMT-2e"/>
       <use x="125" xlink:href="#TimesNewRomanPSMT-30"/>
      </g>
     </g>
    </g>
    <g id="text_42">
     <!-- Caudal Finbeat Effort (cm/s) -->
     <defs>
      <path d="M 20.90625 62.59375 
L 20.90625 36.421875 
L 35.453125 36.421875 
Q 41.109375 36.421875 43.015625 38.140625 
Q 45.5625 40.375 45.84375 46.046875 
L 47.65625 46.046875 
L 47.65625 23 
L 45.84375 23 
Q 45.171875 27.828125 44.484375 29.203125 
Q 43.609375 30.90625 41.59375 31.875 
Q 39.59375 32.859375 35.453125 32.859375 
L 20.90625 32.859375 
L 20.90625 11.03125 
Q 20.90625 6.640625 21.296875 5.6875 
Q 21.6875 4.734375 22.65625 4.171875 
Q 23.640625 3.609375 26.375 3.609375 
L 37.59375 3.609375 
Q 43.21875 3.609375 45.75 4.390625 
Q 48.296875 5.171875 50.640625 7.46875 
Q 53.65625 10.5 56.84375 16.609375 
L 58.796875 16.609375 
L 53.078125 0 
L 2.046875 0 
L 2.046875 1.8125 
L 4.390625 1.8125 
Q 6.734375 1.8125 8.84375 2.9375 
Q 10.40625 3.71875 10.96875 5.28125 
Q 11.53125 6.84375 11.53125 11.671875 
L 11.53125 54.6875 
Q 11.53125 60.984375 10.25 62.453125 
Q 8.5 64.40625 4.390625 64.40625 
L 2.046875 64.40625 
L 2.046875 66.21875 
L 53.078125 66.21875 
L 53.8125 51.703125 
L 51.90625 51.703125 
Q 50.875 56.9375 49.625 58.890625 
Q 48.390625 60.84375 45.953125 61.859375 
Q 44 62.59375 39.0625 62.59375 
z
" id="TimesNewRomanPSMT-45"/>
      <path d="M 20.609375 41.21875 
L 20.609375 11.8125 
Q 20.609375 5.5625 21.96875 3.90625 
Q 23.78125 1.765625 26.8125 1.765625 
L 30.859375 1.765625 
L 30.859375 0 
L 4.15625 0 
L 4.15625 1.765625 
L 6.15625 1.765625 
Q 8.109375 1.765625 9.71875 2.734375 
Q 11.328125 3.71875 11.9375 5.375 
Q 12.546875 7.03125 12.546875 11.8125 
L 12.546875 41.21875 
L 3.859375 41.21875 
L 3.859375 44.734375 
L 12.546875 44.734375 
L 12.546875 47.65625 
Q 12.546875 54.34375 14.6875 58.984375 
Q 16.84375 63.625 21.265625 66.484375 
Q 25.6875 69.34375 31.203125 69.34375 
Q 36.328125 69.34375 40.625 66.015625 
Q 43.453125 63.8125 43.453125 61.078125 
Q 43.453125 59.625 42.1875 58.328125 
Q 40.921875 57.03125 39.453125 57.03125 
Q 38.328125 57.03125 37.078125 57.828125 
Q 35.84375 58.640625 34.03125 61.296875 
Q 32.234375 63.96875 30.71875 64.890625 
Q 29.203125 65.828125 27.34375 65.828125 
Q 25.09375 65.828125 23.53125 64.625 
Q 21.96875 63.421875 21.28125 60.90625 
Q 20.609375 58.40625 20.609375 47.953125 
L 20.609375 44.734375 
L 32.125 44.734375 
L 32.125 41.21875 
z
" id="TimesNewRomanPSMT-66"/>
     </defs>
     <g transform="translate(828.93998 309.526562)scale(0.1 -0.1)">
      <use xlink:href="#TimesNewRomanPSMT-43"/>
      <use x="66.699219" xlink:href="#TimesNewRomanPSMT-61"/>
      <use x="111.083984" xlink:href="#TimesNewRomanPSMT-75"/>
      <use x="161.083984" xlink:href="#TimesNewRomanPSMT-64"/>
      <use x="211.083984" xlink:href="#TimesNewRomanPSMT-61"/>
      <use x="255.46875" xlink:href="#TimesNewRomanPSMT-6c"/>
      <use x="283.251953" xlink:href="#TimesNewRomanPSMT-20"/>
      <use x="308.251953" xlink:href="#TimesNewRomanPSMT-46"/>
      <use x="363.867188" xlink:href="#TimesNewRomanPSMT-69"/>
      <use x="391.650391" xlink:href="#TimesNewRomanPSMT-6e"/>
      <use x="441.650391" xlink:href="#TimesNewRomanPSMT-62"/>
      <use x="491.650391" xlink:href="#TimesNewRomanPSMT-65"/>
      <use x="536.035156" xlink:href="#TimesNewRomanPSMT-61"/>
      <use x="580.419922" xlink:href="#TimesNewRomanPSMT-74"/>
      <use x="608.203125" xlink:href="#TimesNewRomanPSMT-20"/>
      <use x="633.203125" xlink:href="#TimesNewRomanPSMT-45"/>
      <use x="694.287109" xlink:href="#TimesNewRomanPSMT-66"/>
      <use x="727.572266" xlink:href="#TimesNewRomanPSMT-66"/>
      <use x="760.873047" xlink:href="#TimesNewRomanPSMT-6f"/>
      <use x="810.873047" xlink:href="#TimesNewRomanPSMT-72"/>
      <use x="844.173828" xlink:href="#TimesNewRomanPSMT-74"/>
      <use x="871.957031" xlink:href="#TimesNewRomanPSMT-20"/>
      <use x="896.957031" xlink:href="#TimesNewRomanPSMT-28"/>
      <use x="930.257812" xlink:href="#TimesNewRomanPSMT-63"/>
      <use x="974.642578" xlink:href="#TimesNewRomanPSMT-6d"/>
      <use x="1052.425781" xlink:href="#TimesNewRomanPSMT-2f"/>
      <use x="1080.208984" xlink:href="#TimesNewRomanPSMT-73"/>
      <use x="1119.125" xlink:href="#TimesNewRomanPSMT-29"/>
     </g>
    </g>
   </g>
   <g id="matplotlib.axis_6">
    <g id="ytick_17">
     <g id="line2d_40">
      <g>
       <use style="stroke:#000000;stroke-width:0.8;" x="740.995856" xlink:href="#m8c0530908f" y="282.5"/>
      </g>
     </g>
     <g id="text_43">
      <!-- 0 -->
      <g transform="translate(728.995856 285.971875)scale(0.1 -0.1)">
       <use xlink:href="#TimesNewRomanPSMT-30"/>
      </g>
     </g>
    </g>
    <g id="ytick_18">
     <g id="line2d_41">
      <g>
       <use style="stroke:#000000;stroke-width:0.8;" x="740.995856" xlink:href="#m8c0530908f" y="246.26"/>
      </g>
     </g>
     <g id="text_44">
      <!-- 20 -->
      <g transform="translate(723.995856 249.731875)scale(0.1 -0.1)">
       <use xlink:href="#TimesNewRomanPSMT-32"/>
       <use x="50" xlink:href="#TimesNewRomanPSMT-30"/>
      </g>
     </g>
    </g>
    <g id="ytick_19">
     <g id="line2d_42">
      <g>
       <use style="stroke:#000000;stroke-width:0.8;" x="740.995856" xlink:href="#m8c0530908f" y="210.02"/>
      </g>
     </g>
     <g id="text_45">
      <!-- 40 -->
      <g transform="translate(723.995856 213.491875)scale(0.1 -0.1)">
       <use xlink:href="#TimesNewRomanPSMT-34"/>
       <use x="50" xlink:href="#TimesNewRomanPSMT-30"/>
      </g>
     </g>
    </g>
    <g id="ytick_20">
     <g id="line2d_43">
      <g>
       <use style="stroke:#000000;stroke-width:0.8;" x="740.995856" xlink:href="#m8c0530908f" y="173.78"/>
      </g>
     </g>
     <g id="text_46">
      <!-- 60 -->
      <g transform="translate(723.995856 177.251875)scale(0.1 -0.1)">
       <use xlink:href="#TimesNewRomanPSMT-36"/>
       <use x="50" xlink:href="#TimesNewRomanPSMT-30"/>
      </g>
     </g>
    </g>
    <g id="ytick_21">
     <g id="line2d_44">
      <g>
       <use style="stroke:#000000;stroke-width:0.8;" x="740.995856" xlink:href="#m8c0530908f" y="137.54"/>
      </g>
     </g>
     <g id="text_47">
      <!-- 80 -->
      <g transform="translate(723.995856 141.011875)scale(0.1 -0.1)">
       <use xlink:href="#TimesNewRomanPSMT-38"/>
       <use x="50" xlink:href="#TimesNewRomanPSMT-30"/>
      </g>
     </g>
    </g>
    <g id="ytick_22">
     <g id="line2d_45">
      <g>
       <use style="stroke:#000000;stroke-width:0.8;" x="740.995856" xlink:href="#m8c0530908f" y="101.3"/>
      </g>
     </g>
     <g id="text_48">
      <!-- 100 -->
      <g transform="translate(718.995856 104.771875)scale(0.1 -0.1)">
       <use xlink:href="#TimesNewRomanPSMT-31"/>
       <use x="50" xlink:href="#TimesNewRomanPSMT-30"/>
       <use x="100" xlink:href="#TimesNewRomanPSMT-30"/>
      </g>
     </g>
    </g>
    <g id="ytick_23">
     <g id="line2d_46">
      <g>
       <use style="stroke:#000000;stroke-width:0.8;" x="740.995856" xlink:href="#m8c0530908f" y="65.06"/>
      </g>
     </g>
     <g id="text_49">
      <!-- 120 -->
      <g transform="translate(718.995856 68.531875)scale(0.1 -0.1)">
       <use xlink:href="#TimesNewRomanPSMT-31"/>
       <use x="50" xlink:href="#TimesNewRomanPSMT-32"/>
       <use x="100" xlink:href="#TimesNewRomanPSMT-30"/>
      </g>
     </g>
    </g>
    <g id="ytick_24">
     <g id="line2d_47">
      <g>
       <use style="stroke:#000000;stroke-width:0.8;" x="740.995856" xlink:href="#m8c0530908f" y="28.82"/>
      </g>
     </g>
     <g id="text_50">
      <!-- 140 -->
      <g transform="translate(718.995856 32.291875)scale(0.1 -0.1)">
       <use xlink:href="#TimesNewRomanPSMT-31"/>
       <use x="50" xlink:href="#TimesNewRomanPSMT-34"/>
       <use x="100" xlink:href="#TimesNewRomanPSMT-30"/>
      </g>
     </g>
    </g>
    <g id="text_51">
     <!-- Speed (cm/s) -->
     <g transform="translate(712.856793 172.842969)rotate(-90)scale(0.1 -0.1)">
      <use xlink:href="#TimesNewRomanPSMT-53"/>
      <use x="55.615234" xlink:href="#TimesNewRomanPSMT-70"/>
      <use x="105.615234" xlink:href="#TimesNewRomanPSMT-65"/>
      <use x="150" xlink:href="#TimesNewRomanPSMT-65"/>
      <use x="194.384766" xlink:href="#TimesNewRomanPSMT-64"/>
      <use x="244.384766" xlink:href="#TimesNewRomanPSMT-20"/>
      <use x="269.384766" xlink:href="#TimesNewRomanPSMT-28"/>
      <use x="302.685547" xlink:href="#TimesNewRomanPSMT-63"/>
      <use x="347.070312" xlink:href="#TimesNewRomanPSMT-6d"/>
      <use x="424.853516" xlink:href="#TimesNewRomanPSMT-2f"/>
      <use x="452.636719" xlink:href="#TimesNewRomanPSMT-73"/>
      <use x="491.552734" xlink:href="#TimesNewRomanPSMT-29"/>
     </g>
    </g>
   </g>
   <g id="line2d_48">
    <path clip-path="url(#p77d10b9952)" d="M 754.303652 282.3188 
L 763.357706 279.575176 
L 765.754981 276.831552 
L 767.331575 274.087927 
L 768.570789 271.344303 
L 769.628718 268.600679 
L 770.575804 265.857055 
L 771.449943 263.11343 
L 772.273937 260.369806 
L 773.062624 257.626182 
L 773.826256 254.882558 
L 774.572254 252.138933 
L 775.306204 249.395309 
L 776.032456 246.651685 
L 776.754496 243.908061 
L 777.475192 241.164436 
L 778.196964 238.420812 
L 778.921898 235.677188 
L 779.65183 232.933564 
L 780.388407 230.189939 
L 781.133137 227.446315 
L 781.887417 224.702691 
L 782.652568 221.959067 
L 783.429855 219.215442 
L 784.2205 216.471818 
L 785.025706 213.728194 
L 785.846662 210.98457 
L 786.684558 208.240945 
L 787.540592 205.497321 
L 788.415983 202.753697 
L 789.311975 200.010073 
L 790.229847 197.266448 
L 791.170922 194.522824 
L 792.136569 191.7792 
L 793.128219 189.035576 
L 794.147364 186.291952 
L 795.195571 183.548327 
L 796.274488 180.804703 
L 797.385853 178.061079 
L 798.531505 175.317455 
L 799.713391 172.57383 
L 800.933579 169.830206 
L 802.194271 167.086582 
L 803.497814 164.342958 
L 804.846716 161.599333 
L 806.243659 158.855709 
L 807.69152 156.112085 
L 809.19339 153.368461 
L 810.752593 150.624836 
L 812.37271 147.881212 
L 814.057611 145.137588 
L 815.81148 142.393964 
L 817.638848 139.650339 
L 819.544639 136.906715 
L 821.534205 134.163091 
L 823.613378 131.419467 
L 825.78853 128.675842 
L 828.066629 125.932218 
L 830.455321 123.188594 
L 832.963005 120.44497 
L 835.598936 117.701345 
L 838.373336 114.957721 
L 841.29752 112.214097 
L 844.384051 109.470473 
L 847.646913 106.726848 
L 851.101722 103.983224 
L 854.765968 101.2396 
L 858.659302 98.495976 
L 862.803889 95.752352 
L 867.224808 93.008727 
L 871.950561 90.265103 
L 877.013664 87.521479 
L 882.451383 84.777855 
L 888.30663 82.03423 
L 894.62907 79.290606 
L 901.476498 76.546982 
L 908.916568 73.803358 
L 917.028982 71.059733 
L 925.908281 68.316109 
L 935.667457 65.572485 
L 946.442663 62.828861 
L 958.399442 60.085236 
L 971.741079 57.341612 
L 986.71995 54.597988 
L 1003.653233 51.854364 
L 1022.945038 49.110739 
L 1045.11824 46.367115 
L 1070.861369 43.623491 
L 1101.099555 40.879867 
L 1137.105234 38.136242 
L 1180.677266 35.392618 
L 1234.443359 32.648994 
L 1302.397592 29.90537 
L 1390.917965 27.161745 
L 1393.182813 27.109935 
" style="fill:none;stroke:#1f77b4;stroke-linecap:square;stroke-width:3;"/>
   </g>
   <g id="patch_13">
    <path d="M 740.995856 282.5 
L 740.995856 10.7 
" style="fill:none;stroke:#000000;stroke-linecap:square;stroke-linejoin:miter;stroke-width:0.8;"/>
   </g>
   <g id="patch_14">
    <path d="M 1032.126291 282.5 
L 1032.126291 10.7 
" style="fill:none;stroke:#000000;stroke-linecap:square;stroke-linejoin:miter;stroke-width:0.8;"/>
   </g>
   <g id="patch_15">
    <path d="M 740.995856 282.5 
L 1032.126291 282.5 
" style="fill:none;stroke:#000000;stroke-linecap:square;stroke-linejoin:miter;stroke-width:0.8;"/>
   </g>
   <g id="patch_16">
    <path d="M 740.995856 10.7 
L 1032.126291 10.7 
" style="fill:none;stroke:#000000;stroke-linecap:square;stroke-linejoin:miter;stroke-width:0.8;"/>
   </g>
  </g>
  <g id="patch_17">
   <path d="M 1090.352378 282.5 
L 1381.482813 282.5 
L 1381.482813 10.7 
L 1090.352378 10.7 
z
" style="fill:#ffffff;"/>
  </g>
  <g id="pane3d_1">
   <g id="patch_18">
    <path d="M 1128.946216 222.441779 
L 1212.269269 155.802577 
L 1210.882029 28.466001 
L 1122.913169 88.339953 
" style="fill:#f2f2f2;opacity:0.5;stroke:#f2f2f2;stroke-linejoin:miter;"/>
   </g>
  </g>
  <g id="pane3d_2">
   <g id="patch_19">
    <path d="M 1212.269269 155.802577 
L 1347.244782 193.058191 
L 1352.891996 61.881832 
L 1210.882029 28.466001 
" style="fill:#e6e6e6;opacity:0.5;stroke:#e6e6e6;stroke-linejoin:miter;"/>
   </g>
  </g>
  <g id="pane3d_3">
   <g id="patch_20">
    <path d="M 1128.946216 222.441779 
L 1270.958694 265.832012 
L 1347.244782 193.058191 
L 1212.269269 155.802577 
" style="fill:#ececec;opacity:0.5;stroke:#ececec;stroke-linejoin:miter;"/>
   </g>
  </g>
  <g id="axis3d_1">
   <g id="line2d_49">
    <path d="M 1128.946216 222.441779 
L 1270.958694 265.832012 
" style="fill:none;stroke:#000000;stroke-linecap:square;stroke-width:0.8;"/>
   </g>
   <g id="text_52">
    <!-- Caudal Finbeat Period (s) -->
    <g transform="translate(1134.210036 265.927264)rotate(-343.010088)scale(0.1 -0.1)">
     <use xlink:href="#TimesNewRomanPSMT-43"/>
     <use x="66.699219" xlink:href="#TimesNewRomanPSMT-61"/>
     <use x="111.083984" xlink:href="#TimesNewRomanPSMT-75"/>
     <use x="161.083984" xlink:href="#TimesNewRomanPSMT-64"/>
     <use x="211.083984" xlink:href="#TimesNewRomanPSMT-61"/>
     <use x="255.46875" xlink:href="#TimesNewRomanPSMT-6c"/>
     <use x="283.251953" xlink:href="#TimesNewRomanPSMT-20"/>
     <use x="308.251953" xlink:href="#TimesNewRomanPSMT-46"/>
     <use x="363.867188" xlink:href="#TimesNewRomanPSMT-69"/>
     <use x="391.650391" xlink:href="#TimesNewRomanPSMT-6e"/>
     <use x="441.650391" xlink:href="#TimesNewRomanPSMT-62"/>
     <use x="491.650391" xlink:href="#TimesNewRomanPSMT-65"/>
     <use x="536.035156" xlink:href="#TimesNewRomanPSMT-61"/>
     <use x="580.419922" xlink:href="#TimesNewRomanPSMT-74"/>
     <use x="608.203125" xlink:href="#TimesNewRomanPSMT-20"/>
     <use x="633.203125" xlink:href="#TimesNewRomanPSMT-50"/>
     <use x="688.818359" xlink:href="#TimesNewRomanPSMT-65"/>
     <use x="733.203125" xlink:href="#TimesNewRomanPSMT-72"/>
     <use x="766.503906" xlink:href="#TimesNewRomanPSMT-69"/>
     <use x="794.287109" xlink:href="#TimesNewRomanPSMT-6f"/>
     <use x="844.287109" xlink:href="#TimesNewRomanPSMT-64"/>
     <use x="894.287109" xlink:href="#TimesNewRomanPSMT-20"/>
     <use x="919.287109" xlink:href="#TimesNewRomanPSMT-28"/>
     <use x="952.587891" xlink:href="#TimesNewRomanPSMT-73"/>
     <use x="991.503906" xlink:href="#TimesNewRomanPSMT-29"/>
    </g>
   </g>
   <g id="Line3DCollection_1">
    <path d="M 1135.183215 224.34742 
L 1218.216251 157.444049 
L 1217.12593 29.93523 
" style="fill:none;stroke:#b0b0b0;stroke-width:0.8;"/>
    <path d="M 1159.657458 231.825236 
L 1241.535513 163.880575 
L 1241.621029 35.699079 
" style="fill:none;stroke:#b0b0b0;stroke-width:0.8;"/>
    <path d="M 1184.528617 239.424324 
L 1265.205334 170.413862 
L 1266.503213 41.554013 
" style="fill:none;stroke:#b0b0b0;stroke-width:0.8;"/>
    <path d="M 1209.806426 247.14766 
L 1289.233679 177.046107 
L 1291.781733 47.502206 
" style="fill:none;stroke:#b0b0b0;stroke-width:0.8;"/>
    <path d="M 1235.500941 254.998315 
L 1313.628756 183.779577 
L 1317.466133 53.545905 
" style="fill:none;stroke:#b0b0b0;stroke-width:0.8;"/>
    <path d="M 1261.622553 262.979464 
L 1338.399026 190.616607 
L 1343.566267 59.68743 
" style="fill:none;stroke:#b0b0b0;stroke-width:0.8;"/>
   </g>
   <g id="xtick_22">
    <g id="line2d_50">
     <path d="M 1135.898547 223.771046 
L 1133.749885 225.502317 
" style="fill:none;stroke:#000000;stroke-linecap:square;stroke-width:0.8;"/>
    </g>
    <g id="text_53">
     <!-- 0.0 -->
     <g transform="translate(1122.325526 246.968161)scale(0.1 -0.1)">
      <use xlink:href="#TimesNewRomanPSMT-30"/>
      <use x="50" xlink:href="#TimesNewRomanPSMT-2e"/>
      <use x="75" xlink:href="#TimesNewRomanPSMT-30"/>
     </g>
    </g>
   </g>
   <g id="xtick_23">
    <g id="line2d_51">
     <path d="M 1160.363244 231.239555 
L 1158.243233 232.998798 
" style="fill:none;stroke:#000000;stroke-linecap:square;stroke-width:0.8;"/>
    </g>
    <g id="text_54">
     <!-- 0.2 -->
     <g transform="translate(1146.79664 254.587651)scale(0.1 -0.1)">
      <use xlink:href="#TimesNewRomanPSMT-30"/>
      <use x="50" xlink:href="#TimesNewRomanPSMT-2e"/>
      <use x="75" xlink:href="#TimesNewRomanPSMT-32"/>
     </g>
    </g>
   </g>
   <g id="xtick_24">
    <g id="line2d_52">
     <path d="M 1185.224453 238.829109 
L 1183.134309 240.617008 
" style="fill:none;stroke:#000000;stroke-linecap:square;stroke-width:0.8;"/>
    </g>
    <g id="text_55">
     <!-- 0.4 -->
     <g transform="translate(1171.665438 262.330967)scale(0.1 -0.1)">
      <use xlink:href="#TimesNewRomanPSMT-30"/>
      <use x="50" xlink:href="#TimesNewRomanPSMT-2e"/>
      <use x="75" xlink:href="#TimesNewRomanPSMT-34"/>
     </g>
    </g>
   </g>
   <g id="xtick_25">
    <g id="line2d_53">
     <path d="M 1210.491891 246.542676 
L 1208.432878 248.359936 
" style="fill:none;stroke:#000000;stroke-linecap:square;stroke-width:0.8;"/>
    </g>
    <g id="text_56">
     <!-- 0.6 -->
     <g transform="translate(1196.941695 270.201151)scale(0.1 -0.1)">
      <use xlink:href="#TimesNewRomanPSMT-30"/>
      <use x="50" xlink:href="#TimesNewRomanPSMT-2e"/>
      <use x="75" xlink:href="#TimesNewRomanPSMT-36"/>
     </g>
    </g>
   </g>
   <g id="xtick_26">
    <g id="line2d_54">
     <path d="M 1236.175598 254.38332 
L 1234.149031 256.230671 
" style="fill:none;stroke:#000000;stroke-linecap:square;stroke-width:0.8;"/>
    </g>
    <g id="text_57">
     <!-- 0.8 -->
     <g transform="translate(1222.635506 278.201349)scale(0.1 -0.1)">
      <use xlink:href="#TimesNewRomanPSMT-30"/>
      <use x="50" xlink:href="#TimesNewRomanPSMT-2e"/>
      <use x="75" xlink:href="#TimesNewRomanPSMT-38"/>
     </g>
    </g>
   </g>
   <g id="xtick_27">
    <g id="line2d_55">
     <path d="M 1262.285945 262.354208 
L 1260.293193 264.232404 
" style="fill:none;stroke:#000000;stroke-linecap:square;stroke-width:0.8;"/>
    </g>
    <g id="text_58">
     <!-- 1.0 -->
     <g transform="translate(1248.757306 286.334808)scale(0.1 -0.1)">
      <use xlink:href="#TimesNewRomanPSMT-31"/>
      <use x="50" xlink:href="#TimesNewRomanPSMT-2e"/>
      <use x="75" xlink:href="#TimesNewRomanPSMT-30"/>
     </g>
    </g>
   </g>
  </g>
  <g id="axis3d_2">
   <g id="line2d_56">
    <path d="M 1347.244782 193.058191 
L 1270.958694 265.832012 
" style="fill:none;stroke:#000000;stroke-linecap:square;stroke-width:0.8;"/>
   </g>
   <g id="text_59">
    <!-- Caudal Finbeat Amplitude (cm) -->
    <g transform="translate(1290.143634 302.648856)rotate(-43.650201)scale(0.1 -0.1)">
     <use xlink:href="#TimesNewRomanPSMT-43"/>
     <use x="66.699219" xlink:href="#TimesNewRomanPSMT-61"/>
     <use x="111.083984" xlink:href="#TimesNewRomanPSMT-75"/>
     <use x="161.083984" xlink:href="#TimesNewRomanPSMT-64"/>
     <use x="211.083984" xlink:href="#TimesNewRomanPSMT-61"/>
     <use x="255.46875" xlink:href="#TimesNewRomanPSMT-6c"/>
     <use x="283.251953" xlink:href="#TimesNewRomanPSMT-20"/>
     <use x="308.251953" xlink:href="#TimesNewRomanPSMT-46"/>
     <use x="363.867188" xlink:href="#TimesNewRomanPSMT-69"/>
     <use x="391.650391" xlink:href="#TimesNewRomanPSMT-6e"/>
     <use x="441.650391" xlink:href="#TimesNewRomanPSMT-62"/>
     <use x="491.650391" xlink:href="#TimesNewRomanPSMT-65"/>
     <use x="536.035156" xlink:href="#TimesNewRomanPSMT-61"/>
     <use x="580.419922" xlink:href="#TimesNewRomanPSMT-74"/>
     <use x="608.203125" xlink:href="#TimesNewRomanPSMT-20"/>
     <use x="633.125" xlink:href="#TimesNewRomanPSMT-41"/>
     <use x="705.341797" xlink:href="#TimesNewRomanPSMT-6d"/>
     <use x="783.125" xlink:href="#TimesNewRomanPSMT-70"/>
     <use x="833.125" xlink:href="#TimesNewRomanPSMT-6c"/>
     <use x="860.908203" xlink:href="#TimesNewRomanPSMT-69"/>
     <use x="888.691406" xlink:href="#TimesNewRomanPSMT-74"/>
     <use x="916.474609" xlink:href="#TimesNewRomanPSMT-75"/>
     <use x="966.474609" xlink:href="#TimesNewRomanPSMT-64"/>
     <use x="1016.474609" xlink:href="#TimesNewRomanPSMT-65"/>
     <use x="1060.859375" xlink:href="#TimesNewRomanPSMT-20"/>
     <use x="1085.859375" xlink:href="#TimesNewRomanPSMT-28"/>
     <use x="1119.160156" xlink:href="#TimesNewRomanPSMT-63"/>
     <use x="1163.544922" xlink:href="#TimesNewRomanPSMT-6d"/>
     <use x="1241.328125" xlink:href="#TimesNewRomanPSMT-29"/>
    </g>
   </g>
   <g id="Line3DCollection_2">
    <path d="M 1131.453444 82.527214 
L 1137.007023 215.994994 
L 1278.361121 258.770398 
" style="fill:none;stroke:#b0b0b0;stroke-width:0.8;"/>
    <path d="M 1145.79825 72.763757 
L 1150.560208 205.155576 
L 1290.796488 246.907564 
" style="fill:none;stroke:#b0b0b0;stroke-width:0.8;"/>
    <path d="M 1159.791865 63.239329 
L 1163.798187 194.56825 
L 1302.929546 235.333121 
" style="fill:none;stroke:#b0b0b0;stroke-width:0.8;"/>
    <path d="M 1173.44703 53.945259 
L 1176.73183 184.224322 
L 1314.771185 224.03668 
" style="fill:none;stroke:#b0b0b0;stroke-width:0.8;"/>
    <path d="M 1186.775878 44.87329 
L 1189.371512 174.115496 
L 1326.33178 213.008343 
" style="fill:none;stroke:#b0b0b0;stroke-width:0.8;"/>
    <path d="M 1199.789967 36.015554 
L 1201.727143 164.233844 
L 1337.62122 202.238678 
" style="fill:none;stroke:#b0b0b0;stroke-width:0.8;"/>
   </g>
   <g id="xtick_28">
    <g id="line2d_57">
     <path d="M 1277.178223 258.412439 
L 1280.729553 259.487113 
" style="fill:none;stroke:#000000;stroke-linecap:square;stroke-width:0.8;"/>
    </g>
    <g id="text_60">
     <!-- 1.0 -->
     <g transform="translate(1283.546315 279.432799)scale(0.1 -0.1)">
      <use xlink:href="#TimesNewRomanPSMT-31"/>
      <use x="50" xlink:href="#TimesNewRomanPSMT-2e"/>
      <use x="75" xlink:href="#TimesNewRomanPSMT-30"/>
     </g>
    </g>
   </g>
   <g id="xtick_29">
    <g id="line2d_58">
     <path d="M 1289.623581 246.558359 
L 1293.144887 247.606743 
" style="fill:none;stroke:#000000;stroke-linecap:square;stroke-width:0.8;"/>
    </g>
    <g id="text_61">
     <!-- 1.5 -->
     <g transform="translate(1295.834137 267.407851)scale(0.1 -0.1)">
      <use xlink:href="#TimesNewRomanPSMT-31"/>
      <use x="50" xlink:href="#TimesNewRomanPSMT-2e"/>
      <use x="75" xlink:href="#TimesNewRomanPSMT-35"/>
     </g>
    </g>
   </g>
   <g id="xtick_30">
    <g id="line2d_59">
     <path d="M 1301.766495 234.992352 
L 1305.258179 236.0154 
" style="fill:none;stroke:#000000;stroke-linecap:square;stroke-width:0.8;"/>
    </g>
    <g id="text_62">
     <!-- 2.0 -->
     <g transform="translate(1307.823399 255.675076)scale(0.1 -0.1)">
      <use xlink:href="#TimesNewRomanPSMT-32"/>
      <use x="50" xlink:href="#TimesNewRomanPSMT-2e"/>
      <use x="75" xlink:href="#TimesNewRomanPSMT-30"/>
     </g>
    </g>
   </g>
   <g id="xtick_31">
    <g id="line2d_60">
     <path d="M 1313.617858 223.704045 
L 1317.080319 224.702664 
" style="fill:none;stroke:#000000;stroke-linecap:square;stroke-width:0.8;"/>
    </g>
    <g id="text_63">
     <!-- 2.5 -->
     <g transform="translate(1319.524853 244.223951)scale(0.1 -0.1)">
      <use xlink:href="#TimesNewRomanPSMT-32"/>
      <use x="50" xlink:href="#TimesNewRomanPSMT-2e"/>
      <use x="75" xlink:href="#TimesNewRomanPSMT-35"/>
     </g>
    </g>
   </g>
   <g id="xtick_32">
    <g id="line2d_61">
     <path d="M 1325.188046 212.683555 
L 1328.621679 213.65861 
" style="fill:none;stroke:#000000;stroke-linecap:square;stroke-width:0.8;"/>
    </g>
    <g id="text_64">
     <!-- 3.0 -->
     <g transform="translate(1330.948739 233.044457)scale(0.1 -0.1)">
      <use xlink:href="#TimesNewRomanPSMT-33"/>
      <use x="50" xlink:href="#TimesNewRomanPSMT-2e"/>
      <use x="75" xlink:href="#TimesNewRomanPSMT-30"/>
     </g>
    </g>
   </g>
   <g id="xtick_33">
    <g id="line2d_62">
     <path d="M 1336.486948 201.921462 
L 1339.892144 202.873777 
" style="fill:none;stroke:#000000;stroke-linecap:square;stroke-width:0.8;"/>
    </g>
    <g id="text_65">
     <!-- 3.5 -->
     <g transform="translate(1342.104817 222.12704)scale(0.1 -0.1)">
      <use xlink:href="#TimesNewRomanPSMT-33"/>
      <use x="50" xlink:href="#TimesNewRomanPSMT-2e"/>
      <use x="75" xlink:href="#TimesNewRomanPSMT-35"/>
     </g>
    </g>
   </g>
  </g>
  <g id="axis3d_3">
   <g id="line2d_63">
    <path d="M 1347.244782 193.058191 
L 1352.891996 61.881832 
" style="fill:none;stroke:#000000;stroke-linecap:square;stroke-width:0.8;"/>
   </g>
   <g id="text_66">
    <!-- Speed (cm/s) -->
    <g transform="translate(1388.020856 150.875227)rotate(-87.534908)scale(0.1 -0.1)">
     <use xlink:href="#TimesNewRomanPSMT-53"/>
     <use x="55.615234" xlink:href="#TimesNewRomanPSMT-70"/>
     <use x="105.615234" xlink:href="#TimesNewRomanPSMT-65"/>
     <use x="150" xlink:href="#TimesNewRomanPSMT-65"/>
     <use x="194.384766" xlink:href="#TimesNewRomanPSMT-64"/>
     <use x="244.384766" xlink:href="#TimesNewRomanPSMT-20"/>
     <use x="269.384766" xlink:href="#TimesNewRomanPSMT-28"/>
     <use x="302.685547" xlink:href="#TimesNewRomanPSMT-63"/>
     <use x="347.070312" xlink:href="#TimesNewRomanPSMT-6d"/>
     <use x="424.853516" xlink:href="#TimesNewRomanPSMT-2f"/>
     <use x="452.636719" xlink:href="#TimesNewRomanPSMT-73"/>
     <use x="491.552734" xlink:href="#TimesNewRomanPSMT-29"/>
    </g>
   </g>
   <g id="Line3DCollection_3">
    <path d="M 1348.041708 174.546787 
L 1212.073137 137.799391 
L 1128.096099 203.545499 
" style="fill:none;stroke:#b0b0b0;stroke-width:0.8;"/>
    <path d="M 1348.74366 158.241497 
L 1211.90048 121.950925 
L 1127.346955 186.8936 
" style="fill:none;stroke:#b0b0b0;stroke-width:0.8;"/>
    <path d="M 1349.45478 141.723243 
L 1211.725662 105.904215 
L 1126.587698 170.016944 
" style="fill:none;stroke:#b0b0b0;stroke-width:0.8;"/>
    <path d="M 1350.175249 124.987825 
L 1211.548645 89.655518 
L 1125.818125 152.910952 
" style="fill:none;stroke:#b0b0b0;stroke-width:0.8;"/>
    <path d="M 1350.905252 108.030933 
L 1211.369384 73.200996 
L 1125.038021 135.570916 
" style="fill:none;stroke:#b0b0b0;stroke-width:0.8;"/>
    <path d="M 1351.644981 90.848141 
L 1211.187839 56.536714 
L 1124.247171 117.991999 
" style="fill:none;stroke:#b0b0b0;stroke-width:0.8;"/>
    <path d="M 1352.39463 73.434904 
L 1211.003964 39.658634 
L 1123.445351 100.169232 
" style="fill:none;stroke:#b0b0b0;stroke-width:0.8;"/>
   </g>
   <g id="xtick_34">
    <g id="line2d_64">
     <path d="M 1346.906945 174.240101 
L 1350.31361 175.1608 
" style="fill:none;stroke:#000000;stroke-linecap:square;stroke-width:0.8;"/>
    </g>
    <g id="text_67">
     <!-- 20 -->
     <g transform="translate(1359.703477 179.293767)scale(0.1 -0.1)">
      <use xlink:href="#TimesNewRomanPSMT-32"/>
      <use x="50" xlink:href="#TimesNewRomanPSMT-30"/>
     </g>
    </g>
   </g>
   <g id="xtick_35">
    <g id="line2d_65">
     <path d="M 1347.601291 157.938542 
L 1351.030806 158.848044 
" style="fill:none;stroke:#000000;stroke-linecap:square;stroke-width:0.8;"/>
    </g>
    <g id="text_68">
     <!-- 40 -->
     <g transform="translate(1360.511497 163.015233)scale(0.1 -0.1)">
      <use xlink:href="#TimesNewRomanPSMT-34"/>
      <use x="50" xlink:href="#TimesNewRomanPSMT-30"/>
     </g>
    </g>
   </g>
   <g id="xtick_36">
    <g id="line2d_66">
     <path d="M 1348.304702 141.424143 
L 1351.757375 142.322075 
" style="fill:none;stroke:#000000;stroke-linecap:square;stroke-width:0.8;"/>
    </g>
    <g id="text_69">
     <!-- 60 -->
     <g transform="translate(1361.330044 146.524623)scale(0.1 -0.1)">
      <use xlink:href="#TimesNewRomanPSMT-36"/>
      <use x="50" xlink:href="#TimesNewRomanPSMT-30"/>
     </g>
    </g>
   </g>
   <g id="xtick_37">
    <g id="line2d_67">
     <path d="M 1349.017357 124.692709 
L 1352.493503 125.578688 
" style="fill:none;stroke:#000000;stroke-linecap:square;stroke-width:0.8;"/>
    </g>
    <g id="text_70">
     <!-- 80 -->
     <g transform="translate(1362.159325 129.817764)scale(0.1 -0.1)">
      <use xlink:href="#TimesNewRomanPSMT-38"/>
      <use x="50" xlink:href="#TimesNewRomanPSMT-30"/>
     </g>
    </g>
   </g>
   <g id="xtick_38">
    <g id="line2d_68">
     <path d="M 1349.739441 107.739931 
L 1353.23938 108.613561 
" style="fill:none;stroke:#000000;stroke-linecap:square;stroke-width:0.8;"/>
    </g>
    <g id="text_71">
     <!-- 100 -->
     <g transform="translate(1360.499552 112.890376)scale(0.1 -0.1)">
      <use xlink:href="#TimesNewRomanPSMT-31"/>
      <use x="50" xlink:href="#TimesNewRomanPSMT-30"/>
      <use x="100" xlink:href="#TimesNewRomanPSMT-30"/>
     </g>
    </g>
   </g>
   <g id="xtick_39">
    <g id="line2d_69">
     <path d="M 1350.47114 90.56139 
L 1353.995201 91.422262 
" style="fill:none;stroke:#000000;stroke-linecap:square;stroke-width:0.8;"/>
    </g>
    <g id="text_72">
     <!-- 120 -->
     <g transform="translate(1361.350944 95.738062)scale(0.1 -0.1)">
      <use xlink:href="#TimesNewRomanPSMT-31"/>
      <use x="50" xlink:href="#TimesNewRomanPSMT-32"/>
      <use x="100" xlink:href="#TimesNewRomanPSMT-30"/>
     </g>
    </g>
   </g>
   <g id="xtick_40">
    <g id="line2d_70">
     <path d="M 1351.212649 73.152545 
L 1354.761166 74.000236 
" style="fill:none;stroke:#000000;stroke-linecap:square;stroke-width:0.8;"/>
    </g>
    <g id="text_73">
     <!-- 140 -->
     <g transform="translate(1362.213725 78.356309)scale(0.1 -0.1)">
      <use xlink:href="#TimesNewRomanPSMT-31"/>
      <use x="50" xlink:href="#TimesNewRomanPSMT-34"/>
      <use x="100" xlink:href="#TimesNewRomanPSMT-30"/>
     </g>
    </g>
   </g>
  </g>
  <g id="axes_4">
   <g id="line2d_71">
    <path clip-path="url(#p112a620935)" d="M 1266.809551 255.393306 
L 1280.744556 239.455902 
L 1283.070899 234.448875 
L 1283.961242 230.799021 
L 1284.250558 227.718826 
L 1284.208174 224.95386 
L 1283.955472 222.389281 
L 1283.5576 219.963359 
L 1283.053589 217.639057 
L 1282.468673 215.392397 
L 1281.820109 213.20696 
L 1281.120219 211.071003 
L 1280.37811 208.97584 
L 1279.600702 206.914861 
L 1278.793379 204.882916 
L 1277.960413 202.875918 
L 1277.105249 200.890564 
L 1276.230712 198.924147 
L 1275.33914 196.974419 
L 1274.432499 195.039496 
L 1273.512454 193.117776 
L 1272.580429 191.20789 
L 1271.637654 189.308656 
L 1270.685198 187.419048 
L 1269.723996 185.538164 
L 1268.754873 183.665214 
L 1267.778563 181.799493 
L 1266.795718 179.940375 
L 1265.806925 178.0873 
L 1264.812712 176.239761 
L 1263.813559 174.397302 
L 1262.809903 172.559507 
L 1261.802144 170.725996 
L 1260.79065 168.896421 
L 1259.775762 167.070463 
L 1258.757796 165.247825 
L 1257.737046 163.428231 
L 1256.713789 161.611427 
L 1255.688285 159.797173 
L 1254.66078 157.985242 
L 1253.631508 156.175424 
L 1252.600693 154.367517 
L 1251.568549 152.56133 
L 1250.535282 150.75668 
L 1249.501092 148.953392 
L 1248.466175 147.151297 
L 1247.430721 145.350233 
L 1246.394916 143.550041 
L 1245.358947 141.750566 
L 1244.322997 139.951656 
L 1243.28725 138.153161 
L 1242.251888 136.354933 
L 1241.217099 134.556825 
L 1240.183068 132.758689 
L 1239.149989 130.960377 
L 1238.118055 129.161738 
L 1237.087467 127.36262 
L 1236.058433 125.562869 
L 1235.031167 123.762324 
L 1234.005894 121.960821 
L 1232.982847 120.158191 
L 1231.962272 118.354256 
L 1230.944429 116.54883 
L 1229.929593 114.741719 
L 1228.918056 112.932716 
L 1227.910133 111.121602 
L 1226.906158 109.308145 
L 1225.906495 107.492093 
L 1224.911534 105.673178 
L 1223.921702 103.851106 
L 1222.937465 102.025562 
L 1221.959332 100.196196 
L 1220.987866 98.362629 
L 1220.023689 96.524437 
L 1219.067494 94.681153 
L 1218.120056 92.832254 
L 1217.182245 90.977153 
L 1216.255049 89.115183 
L 1215.33959 87.24559 
L 1214.437154 85.367506 
L 1213.549227 83.47993 
L 1212.677541 81.581695 
L 1211.824128 79.671433 
L 1210.991397 77.747515 
L 1210.18224 75.807991 
L 1209.400165 73.850487 
L 1208.649494 71.872081 
L 1207.935633 69.86911 
L 1207.265471 67.836899 
L 1206.647988 65.76935 
L 1206.095197 63.65829 
L 1205.623695 61.492412 
L 1205.257351 59.255429 
L 1205.032316 56.922636 
L 1205.007256 54.453873 
L 1205.287182 51.777139 
L 1206.090631 48.742329 
L 1208.013245 44.939594 
L 1214.414456 38.052534 
" style="fill:none;stroke:#1f77b4;stroke-linecap:square;stroke-width:3;"/>
   </g>
  </g>
 </g>
 <defs>
  <clipPath id="p24c68c4f05">
   <rect height="271.8" width="291.130435" x="42.282813" y="10.7"/>
  </clipPath>
  <clipPath id="p15fe51ab3c">
   <rect height="271.8" width="291.130435" x="391.639334" y="10.7"/>
  </clipPath>
  <clipPath id="p77d10b9952">
   <rect height="271.8" width="291.130435" x="740.995856" y="10.7"/>
  </clipPath>
  <clipPath id="p112a620935">
   <rect height="271.8" width="291.130435" x="1090.352378" y="10.7"/>
  </clipPath>
 </defs>
</svg>
