<?xml version="1.0" encoding="UTF-8" standalone="no"?>
<!-- Created with matplotlib (http://matplotlib.org/) -->

<svg
   xmlns:dc="http://purl.org/dc/elements/1.1/"
   xmlns:cc="http://creativecommons.org/ns#"
   xmlns:rdf="http://www.w3.org/1999/02/22-rdf-syntax-ns#"
   xmlns:svg="http://www.w3.org/2000/svg"
   xmlns="http://www.w3.org/2000/svg"
   xmlns:xlink="http://www.w3.org/1999/xlink"
   xmlns:sodipodi="http://sodipodi.sourceforge.net/DTD/sodipodi-0.dtd"
   xmlns:inkscape="http://www.inkscape.org/namespaces/inkscape"
   height="278pt"
   version="1.1"
   viewBox="0 0 639 278"
   width="639pt"
   id="svg2"
   inkscape:version="0.91 r13725"
   sodipodi:docname="Fig1_EffortSpeed.svg"
   inkscape:export-filename="C:\Users\Kara\PycharmProjects\FishTrackProcessing\FigsForMS\Fig1_EffortSpeed.png"
   inkscape:export-xdpi="200"
   inkscape:export-ydpi="200">
  <metadata
     id="metadata876">
    <rdf:RDF>
      <cc:Work
         rdf:about="">
        <dc:format>image/svg+xml</dc:format>
        <dc:type
           rdf:resource="http://purl.org/dc/dcmitype/StillImage" />
      </cc:Work>
    </rdf:RDF>
  </metadata>
  <sodipodi:namedview
     pagecolor="#ffffff"
     bordercolor="#666666"
     borderopacity="1"
     objecttolerance="10"
     gridtolerance="10"
     guidetolerance="10"
     inkscape:pageopacity="0"
     inkscape:pageshadow="2"
     inkscape:window-width="1920"
     inkscape:window-height="1017"
     id="namedview874"
     showgrid="false"
     inkscape:zoom="1.0304504"
     inkscape:cx="57.641753"
     inkscape:cy="251.38595"
     inkscape:window-x="-32000"
     inkscape:window-y="-32000"
     inkscape:window-maximized="0"
     inkscape:current-layer="svg2" />
  <defs
     id="defs4">
    <style
       type="text/css"
       id="style6">
*{stroke-linecap:butt;stroke-linejoin:round;}
  </style>
  </defs>
  <g
     id="figure_1">
    <g
       id="patch_1">
      <path
         d="M 0 278.653125  L 639.570312 278.653125  L 639.570312 0  L 0 0  z "
         style="fill:#ffffff;"
         id="path10" />
    </g>
    <g
       id="axes_1">
      <g
         id="patch_2">
        <path
           d="M 42.282813 242.2875  L 325.926563 242.2875  L 325.926563 10.7  L 42.282813 10.7  z "
           style="fill:#ffffff;"
           id="path14" />
      </g>
      <g
         id="matplotlib.axis_1">
        <g
           id="xtick_1">
          <g
             id="line2d_1">
            <defs
               id="defs19">
              <path
                 d="M 0 0  L 0 3.5  "
                 id="md8164c34b8"
                 style="stroke:#000000;stroke-width:0.8;" />
            </defs>
            <g
               id="g22">
              <use
                 style="stroke:#000000;stroke-width:0.8;"
                 x="42.282813"
                 xlink:href="#md8164c34b8"
                 y="242.2875"
                 id="use24" />
            </g>
          </g>
          <g
             id="text_1">
            <!-- 0.0 -->
            <defs
               id="defs27">
              <path
                 d="M 3.609375 32.71875  Q 3.609375 44.046875 7.03125 52.21875  Q 10.453125 60.40625 16.109375 64.40625  Q 20.515625 67.578125 25.203125 67.578125  Q 32.8125 67.578125 38.875 59.8125  Q 46.4375 50.203125 46.4375 33.734375  Q 46.4375 22.21875 43.109375 14.15625  Q 39.796875 6.109375 34.640625 2.46875  Q 29.5 -1.171875 24.703125 -1.171875  Q 15.234375 -1.171875 8.9375 10.015625  Q 3.609375 19.4375 3.609375 32.71875  M 13.1875 31.5  Q 13.1875 17.828125 16.546875 9.1875  Q 19.34375 1.90625 24.859375 1.90625  Q 27.484375 1.90625 30.3125 4.265625  Q 33.15625 6.640625 34.625 12.203125  Q 36.859375 20.609375 36.859375 35.890625  Q 36.859375 47.21875 34.515625 54.78125  Q 32.765625 60.40625 29.984375 62.75  Q 27.984375 64.359375 25.140625 64.359375  Q 21.828125 64.359375 19.234375 61.375  Q 15.71875 57.328125 14.453125 48.625  Q 13.1875 39.9375 13.1875 31.5  "
                 id="TimesNewRomanPSMT-30" />
              <path
                 d="M 12.5 9.46875  Q 14.796875 9.46875 16.359375 7.875  Q 17.921875 6.296875 17.921875 4.046875  Q 17.921875 1.8125 16.328125 0.21875  Q 14.75 -1.375 12.5 -1.375  Q 10.25 -1.375 8.65625 0.21875  Q 7.078125 1.8125 7.078125 4.046875  Q 7.078125 6.34375 8.65625 7.90625  Q 10.25 9.46875 12.5 9.46875  "
                 id="TimesNewRomanPSMT-2e" />
            </defs>
            <g
               transform="translate(36.032813 256.23125)scale(0.1 -0.1)"
               id="g31">
              <use
                 xlink:href="#TimesNewRomanPSMT-30"
                 id="use33" />
              <use
                 x="50"
                 xlink:href="#TimesNewRomanPSMT-2e"
                 id="use35" />
              <use
                 x="75"
                 xlink:href="#TimesNewRomanPSMT-30"
                 id="use37" />
            </g>
          </g>
        </g>
        <g
           id="xtick_2">
          <g
             id="line2d_2">
            <g
               id="g41">
              <use
                 style="stroke:#000000;stroke-width:0.8;"
                 x="77.738281"
                 xlink:href="#md8164c34b8"
                 y="242.2875"
                 id="use43" />
            </g>
          </g>
          <g
             id="text_2">
            <!-- 2.5 -->
            <defs
               id="defs46">
              <path
                 d="M 45.84375 12.75  L 41.21875 0  L 2.15625 0  L 2.15625 1.8125  Q 19.390625 17.53125 26.421875 27.484375  Q 33.453125 37.453125 33.453125 45.703125  Q 33.453125 52 29.59375 56.046875  Q 25.734375 60.109375 20.359375 60.109375  Q 15.484375 60.109375 11.59375 57.25  Q 7.71875 54.390625 5.859375 48.875  L 4.046875 48.875  Q 5.28125 57.90625 10.328125 62.734375  Q 15.375 67.578125 22.953125 67.578125  Q 31 67.578125 36.390625 62.40625  Q 41.796875 57.234375 41.796875 50.203125  Q 41.796875 45.171875 39.453125 40.140625  Q 35.84375 32.234375 27.734375 23.390625  Q 15.578125 10.109375 12.546875 7.375  L 29.828125 7.375  Q 35.109375 7.375 37.234375 7.765625  Q 39.359375 8.15625 41.0625 9.34375  Q 42.78125 10.546875 44.046875 12.75  z "
                 id="TimesNewRomanPSMT-32" />
              <path
                 d="M 43.40625 66.21875  L 39.59375 57.90625  L 19.671875 57.90625  L 15.328125 49.03125  Q 28.265625 47.125 35.84375 39.40625  Q 42.328125 32.765625 42.328125 23.78125  Q 42.328125 18.5625 40.203125 14.109375  Q 38.09375 9.671875 34.859375 6.546875  Q 31.640625 3.421875 27.6875 1.515625  Q 22.078125 -1.171875 16.15625 -1.171875  Q 10.203125 -1.171875 7.484375 0.84375  Q 4.78125 2.875 4.78125 5.328125  Q 4.78125 6.6875 5.90625 7.734375  Q 7.03125 8.796875 8.734375 8.796875  Q 10.015625 8.796875 10.96875 8.40625  Q 11.921875 8.015625 14.203125 6.390625  Q 17.875 3.859375 21.625 3.859375  Q 27.34375 3.859375 31.65625 8.171875  Q 35.984375 12.5 35.984375 18.703125  Q 35.984375 24.703125 32.125 29.90625  Q 28.265625 35.109375 21.484375 37.9375  Q 16.15625 40.140625 6.984375 40.484375  L 19.671875 66.21875  z "
                 id="TimesNewRomanPSMT-35" />
            </defs>
            <g
               transform="translate(71.488281 256.23125)scale(0.1 -0.1)"
               id="g50">
              <use
                 xlink:href="#TimesNewRomanPSMT-32"
                 id="use52" />
              <use
                 x="50"
                 xlink:href="#TimesNewRomanPSMT-2e"
                 id="use54" />
              <use
                 x="75"
                 xlink:href="#TimesNewRomanPSMT-35"
                 id="use56" />
            </g>
          </g>
        </g>
        <g
           id="xtick_3">
          <g
             id="line2d_3">
            <g
               id="g60">
              <use
                 style="stroke:#000000;stroke-width:0.8;"
                 x="113.19375"
                 xlink:href="#md8164c34b8"
                 y="242.2875"
                 id="use62" />
            </g>
          </g>
          <g
             id="text_3">
            <!-- 5.0 -->
            <g
               transform="translate(106.94375 256.23125)scale(0.1 -0.1)"
               id="g65">
              <use
                 xlink:href="#TimesNewRomanPSMT-35"
                 id="use67" />
              <use
                 x="50"
                 xlink:href="#TimesNewRomanPSMT-2e"
                 id="use69" />
              <use
                 x="75"
                 xlink:href="#TimesNewRomanPSMT-30"
                 id="use71" />
            </g>
          </g>
        </g>
        <g
           id="xtick_4">
          <g
             id="line2d_4">
            <g
               id="g75">
              <use
                 style="stroke:#000000;stroke-width:0.8;"
                 x="148.649219"
                 xlink:href="#md8164c34b8"
                 y="242.2875"
                 id="use77" />
            </g>
          </g>
          <g
             id="text_4">
            <!-- 7.5 -->
            <defs
               id="defs80">
              <path
                 d="M 10.0625 66.21875  L 45.5625 66.21875  L 45.5625 64.359375  L 23.484375 -1.375  L 18.015625 -1.375  L 37.796875 58.25  L 19.578125 58.25  Q 14.0625 58.25 11.71875 56.9375  Q 7.625 54.6875 5.125 50  L 3.71875 50.53125  z "
                 id="TimesNewRomanPSMT-37" />
            </defs>
            <g
               transform="translate(142.399219 256.23125)scale(0.1 -0.1)"
               id="g83">
              <use
                 xlink:href="#TimesNewRomanPSMT-37"
                 id="use85" />
              <use
                 x="50"
                 xlink:href="#TimesNewRomanPSMT-2e"
                 id="use87" />
              <use
                 x="75"
                 xlink:href="#TimesNewRomanPSMT-35"
                 id="use89" />
            </g>
          </g>
        </g>
        <g
           id="xtick_5">
          <g
             id="line2d_5">
            <g
               id="g93">
              <use
                 style="stroke:#000000;stroke-width:0.8;"
                 x="184.104688"
                 xlink:href="#md8164c34b8"
                 y="242.2875"
                 id="use95" />
            </g>
          </g>
          <g
             id="text_5">
            <!-- 10.0 -->
            <defs
               id="defs98">
              <path
                 d="M 11.71875 59.71875  L 27.828125 67.578125  L 29.4375 67.578125  L 29.4375 11.671875  Q 29.4375 6.109375 29.90625 4.734375  Q 30.375 3.375 31.828125 2.640625  Q 33.296875 1.90625 37.796875 1.8125  L 37.796875 0  L 12.890625 0  L 12.890625 1.8125  Q 17.578125 1.90625 18.9375 2.609375  Q 20.3125 3.328125 20.84375 4.515625  Q 21.390625 5.71875 21.390625 11.671875  L 21.390625 47.40625  Q 21.390625 54.640625 20.90625 56.6875  Q 20.5625 58.25 19.65625 58.984375  Q 18.75 59.71875 17.484375 59.71875  Q 15.671875 59.71875 12.453125 58.203125  z "
                 id="TimesNewRomanPSMT-31" />
            </defs>
            <g
               transform="translate(175.354688 256.23125)scale(0.1 -0.1)"
               id="g101">
              <use
                 xlink:href="#TimesNewRomanPSMT-31"
                 id="use103" />
              <use
                 x="50"
                 xlink:href="#TimesNewRomanPSMT-30"
                 id="use105" />
              <use
                 x="100"
                 xlink:href="#TimesNewRomanPSMT-2e"
                 id="use107" />
              <use
                 x="125"
                 xlink:href="#TimesNewRomanPSMT-30"
                 id="use109" />
            </g>
          </g>
        </g>
        <g
           id="xtick_6">
          <g
             id="line2d_6">
            <g
               id="g113">
              <use
                 style="stroke:#000000;stroke-width:0.8;"
                 x="219.560156"
                 xlink:href="#md8164c34b8"
                 y="242.2875"
                 id="use115" />
            </g>
          </g>
          <g
             id="text_6">
            <!-- 12.5 -->
            <g
               transform="translate(210.810156 256.23125)scale(0.1 -0.1)"
               id="g118">
              <use
                 xlink:href="#TimesNewRomanPSMT-31"
                 id="use120" />
              <use
                 x="50"
                 xlink:href="#TimesNewRomanPSMT-32"
                 id="use122" />
              <use
                 x="100"
                 xlink:href="#TimesNewRomanPSMT-2e"
                 id="use124" />
              <use
                 x="125"
                 xlink:href="#TimesNewRomanPSMT-35"
                 id="use126" />
            </g>
          </g>
        </g>
        <g
           id="xtick_7">
          <g
             id="line2d_7">
            <g
               id="g130">
              <use
                 style="stroke:#000000;stroke-width:0.8;"
                 x="255.015625"
                 xlink:href="#md8164c34b8"
                 y="242.2875"
                 id="use132" />
            </g>
          </g>
          <g
             id="text_7">
            <!-- 15.0 -->
            <g
               transform="translate(246.265625 256.23125)scale(0.1 -0.1)"
               id="g135">
              <use
                 xlink:href="#TimesNewRomanPSMT-31"
                 id="use137" />
              <use
                 x="50"
                 xlink:href="#TimesNewRomanPSMT-35"
                 id="use139" />
              <use
                 x="100"
                 xlink:href="#TimesNewRomanPSMT-2e"
                 id="use141" />
              <use
                 x="125"
                 xlink:href="#TimesNewRomanPSMT-30"
                 id="use143" />
            </g>
          </g>
        </g>
        <g
           id="xtick_8">
          <g
             id="line2d_8">
            <g
               id="g147">
              <use
                 style="stroke:#000000;stroke-width:0.8;"
                 x="290.471094"
                 xlink:href="#md8164c34b8"
                 y="242.2875"
                 id="use149" />
            </g>
          </g>
          <g
             id="text_8">
            <!-- 17.5 -->
            <g
               transform="translate(281.721094 256.23125)scale(0.1 -0.1)"
               id="g152">
              <use
                 xlink:href="#TimesNewRomanPSMT-31"
                 id="use154" />
              <use
                 x="50"
                 xlink:href="#TimesNewRomanPSMT-37"
                 id="use156" />
              <use
                 x="100"
                 xlink:href="#TimesNewRomanPSMT-2e"
                 id="use158" />
              <use
                 x="125"
                 xlink:href="#TimesNewRomanPSMT-35"
                 id="use160" />
            </g>
          </g>
        </g>
        <g
           id="xtick_9">
          <g
             id="line2d_9">
            <g
               id="g164">
              <use
                 style="stroke:#000000;stroke-width:0.8;"
                 x="325.926563"
                 xlink:href="#md8164c34b8"
                 y="242.2875"
                 id="use166" />
            </g>
          </g>
          <g
             id="text_9">
            <!-- 20.0 -->
            <g
               transform="translate(317.176563 256.23125)scale(0.1 -0.1)"
               id="g169">
              <use
                 xlink:href="#TimesNewRomanPSMT-32"
                 id="use171" />
              <use
                 x="50"
                 xlink:href="#TimesNewRomanPSMT-30"
                 id="use173" />
              <use
                 x="100"
                 xlink:href="#TimesNewRomanPSMT-2e"
                 id="use175" />
              <use
                 x="125"
                 xlink:href="#TimesNewRomanPSMT-30"
                 id="use177" />
            </g>
          </g>
        </g>
        <g
           id="text_10">
          <!-- Caudal Finbeat Effort (cm/s) -->
          <defs
             id="defs180">
            <path
               d="M 60.203125 67.71875  L 61.71875 45.21875  L 60.203125 45.21875  Q 57.171875 55.328125 51.5625 59.765625  Q 45.953125 64.203125 38.09375 64.203125  Q 31.5 64.203125 26.171875 60.859375  Q 20.84375 57.515625 17.796875 50.1875  Q 14.75 42.875 14.75 31.984375  Q 14.75 23 17.625 16.40625  Q 20.515625 9.8125 26.296875 6.296875  Q 32.078125 2.78125 39.5 2.78125  Q 45.953125 2.78125 50.875 5.53125  Q 55.8125 8.296875 61.71875 16.5  L 63.234375 15.53125  Q 58.25 6.6875 51.609375 2.578125  Q 44.96875 -1.515625 35.84375 -1.515625  Q 19.390625 -1.515625 10.359375 10.6875  Q 3.609375 19.78125 3.609375 32.078125  Q 3.609375 42 8.046875 50.296875  Q 12.5 58.59375 20.28125 63.15625  Q 28.078125 67.71875 37.3125 67.71875  Q 44.484375 67.71875 51.46875 64.203125  Q 53.515625 63.140625 54.390625 63.140625  Q 55.71875 63.140625 56.6875 64.0625  Q 57.953125 65.375 58.5 67.71875  z "
               id="TimesNewRomanPSMT-43" />
            <path
               d="M 28.46875 6.453125  Q 21.578125 1.125 19.828125 0.296875  Q 17.1875 -0.921875 14.203125 -0.921875  Q 9.578125 -0.921875 6.5625 2.25  Q 3.5625 5.421875 3.5625 10.59375  Q 3.5625 13.875 5.03125 16.265625  Q 7.03125 19.578125 11.984375 22.5  Q 16.9375 25.4375 28.46875 29.640625  L 28.46875 31.390625  Q 28.46875 38.09375 26.34375 40.578125  Q 24.21875 43.0625 20.171875 43.0625  Q 17.09375 43.0625 15.28125 41.40625  Q 13.421875 39.75 13.421875 37.59375  L 13.53125 34.765625  Q 13.53125 32.515625 12.375 31.296875  Q 11.234375 30.078125 9.375 30.078125  Q 7.5625 30.078125 6.421875 31.34375  Q 5.28125 32.625 5.28125 34.8125  Q 5.28125 39.015625 9.578125 42.53125  Q 13.875 46.046875 21.625 46.046875  Q 27.59375 46.046875 31.390625 44.046875  Q 34.28125 42.53125 35.640625 39.3125  Q 36.53125 37.203125 36.53125 30.71875  L 36.53125 15.53125  Q 36.53125 9.125 36.765625 7.6875  Q 37.015625 6.25 37.578125 5.765625  Q 38.140625 5.28125 38.875 5.28125  Q 39.65625 5.28125 40.234375 5.609375  Q 41.265625 6.25 44.1875 9.1875  L 44.1875 6.453125  Q 38.71875 -0.875 33.734375 -0.875  Q 31.34375 -0.875 29.921875 0.78125  Q 28.515625 2.4375 28.46875 6.453125  M 28.46875 9.625  L 28.46875 26.65625  Q 21.09375 23.734375 18.953125 22.515625  Q 15.09375 20.359375 13.421875 18.015625  Q 11.765625 15.671875 11.765625 12.890625  Q 11.765625 9.375 13.859375 7.046875  Q 15.96875 4.734375 18.703125 4.734375  Q 22.40625 4.734375 28.46875 9.625  "
               id="TimesNewRomanPSMT-61" />
            <path
               d="M 42.328125 44.734375  L 42.328125 17.625  Q 42.328125 9.859375 42.6875 8.125  Q 43.0625 6.390625 43.859375 5.703125  Q 44.671875 5.03125 45.75 5.03125  Q 47.265625 5.03125 49.171875 5.859375  L 49.859375 4.15625  L 36.46875 -1.375  L 34.28125 -1.375  L 34.28125 8.109375  Q 28.515625 1.859375 25.484375 0.234375  Q 22.46875 -1.375 19.09375 -1.375  Q 15.328125 -1.375 12.5625 0.796875  Q 9.8125 2.984375 8.734375 6.390625  Q 7.671875 9.8125 7.671875 16.0625  L 7.671875 36.03125  Q 7.671875 39.203125 6.984375 40.421875  Q 6.296875 41.65625 4.953125 42.3125  Q 3.609375 42.96875 0.09375 42.921875  L 0.09375 44.734375  L 15.765625 44.734375  L 15.765625 14.796875  Q 15.765625 8.546875 17.9375 6.59375  Q 20.125 4.640625 23.1875 4.640625  Q 25.296875 4.640625 27.953125 5.953125  Q 30.609375 7.28125 34.28125 10.984375  L 34.28125 36.328125  Q 34.28125 40.140625 32.890625 41.484375  Q 31.5 42.828125 27.09375 42.921875  L 27.09375 44.734375  z "
               id="TimesNewRomanPSMT-75" />
            <path
               d="M 34.71875 5.03125  Q 31.453125 1.609375 28.328125 0.109375  Q 25.203125 -1.375 21.578125 -1.375  Q 14.265625 -1.375 8.796875 4.75  Q 3.328125 10.890625 3.328125 20.515625  Q 3.328125 30.125 9.375 38.109375  Q 15.4375 46.09375 24.953125 46.09375  Q 30.859375 46.09375 34.71875 42.328125  L 34.71875 50.59375  Q 34.71875 58.25 34.34375 60  Q 33.984375 61.765625 33.203125 62.390625  Q 32.421875 63.03125 31.25 63.03125  Q 29.984375 63.03125 27.875 62.25  L 27.25 63.96875  L 40.578125 69.4375  L 42.78125 69.4375  L 42.78125 17.71875  Q 42.78125 9.859375 43.140625 8.125  Q 43.5 6.390625 44.3125 5.703125  Q 45.125 5.03125 46.1875 5.03125  Q 47.515625 5.03125 49.703125 5.859375  L 50.25 4.15625  L 36.96875 -1.375  L 34.71875 -1.375  z M 34.71875 8.453125  L 34.71875 31.5  Q 34.421875 34.8125 32.953125 37.546875  Q 31.5 40.28125 29.078125 41.671875  Q 26.65625 43.0625 24.359375 43.0625  Q 20.0625 43.0625 16.703125 39.203125  Q 12.25 34.125 12.25 24.359375  Q 12.25 14.5 16.546875 9.25  Q 20.84375 4 26.125 4  Q 30.5625 4 34.71875 8.453125  "
               id="TimesNewRomanPSMT-64" />
            <path
               d="M 18.5 69.4375  L 18.5 10.109375  Q 18.5 5.90625 19.109375 4.53125  Q 19.734375 3.171875 21 2.46875  Q 22.265625 1.765625 25.734375 1.765625  L 25.734375 0  L 3.8125 0  L 3.8125 1.765625  Q 6.890625 1.765625 8 2.390625  Q 9.125 3.03125 9.765625 4.484375  Q 10.40625 5.953125 10.40625 10.109375  L 10.40625 50.734375  Q 10.40625 58.296875 10.0625 60.03125  Q 9.71875 61.765625 8.953125 62.390625  Q 8.203125 63.03125 7.03125 63.03125  Q 5.765625 63.03125 3.8125 62.25  L 2.984375 63.96875  L 16.3125 69.4375  z "
               id="TimesNewRomanPSMT-6c" />
            <path
               id="TimesNewRomanPSMT-20" />
            <path
               d="M 20.453125 62.59375  L 20.453125 36.578125  L 32.515625 36.578125  Q 36.671875 36.578125 38.59375 38.40625  Q 40.53125 40.234375 41.15625 45.65625  L 42.96875 45.65625  L 42.96875 23.25  L 41.15625 23.25  Q 41.109375 27.09375 40.15625 28.90625  Q 39.203125 30.71875 37.515625 31.609375  Q 35.84375 32.515625 32.515625 32.515625  L 20.453125 32.515625  L 20.453125 11.71875  Q 20.453125 6.6875 21.09375 5.078125  Q 21.578125 3.859375 23.140625 2.984375  Q 25.296875 1.8125 27.640625 1.8125  L 30.03125 1.8125  L 30.03125 0  L 1.609375 0  L 1.609375 1.8125  L 3.953125 1.8125  Q 8.0625 1.8125 9.90625 4.203125  Q 11.078125 5.765625 11.078125 11.71875  L 11.078125 54.5  Q 11.078125 59.515625 10.453125 61.140625  Q 9.96875 62.359375 8.453125 63.234375  Q 6.34375 64.40625 3.953125 64.40625  L 1.609375 64.40625  L 1.609375 66.21875  L 50.875 66.21875  L 51.515625 51.65625  L 49.8125 51.65625  Q 48.53125 56.296875 46.84375 58.46875  Q 45.171875 60.640625 42.703125 61.609375  Q 40.234375 62.59375 35.0625 62.59375  z "
               id="TimesNewRomanPSMT-46" />
            <path
               d="M 14.5 69.4375  Q 16.546875 69.4375 17.984375 67.984375  Q 19.4375 66.546875 19.4375 64.5  Q 19.4375 62.453125 17.984375 60.984375  Q 16.546875 59.515625 14.5 59.515625  Q 12.453125 59.515625 10.984375 60.984375  Q 9.515625 62.453125 9.515625 64.5  Q 9.515625 66.546875 10.953125 67.984375  Q 12.40625 69.4375 14.5 69.4375  M 18.5625 46.046875  L 18.5625 10.109375  Q 18.5625 5.90625 19.171875 4.515625  Q 19.78125 3.125 20.96875 2.4375  Q 22.171875 1.765625 25.34375 1.765625  L 25.34375 0  L 3.609375 0  L 3.609375 1.765625  Q 6.890625 1.765625 8 2.390625  Q 9.125 3.03125 9.78125 4.484375  Q 10.453125 5.953125 10.453125 10.109375  L 10.453125 27.34375  Q 10.453125 34.625 10.015625 36.765625  Q 9.671875 38.328125 8.9375 38.9375  Q 8.203125 39.546875 6.9375 39.546875  Q 5.5625 39.546875 3.609375 38.8125  L 2.9375 40.578125  L 16.40625 46.046875  z "
               id="TimesNewRomanPSMT-69" />
            <path
               d="M 16.15625 36.578125  Q 24.03125 46.046875 31.15625 46.046875  Q 34.8125 46.046875 37.453125 44.21875  Q 40.09375 42.390625 41.65625 38.1875  Q 42.71875 35.25 42.71875 29.203125  L 42.71875 10.109375  Q 42.71875 5.859375 43.40625 4.34375  Q 43.953125 3.125 45.140625 2.4375  Q 46.34375 1.765625 49.5625 1.765625  L 49.5625 0  L 27.4375 0  L 27.4375 1.765625  L 28.375 1.765625  Q 31.5 1.765625 32.734375 2.703125  Q 33.984375 3.65625 34.46875 5.515625  Q 34.671875 6.25 34.671875 10.109375  L 34.671875 28.421875  Q 34.671875 34.515625 33.078125 37.28125  Q 31.5 40.046875 27.734375 40.046875  Q 21.921875 40.046875 16.15625 33.6875  L 16.15625 10.109375  Q 16.15625 5.5625 16.703125 4.5  Q 17.390625 3.078125 18.578125 2.421875  Q 19.78125 1.765625 23.4375 1.765625  L 23.4375 0  L 1.3125 0  L 1.3125 1.765625  L 2.296875 1.765625  Q 5.71875 1.765625 6.90625 3.484375  Q 8.109375 5.21875 8.109375 10.109375  L 8.109375 26.703125  Q 8.109375 34.765625 7.734375 36.515625  Q 7.375 38.28125 6.609375 38.90625  Q 5.859375 39.546875 4.59375 39.546875  Q 3.21875 39.546875 1.3125 38.8125  L 0.59375 40.578125  L 14.0625 46.046875  L 16.15625 46.046875  z "
               id="TimesNewRomanPSMT-6e" />
            <path
               d="M 15.375 37.015625  Q 21.875 46.046875 29.390625 46.046875  Q 36.28125 46.046875 41.40625 40.15625  Q 46.53125 34.28125 46.53125 24.078125  Q 46.53125 12.15625 38.625 4.890625  Q 31.84375 -1.375 23.484375 -1.375  Q 19.578125 -1.375 15.546875 0.046875  Q 11.53125 1.46875 7.328125 4.296875  L 7.328125 50.640625  Q 7.328125 58.25 6.953125 60  Q 6.59375 61.765625 5.8125 62.390625  Q 5.03125 63.03125 3.859375 63.03125  Q 2.484375 63.03125 0.4375 62.25  L -0.25 63.96875  L 13.1875 69.4375  L 15.375 69.4375  z M 15.375 33.890625  L 15.375 7.125  Q 17.875 4.6875 20.53125 3.4375  Q 23.1875 2.203125 25.984375 2.203125  Q 30.421875 2.203125 34.25 7.078125  Q 38.09375 11.96875 38.09375 21.296875  Q 38.09375 29.890625 34.25 34.5  Q 30.421875 39.109375 25.53125 39.109375  Q 22.953125 39.109375 20.359375 37.796875  Q 18.40625 36.8125 15.375 33.890625  "
               id="TimesNewRomanPSMT-62" />
            <path
               d="M 10.640625 27.875  Q 10.59375 17.921875 15.484375 12.25  Q 20.359375 6.59375 26.953125 6.59375  Q 31.34375 6.59375 34.59375 9  Q 37.84375 11.421875 40.046875 17.28125  L 41.546875 16.3125  Q 40.53125 9.625 35.59375 4.125  Q 30.671875 -1.375 23.25 -1.375  Q 15.1875 -1.375 9.453125 4.90625  Q 3.71875 11.1875 3.71875 21.78125  Q 3.71875 33.25 9.59375 39.671875  Q 15.484375 46.09375 24.359375 46.09375  Q 31.890625 46.09375 36.71875 41.140625  Q 41.546875 36.1875 41.546875 27.875  z M 10.640625 30.71875  L 31.34375 30.71875  Q 31.109375 35.015625 30.328125 36.765625  Q 29.109375 39.5 26.6875 41.0625  Q 24.265625 42.625 21.625 42.625  Q 17.578125 42.625 14.375 39.46875  Q 11.1875 36.328125 10.640625 30.71875  "
               id="TimesNewRomanPSMT-65" />
            <path
               d="M 16.109375 59.421875  L 16.109375 44.734375  L 26.5625 44.734375  L 26.5625 41.3125  L 16.109375 41.3125  L 16.109375 12.3125  Q 16.109375 7.953125 17.359375 6.4375  Q 18.609375 4.9375 20.5625 4.9375  Q 22.171875 4.9375 23.6875 5.9375  Q 25.203125 6.9375 26.03125 8.890625  L 27.9375 8.890625  Q 26.21875 4.109375 23.09375 1.6875  Q 19.96875 -0.734375 16.65625 -0.734375  Q 14.40625 -0.734375 12.25 0.515625  Q 10.109375 1.765625 9.078125 4.078125  Q 8.0625 6.390625 8.0625 11.234375  L 8.0625 41.3125  L 0.984375 41.3125  L 0.984375 42.921875  Q 3.65625 44 6.46875 46.5625  Q 9.28125 49.125 11.46875 52.640625  Q 12.59375 54.5 14.59375 59.421875  z "
               id="TimesNewRomanPSMT-74" />
            <path
               d="M 20.90625 62.59375  L 20.90625 36.421875  L 35.453125 36.421875  Q 41.109375 36.421875 43.015625 38.140625  Q 45.5625 40.375 45.84375 46.046875  L 47.65625 46.046875  L 47.65625 23  L 45.84375 23  Q 45.171875 27.828125 44.484375 29.203125  Q 43.609375 30.90625 41.59375 31.875  Q 39.59375 32.859375 35.453125 32.859375  L 20.90625 32.859375  L 20.90625 11.03125  Q 20.90625 6.640625 21.296875 5.6875  Q 21.6875 4.734375 22.65625 4.171875  Q 23.640625 3.609375 26.375 3.609375  L 37.59375 3.609375  Q 43.21875 3.609375 45.75 4.390625  Q 48.296875 5.171875 50.640625 7.46875  Q 53.65625 10.5 56.84375 16.609375  L 58.796875 16.609375  L 53.078125 0  L 2.046875 0  L 2.046875 1.8125  L 4.390625 1.8125  Q 6.734375 1.8125 8.84375 2.9375  Q 10.40625 3.71875 10.96875 5.28125  Q 11.53125 6.84375 11.53125 11.671875  L 11.53125 54.6875  Q 11.53125 60.984375 10.25 62.453125  Q 8.5 64.40625 4.390625 64.40625  L 2.046875 64.40625  L 2.046875 66.21875  L 53.078125 66.21875  L 53.8125 51.703125  L 51.90625 51.703125  Q 50.875 56.9375 49.625 58.890625  Q 48.390625 60.84375 45.953125 61.859375  Q 44 62.59375 39.0625 62.59375  z "
               id="TimesNewRomanPSMT-45" />
            <path
               d="M 20.609375 41.21875  L 20.609375 11.8125  Q 20.609375 5.5625 21.96875 3.90625  Q 23.78125 1.765625 26.8125 1.765625  L 30.859375 1.765625  L 30.859375 0  L 4.15625 0  L 4.15625 1.765625  L 6.15625 1.765625  Q 8.109375 1.765625 9.71875 2.734375  Q 11.328125 3.71875 11.9375 5.375  Q 12.546875 7.03125 12.546875 11.8125  L 12.546875 41.21875  L 3.859375 41.21875  L 3.859375 44.734375  L 12.546875 44.734375  L 12.546875 47.65625  Q 12.546875 54.34375 14.6875 58.984375  Q 16.84375 63.625 21.265625 66.484375  Q 25.6875 69.34375 31.203125 69.34375  Q 36.328125 69.34375 40.625 66.015625  Q 43.453125 63.8125 43.453125 61.078125  Q 43.453125 59.625 42.1875 58.328125  Q 40.921875 57.03125 39.453125 57.03125  Q 38.328125 57.03125 37.078125 57.828125  Q 35.84375 58.640625 34.03125 61.296875  Q 32.234375 63.96875 30.71875 64.890625  Q 29.203125 65.828125 27.34375 65.828125  Q 25.09375 65.828125 23.53125 64.625  Q 21.96875 63.421875 21.28125 60.90625  Q 20.609375 58.40625 20.609375 47.953125  L 20.609375 44.734375  L 32.125 44.734375  L 32.125 41.21875  z "
               id="TimesNewRomanPSMT-66" />
            <path
               d="M 25 46.046875  Q 35.15625 46.046875 41.3125 38.328125  Q 46.53125 31.734375 46.53125 23.1875  Q 46.53125 17.1875 43.640625 11.03125  Q 40.765625 4.890625 35.71875 1.75  Q 30.671875 -1.375 24.46875 -1.375  Q 14.359375 -1.375 8.40625 6.6875  Q 3.375 13.484375 3.375 21.921875  Q 3.375 28.078125 6.421875 34.15625  Q 9.46875 40.234375 14.453125 43.140625  Q 19.4375 46.046875 25 46.046875  M 23.484375 42.875  Q 20.90625 42.875 18.28125 41.328125  Q 15.671875 39.796875 14.0625 35.9375  Q 12.453125 32.078125 12.453125 26.03125  Q 12.453125 16.265625 16.328125 9.171875  Q 20.21875 2.09375 26.5625 2.09375  Q 31.296875 2.09375 34.375 6  Q 37.453125 9.90625 37.453125 19.4375  Q 37.453125 31.34375 32.328125 38.1875  Q 28.859375 42.875 23.484375 42.875  "
               id="TimesNewRomanPSMT-6f" />
            <path
               d="M 16.21875 46.046875  L 16.21875 35.984375  Q 21.828125 46.046875 27.734375 46.046875  Q 30.421875 46.046875 32.171875 44.40625  Q 33.9375 42.78125 33.9375 40.625  Q 33.9375 38.71875 32.65625 37.390625  Q 31.390625 36.078125 29.640625 36.078125  Q 27.9375 36.078125 25.8125 37.765625  Q 23.6875 39.453125 22.65625 39.453125  Q 21.78125 39.453125 20.75 38.484375  Q 18.5625 36.46875 16.21875 31.890625  L 16.21875 10.453125  Q 16.21875 6.734375 17.140625 4.828125  Q 17.78125 3.515625 19.390625 2.640625  Q 21 1.765625 24.03125 1.765625  L 24.03125 0  L 1.125 0  L 1.125 1.765625  Q 4.546875 1.765625 6.203125 2.828125  Q 7.421875 3.609375 7.90625 5.328125  Q 8.15625 6.15625 8.15625 10.0625  L 8.15625 27.390625  Q 8.15625 35.203125 7.828125 36.6875  Q 7.515625 38.1875 6.65625 38.859375  Q 5.8125 39.546875 4.546875 39.546875  Q 3.03125 39.546875 1.125 38.8125  L 0.640625 40.578125  L 14.15625 46.046875  z "
               id="TimesNewRomanPSMT-72" />
            <path
               d="M 31.0625 -19.578125  L 31.0625 -21.390625  Q 23.6875 -17.671875 18.75 -12.703125  Q 11.71875 -5.609375 7.90625 4  Q 4.109375 13.625 4.109375 23.96875  Q 4.109375 39.109375 11.578125 51.578125  Q 19.046875 64.0625 31.0625 69.4375  L 31.0625 67.390625  Q 25.046875 64.0625 21.1875 58.296875  Q 17.328125 52.546875 15.421875 43.703125  Q 13.53125 34.859375 13.53125 25.25  Q 13.53125 14.796875 15.140625 6.25  Q 16.40625 -0.484375 18.203125 -4.5625  Q 20.015625 -8.640625 23.0625 -12.390625  Q 26.125 -16.15625 31.0625 -19.578125  "
               id="TimesNewRomanPSMT-28" />
            <path
               d="M 41.109375 17  Q 39.3125 8.15625 34.03125 3.390625  Q 28.765625 -1.375 22.359375 -1.375  Q 14.75 -1.375 9.078125 5.015625  Q 3.421875 11.421875 3.421875 22.3125  Q 3.421875 32.859375 9.6875 39.453125  Q 15.96875 46.046875 24.75 46.046875  Q 31.34375 46.046875 35.59375 42.546875  Q 39.84375 39.0625 39.84375 35.296875  Q 39.84375 33.453125 38.640625 32.296875  Q 37.453125 31.15625 35.296875 31.15625  Q 32.421875 31.15625 30.953125 33.015625  Q 30.125 34.03125 29.859375 36.90625  Q 29.59375 39.796875 27.875 41.3125  Q 26.171875 42.78125 23.140625 42.78125  Q 18.265625 42.78125 15.28125 39.15625  Q 11.328125 34.375 11.328125 26.515625  Q 11.328125 18.5 15.25 12.375  Q 19.1875 6.25 25.875 6.25  Q 30.671875 6.25 34.46875 9.515625  Q 37.15625 11.765625 39.703125 17.671875  z "
               id="TimesNewRomanPSMT-63" />
            <path
               d="M 16.40625 36.53125  Q 21.296875 41.40625 22.171875 42.140625  Q 24.359375 44 26.890625 45.015625  Q 29.4375 46.046875 31.9375 46.046875  Q 36.140625 46.046875 39.15625 43.59375  Q 42.1875 41.15625 43.21875 36.53125  Q 48.25 42.390625 51.703125 44.21875  Q 55.171875 46.046875 58.84375 46.046875  Q 62.40625 46.046875 65.15625 44.21875  Q 67.921875 42.390625 69.53125 38.234375  Q 70.609375 35.40625 70.609375 29.34375  L 70.609375 10.109375  Q 70.609375 5.90625 71.234375 4.34375  Q 71.734375 3.265625 73.046875 2.515625  Q 74.359375 1.765625 77.34375 1.765625  L 77.34375 0  L 55.28125 0  L 55.28125 1.765625  L 56.203125 1.765625  Q 59.078125 1.765625 60.6875 2.875  Q 61.8125 3.65625 62.3125 5.375  Q 62.5 6.203125 62.5 10.109375  L 62.5 29.34375  Q 62.5 34.8125 61.1875 37.0625  Q 59.28125 40.1875 55.078125 40.1875  Q 52.484375 40.1875 49.875 38.890625  Q 47.265625 37.59375 43.5625 34.078125  L 43.453125 33.546875  L 43.5625 31.453125  L 43.5625 10.109375  Q 43.5625 5.515625 44.0625 4.390625  Q 44.578125 3.265625 45.984375 2.515625  Q 47.40625 1.765625 50.828125 1.765625  L 50.828125 0  L 28.21875 0  L 28.21875 1.765625  Q 31.9375 1.765625 33.328125 2.640625  Q 34.71875 3.515625 35.25 5.28125  Q 35.5 6.109375 35.5 10.109375  L 35.5 29.34375  Q 35.5 34.8125 33.890625 37.203125  Q 31.734375 40.328125 27.875 40.328125  Q 25.25 40.328125 22.65625 38.921875  Q 18.609375 36.765625 16.40625 34.078125  L 16.40625 10.109375  Q 16.40625 5.71875 17.015625 4.390625  Q 17.625 3.078125 18.8125 2.421875  Q 20.015625 1.765625 23.6875 1.765625  L 23.6875 0  L 1.5625 0  L 1.5625 1.765625  Q 4.640625 1.765625 5.859375 2.421875  Q 7.078125 3.078125 7.703125 4.515625  Q 8.34375 5.953125 8.34375 10.109375  L 8.34375 27.203125  Q 8.34375 34.578125 7.90625 36.71875  Q 7.5625 38.328125 6.828125 38.9375  Q 6.109375 39.546875 4.828125 39.546875  Q 3.46875 39.546875 1.5625 38.8125  L 0.828125 40.578125  L 14.3125 46.046875  L 16.40625 46.046875  z "
               id="TimesNewRomanPSMT-6d" />
            <path
               d="M 28.03125 69.4375  L 4.046875 -1.375  L 0.140625 -1.375  L 24.125 69.4375  z "
               id="TimesNewRomanPSMT-2f" />
            <path
               d="M 32.03125 46.046875  L 32.03125 30.8125  L 30.421875 30.8125  Q 28.5625 37.984375 25.65625 40.578125  Q 22.75 43.171875 18.265625 43.171875  Q 14.84375 43.171875 12.734375 41.359375  Q 10.640625 39.546875 10.640625 37.359375  Q 10.640625 34.625 12.203125 32.671875  Q 13.71875 30.671875 18.359375 28.421875  L 25.484375 24.953125  Q 35.40625 20.125 35.40625 12.203125  Q 35.40625 6.109375 30.78125 2.359375  Q 26.171875 -1.375 20.453125 -1.375  Q 16.359375 -1.375 11.078125 0.09375  Q 9.46875 0.59375 8.453125 0.59375  Q 7.328125 0.59375 6.6875 -0.6875  L 5.078125 -0.6875  L 5.078125 15.28125  L 6.6875 15.28125  Q 8.0625 8.453125 11.90625 4.984375  Q 15.765625 1.515625 20.5625 1.515625  Q 23.921875 1.515625 26.046875 3.484375  Q 28.171875 5.46875 28.171875 8.25  Q 28.171875 11.625 25.796875 13.921875  Q 23.4375 16.21875 16.359375 19.734375  Q 9.28125 23.25 7.078125 26.078125  Q 4.890625 28.859375 4.890625 33.109375  Q 4.890625 38.625 8.671875 42.328125  Q 12.453125 46.046875 18.453125 46.046875  Q 21.09375 46.046875 24.859375 44.921875  Q 27.34375 44.1875 28.171875 44.1875  Q 28.953125 44.1875 29.390625 44.53125  Q 29.828125 44.875 30.421875 46.046875  z "
               id="TimesNewRomanPSMT-73" />
            <path
               d="M 2.25 67.390625  L 2.25 69.4375  Q 9.671875 65.765625 14.59375 60.796875  Q 21.578125 53.65625 25.390625 44.0625  Q 29.203125 34.46875 29.203125 24.078125  Q 29.203125 8.9375 21.75 -3.53125  Q 14.3125 -16.015625 2.25 -21.390625  L 2.25 -19.578125  Q 8.25 -16.21875 12.125 -10.46875  Q 16.015625 -4.734375 17.890625 4.125  Q 19.78125 12.984375 19.78125 22.609375  Q 19.78125 33.015625 18.171875 41.609375  Q 16.9375 48.34375 15.109375 52.390625  Q 13.28125 56.453125 10.25 60.203125  Q 7.234375 63.96875 2.25 67.390625  "
               id="TimesNewRomanPSMT-29" />
          </defs>
          <g
             transform="translate(126.483594 269.314063)scale(0.1 -0.1)"
             id="g204">
            <use
               xlink:href="#TimesNewRomanPSMT-43"
               id="use206" />
            <use
               x="66.699219"
               xlink:href="#TimesNewRomanPSMT-61"
               id="use208" />
            <use
               x="111.083984"
               xlink:href="#TimesNewRomanPSMT-75"
               id="use210" />
            <use
               x="161.083984"
               xlink:href="#TimesNewRomanPSMT-64"
               id="use212" />
            <use
               x="211.083984"
               xlink:href="#TimesNewRomanPSMT-61"
               id="use214" />
            <use
               x="255.46875"
               xlink:href="#TimesNewRomanPSMT-6c"
               id="use216" />
            <use
               x="283.251953"
               xlink:href="#TimesNewRomanPSMT-20"
               id="use218" />
            <use
               x="308.251953"
               xlink:href="#TimesNewRomanPSMT-46"
               id="use220" />
            <use
               x="363.867188"
               xlink:href="#TimesNewRomanPSMT-69"
               id="use222" />
            <use
               x="391.650391"
               xlink:href="#TimesNewRomanPSMT-6e"
               id="use224" />
            <use
               x="441.650391"
               xlink:href="#TimesNewRomanPSMT-62"
               id="use226" />
            <use
               x="491.650391"
               xlink:href="#TimesNewRomanPSMT-65"
               id="use228" />
            <use
               x="536.035156"
               xlink:href="#TimesNewRomanPSMT-61"
               id="use230" />
            <use
               x="580.419922"
               xlink:href="#TimesNewRomanPSMT-74"
               id="use232" />
            <use
               x="608.203125"
               xlink:href="#TimesNewRomanPSMT-20"
               id="use234" />
            <use
               x="633.203125"
               xlink:href="#TimesNewRomanPSMT-45"
               id="use236" />
            <use
               x="694.287109"
               xlink:href="#TimesNewRomanPSMT-66"
               id="use238" />
            <use
               x="727.572266"
               xlink:href="#TimesNewRomanPSMT-66"
               id="use240" />
            <use
               x="760.873047"
               xlink:href="#TimesNewRomanPSMT-6f"
               id="use242" />
            <use
               x="810.873047"
               xlink:href="#TimesNewRomanPSMT-72"
               id="use244" />
            <use
               x="844.173828"
               xlink:href="#TimesNewRomanPSMT-74"
               id="use246" />
            <use
               x="871.957031"
               xlink:href="#TimesNewRomanPSMT-20"
               id="use248" />
            <use
               x="896.957031"
               xlink:href="#TimesNewRomanPSMT-28"
               id="use250" />
            <use
               x="930.257812"
               xlink:href="#TimesNewRomanPSMT-63"
               id="use252" />
            <use
               x="974.642578"
               xlink:href="#TimesNewRomanPSMT-6d"
               id="use254" />
            <use
               x="1052.425781"
               xlink:href="#TimesNewRomanPSMT-2f"
               id="use256" />
            <use
               x="1080.208984"
               xlink:href="#TimesNewRomanPSMT-73"
               id="use258" />
            <use
               x="1119.125"
               xlink:href="#TimesNewRomanPSMT-29"
               id="use260" />
          </g>
        </g>
      </g>
      <g
         id="matplotlib.axis_2">
        <g
           id="ytick_1">
          <g
             id="line2d_10">
            <defs
               id="defs265">
              <path
                 d="M 0 0  L -3.5 0  "
                 id="mb5b24da20b"
                 style="stroke:#000000;stroke-width:0.8;" />
            </defs>
            <g
               id="g268">
              <use
                 style="stroke:#000000;stroke-width:0.8;"
                 x="42.282813"
                 xlink:href="#mb5b24da20b"
                 y="242.2875"
                 id="use270" />
            </g>
          </g>
          <g
             id="text_11">
            <!-- 0 -->
            <g
               transform="translate(30.282813 245.759375)scale(0.1 -0.1)"
               id="g273">
              <use
                 xlink:href="#TimesNewRomanPSMT-30"
                 id="use275" />
            </g>
          </g>
        </g>
        <g
           id="ytick_2">
          <g
             id="line2d_11">
            <g
               id="g279">
              <use
                 style="stroke:#000000;stroke-width:0.8;"
                 x="42.282813"
                 xlink:href="#mb5b24da20b"
                 y="211.409167"
                 id="use281" />
            </g>
          </g>
          <g
             id="text_12">
            <!-- 20 -->
            <g
               transform="translate(25.282813 214.881042)scale(0.1 -0.1)"
               id="g284">
              <use
                 xlink:href="#TimesNewRomanPSMT-32"
                 id="use286" />
              <use
                 x="50"
                 xlink:href="#TimesNewRomanPSMT-30"
                 id="use288" />
            </g>
          </g>
        </g>
        <g
           id="ytick_3">
          <g
             id="line2d_12">
            <g
               id="g292">
              <use
                 style="stroke:#000000;stroke-width:0.8;"
                 x="42.282813"
                 xlink:href="#mb5b24da20b"
                 y="180.530833"
                 id="use294" />
            </g>
          </g>
          <g
             id="text_13">
            <!-- 40 -->
            <defs
               id="defs297">
              <path
                 d="M 46.53125 24.421875  L 46.53125 17.484375  L 37.640625 17.484375  L 37.640625 0  L 29.59375 0  L 29.59375 17.484375  L 1.5625 17.484375  L 1.5625 23.734375  L 32.28125 67.578125  L 37.640625 67.578125  L 37.640625 24.421875  z M 29.59375 24.421875  L 29.59375 57.28125  L 6.34375 24.421875  z "
                 id="TimesNewRomanPSMT-34" />
            </defs>
            <g
               transform="translate(25.282813 184.002708)scale(0.1 -0.1)"
               id="g300">
              <use
                 xlink:href="#TimesNewRomanPSMT-34"
                 id="use302" />
              <use
                 x="50"
                 xlink:href="#TimesNewRomanPSMT-30"
                 id="use304" />
            </g>
          </g>
        </g>
        <g
           id="ytick_4">
          <g
             id="line2d_13">
            <g
               id="g308">
              <use
                 style="stroke:#000000;stroke-width:0.8;"
                 x="42.282813"
                 xlink:href="#mb5b24da20b"
                 y="149.6525"
                 id="use310" />
            </g>
          </g>
          <g
             id="text_14">
            <!-- 60 -->
            <defs
               id="defs313">
              <path
                 d="M 44.828125 67.578125  L 44.828125 65.765625  Q 38.375 65.140625 34.296875 63.203125  Q 30.21875 61.28125 26.234375 57.328125  Q 22.265625 53.375 19.65625 48.515625  Q 17.046875 43.65625 15.28125 36.96875  Q 22.3125 41.796875 29.390625 41.796875  Q 36.1875 41.796875 41.15625 36.328125  Q 46.140625 30.859375 46.140625 22.265625  Q 46.140625 13.96875 41.109375 7.125  Q 35.0625 -1.171875 25.09375 -1.171875  Q 18.3125 -1.171875 13.578125 3.328125  Q 4.296875 12.0625 4.296875 25.984375  Q 4.296875 34.859375 7.859375 42.859375  Q 11.421875 50.875 18.03125 57.078125  Q 24.65625 63.28125 30.703125 65.421875  Q 36.765625 67.578125 42 67.578125  z M 14.453125 33.40625  Q 13.578125 26.8125 13.578125 22.75  Q 13.578125 18.0625 15.3125 12.5625  Q 17.046875 7.078125 20.453125 3.859375  Q 22.953125 1.5625 26.515625 1.5625  Q 30.765625 1.5625 34.109375 5.5625  Q 37.453125 9.578125 37.453125 17  Q 37.453125 25.34375 34.125 31.4375  Q 30.8125 37.546875 24.703125 37.546875  Q 22.859375 37.546875 20.734375 36.765625  Q 18.609375 35.984375 14.453125 33.40625  "
                 id="TimesNewRomanPSMT-36" />
            </defs>
            <g
               transform="translate(25.282813 153.124375)scale(0.1 -0.1)"
               id="g316">
              <use
                 xlink:href="#TimesNewRomanPSMT-36"
                 id="use318" />
              <use
                 x="50"
                 xlink:href="#TimesNewRomanPSMT-30"
                 id="use320" />
            </g>
          </g>
        </g>
        <g
           id="ytick_5">
          <g
             id="line2d_14">
            <g
               id="g324">
              <use
                 style="stroke:#000000;stroke-width:0.8;"
                 x="42.282813"
                 xlink:href="#mb5b24da20b"
                 y="118.774167"
                 id="use326" />
            </g>
          </g>
          <g
             id="text_15">
            <!-- 80 -->
            <defs
               id="defs329">
              <path
                 d="M 19.1875 33.34375  Q 11.328125 39.796875 9.046875 43.703125  Q 6.78125 47.609375 6.78125 51.8125  Q 6.78125 58.25 11.765625 62.90625  Q 16.75 67.578125 25 67.578125  Q 33.015625 67.578125 37.890625 63.234375  Q 42.78125 58.890625 42.78125 53.328125  Q 42.78125 49.609375 40.140625 45.75  Q 37.5 41.890625 29.15625 36.671875  Q 37.75 30.03125 40.53125 26.21875  Q 44.234375 21.234375 44.234375 15.71875  Q 44.234375 8.734375 38.90625 3.78125  Q 33.59375 -1.171875 24.953125 -1.171875  Q 15.53125 -1.171875 10.25 4.734375  Q 6.0625 9.46875 6.0625 15.09375  Q 6.0625 19.484375 9.015625 23.796875  Q 11.96875 28.125 19.1875 33.34375  M 26.859375 38.578125  Q 32.71875 43.84375 34.28125 46.890625  Q 35.84375 49.953125 35.84375 53.8125  Q 35.84375 58.9375 32.953125 61.84375  Q 30.078125 64.75 25.09375 64.75  Q 20.125 64.75 17 61.859375  Q 13.875 58.984375 13.875 55.125  Q 13.875 52.59375 15.15625 50.046875  Q 16.453125 47.515625 18.84375 45.21875  z M 21.484375 31.5  Q 17.4375 28.078125 15.484375 24.046875  Q 13.53125 20.015625 13.53125 15.328125  Q 13.53125 9.03125 16.96875 5.25  Q 20.40625 1.46875 25.734375 1.46875  Q 31 1.46875 34.171875 4.4375  Q 37.359375 7.421875 37.359375 11.671875  Q 37.359375 15.1875 35.5 17.96875  Q 32.03125 23.140625 21.484375 31.5  "
                 id="TimesNewRomanPSMT-38" />
            </defs>
            <g
               transform="translate(25.282813 122.246042)scale(0.1 -0.1)"
               id="g332">
              <use
                 xlink:href="#TimesNewRomanPSMT-38"
                 id="use334" />
              <use
                 x="50"
                 xlink:href="#TimesNewRomanPSMT-30"
                 id="use336" />
            </g>
          </g>
        </g>
        <g
           id="ytick_6">
          <g
             id="line2d_15">
            <g
               id="g340">
              <use
                 style="stroke:#000000;stroke-width:0.8;"
                 x="42.282813"
                 xlink:href="#mb5b24da20b"
                 y="87.895833"
                 id="use342" />
            </g>
          </g>
          <g
             id="text_16">
            <!-- 100 -->
            <g
               transform="translate(20.282813 91.367708)scale(0.1 -0.1)"
               id="g345">
              <use
                 xlink:href="#TimesNewRomanPSMT-31"
                 id="use347" />
              <use
                 x="50"
                 xlink:href="#TimesNewRomanPSMT-30"
                 id="use349" />
              <use
                 x="100"
                 xlink:href="#TimesNewRomanPSMT-30"
                 id="use351" />
            </g>
          </g>
        </g>
        <g
           id="ytick_7">
          <g
             id="line2d_16">
            <g
               id="g355">
              <use
                 style="stroke:#000000;stroke-width:0.8;"
                 x="42.282813"
                 xlink:href="#mb5b24da20b"
                 y="57.0175"
                 id="use357" />
            </g>
          </g>
          <g
             id="text_17">
            <!-- 120 -->
            <g
               transform="translate(20.282813 60.489375)scale(0.1 -0.1)"
               id="g360">
              <use
                 xlink:href="#TimesNewRomanPSMT-31"
                 id="use362" />
              <use
                 x="50"
                 xlink:href="#TimesNewRomanPSMT-32"
                 id="use364" />
              <use
                 x="100"
                 xlink:href="#TimesNewRomanPSMT-30"
                 id="use366" />
            </g>
          </g>
        </g>
        <g
           id="ytick_8">
          <g
             id="line2d_17">
            <g
               id="g370">
              <use
                 style="stroke:#000000;stroke-width:0.8;"
                 x="42.282813"
                 xlink:href="#mb5b24da20b"
                 y="26.139167"
                 id="use372" />
            </g>
          </g>
          <g
             id="text_18">
            <!-- 140 -->
            <g
               transform="translate(20.282813 29.611042)scale(0.1 -0.1)"
               id="g375">
              <use
                 xlink:href="#TimesNewRomanPSMT-31"
                 id="use377" />
              <use
                 x="50"
                 xlink:href="#TimesNewRomanPSMT-34"
                 id="use379" />
              <use
                 x="100"
                 xlink:href="#TimesNewRomanPSMT-30"
                 id="use381" />
            </g>
          </g>
        </g>
        <g
           id="text_19">
          <!-- Speed (cm/s) -->
          <defs
             id="defs384">
            <path
               d="M 45.84375 67.71875  L 45.84375 44.828125  L 44.046875 44.828125  Q 43.171875 51.421875 40.890625 55.328125  Q 38.625 59.234375 34.421875 61.515625  Q 30.21875 63.8125 25.734375 63.8125  Q 20.65625 63.8125 17.328125 60.71875  Q 14.015625 57.625 14.015625 53.65625  Q 14.015625 50.640625 16.109375 48.140625  Q 19.140625 44.484375 30.515625 38.375  Q 39.796875 33.40625 43.1875 30.734375  Q 46.578125 28.078125 48.40625 24.453125  Q 50.25 20.84375 50.25 16.890625  Q 50.25 9.375 44.40625 3.921875  Q 38.578125 -1.515625 29.390625 -1.515625  Q 26.515625 -1.515625 23.96875 -1.078125  Q 22.46875 -0.828125 17.703125 0.703125  Q 12.9375 2.25 11.671875 2.25  Q 10.453125 2.25 9.734375 1.515625  Q 9.03125 0.78125 8.6875 -1.515625  L 6.890625 -1.515625  L 6.890625 21.1875  L 8.6875 21.1875  Q 9.96875 14.0625 12.109375 10.515625  Q 14.265625 6.984375 18.671875 4.640625  Q 23.09375 2.296875 28.375 2.296875  Q 34.46875 2.296875 38 5.515625  Q 41.546875 8.734375 41.546875 13.140625  Q 41.546875 15.578125 40.203125 18.0625  Q 38.875 20.5625 36.03125 22.703125  Q 34.125 24.171875 25.625 28.921875  Q 17.140625 33.6875 13.546875 36.515625  Q 9.96875 39.359375 8.109375 42.765625  Q 6.25 46.1875 6.25 50.296875  Q 6.25 57.421875 11.71875 62.5625  Q 17.1875 67.71875 25.640625 67.71875  Q 30.90625 67.71875 36.8125 65.140625  Q 39.546875 63.921875 40.671875 63.921875  Q 41.9375 63.921875 42.75 64.671875  Q 43.5625 65.4375 44.046875 67.71875  z "
               id="TimesNewRomanPSMT-53" />
            <path
               d="M -0.09375 40.28125  L 13.671875 45.84375  L 15.53125 45.84375  L 15.53125 35.40625  Q 19 41.3125 22.484375 43.671875  Q 25.984375 46.046875 29.828125 46.046875  Q 36.578125 46.046875 41.0625 40.765625  Q 46.578125 34.328125 46.578125 23.96875  Q 46.578125 12.40625 39.9375 4.828125  Q 34.46875 -1.375 26.171875 -1.375  Q 22.5625 -1.375 19.921875 -0.34375  Q 17.96875 0.390625 15.53125 2.59375  L 15.53125 -11.03125  Q 15.53125 -15.625 16.09375 -16.859375  Q 16.65625 -18.109375 18.046875 -18.84375  Q 19.4375 -19.578125 23.09375 -19.578125  L 23.09375 -21.390625  L -0.34375 -21.390625  L -0.34375 -19.578125  L 0.875 -19.578125  Q 3.5625 -19.625 5.46875 -18.5625  Q 6.390625 -18.015625 6.90625 -16.8125  Q 7.421875 -15.625 7.421875 -10.75  L 7.421875 31.546875  Q 7.421875 35.890625 7.03125 37.0625  Q 6.640625 38.234375 5.78125 38.8125  Q 4.9375 39.40625 3.46875 39.40625  Q 2.296875 39.40625 0.484375 38.71875  z M 15.53125 32.515625  L 15.53125 15.828125  Q 15.53125 10.40625 15.96875 8.6875  Q 16.65625 5.859375 19.3125 3.703125  Q 21.96875 1.5625 26.03125 1.5625  Q 30.90625 1.5625 33.9375 5.375  Q 37.890625 10.359375 37.890625 19.390625  Q 37.890625 29.640625 33.40625 35.15625  Q 30.28125 38.96875 25.984375 38.96875  Q 23.640625 38.96875 21.34375 37.796875  Q 19.578125 36.921875 15.53125 32.515625  "
               id="TimesNewRomanPSMT-70" />
          </defs>
          <g
             transform="translate(14.14375 152.736719)rotate(-90)scale(0.1 -0.1)"
             id="g388">
            <use
               xlink:href="#TimesNewRomanPSMT-53"
               id="use390" />
            <use
               x="55.615234"
               xlink:href="#TimesNewRomanPSMT-70"
               id="use392" />
            <use
               x="105.615234"
               xlink:href="#TimesNewRomanPSMT-65"
               id="use394" />
            <use
               x="150"
               xlink:href="#TimesNewRomanPSMT-65"
               id="use396" />
            <use
               x="194.384766"
               xlink:href="#TimesNewRomanPSMT-64"
               id="use398" />
            <use
               x="244.384766"
               xlink:href="#TimesNewRomanPSMT-20"
               id="use400" />
            <use
               x="269.384766"
               xlink:href="#TimesNewRomanPSMT-28"
               id="use402" />
            <use
               x="302.685547"
               xlink:href="#TimesNewRomanPSMT-63"
               id="use404" />
            <use
               x="347.070312"
               xlink:href="#TimesNewRomanPSMT-6d"
               id="use406" />
            <use
               x="424.853516"
               xlink:href="#TimesNewRomanPSMT-2f"
               id="use408" />
            <use
               x="452.636719"
               xlink:href="#TimesNewRomanPSMT-73"
               id="use410" />
            <use
               x="491.552734"
               xlink:href="#TimesNewRomanPSMT-29"
               id="use412" />
          </g>
        </g>
      </g>
      <g
         id="line2d_18">
        <path
           clip-path="url(#p491897d9ff)"
           d="M 55.248386 242.133108  L 64.069607 239.7954  L 66.405234 237.457692  L 67.941284 235.119984  L 69.148631 232.782276  L 70.179355 230.444568  L 71.102085 228.106859  L 71.953745 225.769151  L 72.756549 223.431443  L 73.524955 221.093735  L 74.268949 218.756027  L 74.995763 216.418319  L 75.710839 214.08061  L 76.418415 211.742902  L 77.121886 209.405194  L 77.824049 207.067486  L 78.52726 204.729778  L 79.233552 202.39207  L 79.944713 200.054361  L 80.662348 197.716653  L 81.387926 195.378945  L 82.12281 193.041237  L 82.868284 190.703529  L 83.625582 188.365821  L 84.395896 186.028112  L 85.180395 183.690404  L 85.980239 181.352696  L 86.796588 179.014988  L 87.630608 176.67728  L 88.483488 174.339572  L 89.356438 172.001863  L 90.250707 169.664155  L 91.167581 167.326447  L 92.108396 164.988739  L 93.074544 162.651031  L 94.067481 160.313323  L 95.088732 157.975614  L 96.139904 155.637906  L 97.22269 153.300198  L 98.33888 150.96249  L 99.490372 148.624782  L 100.679182 146.287074  L 101.907455 143.949365  L 103.177476 141.611657  L 104.491689 139.273949  L 105.852708 136.936241  L 107.263337 134.598533  L 108.726585 132.260825  L 110.245691 129.923116  L 111.824146 127.585408  L 113.465718 125.2477  L 115.174484 122.909992  L 116.95486 120.572284  L 118.811642 118.234576  L 120.750044 115.896867  L 122.77575 113.559159  L 124.894965 111.221451  L 127.114482 108.883743  L 129.441746 106.546035  L 131.884942 104.208327  L 134.453088 101.870618  L 137.156142 99.53291  L 140.005128 97.195202  L 143.012286 94.857494  L 146.19124 92.519786  L 149.557206 90.182078  L 153.127222 87.844369  L 156.920436 85.506661  L 160.95844 83.168953  L 165.265672 80.831245  L 169.869898 78.493537  L 174.802799 76.155829  L 180.100682 73.81812  L 185.805356 71.480412  L 191.965208 69.142704  L 198.636548 66.804996  L 205.88529 64.467288  L 213.789086 62.12958  L 222.440046 59.791871  L 231.948255 57.454163  L 242.446367 55.116455  L 254.095667 52.778747  L 267.094212 50.441039  L 281.687887 48.103331  L 298.185716 45.765622  L 316.981414 43.427914  L 338.584412 41.090206  L 363.665533 38.752498  L 393.126116 36.41479  L 428.205877 34.077082  L 470.657414 31.739373  L 523.040863 29.401665  L 589.247591 27.063957  L 640.570312 25.672816  "
           style="fill:none;stroke:#1f77b4;stroke-linecap:square;stroke-width:3;"
           id="path415" />
      </g>
      <g
         id="patch_3">
        <path
           d="M 42.282813 242.2875  L 42.282813 10.7  "
           style="fill:none;stroke:#000000;stroke-linecap:square;stroke-linejoin:miter;stroke-width:0.8;"
           id="path418" />
      </g>
      <g
         id="patch_4">
        <path
           d="M 325.926563 242.2875  L 325.926563 10.7  "
           style="fill:none;stroke:#000000;stroke-linecap:square;stroke-linejoin:miter;stroke-width:0.8;"
           id="path421" />
      </g>
      <g
         id="patch_5">
        <path
           d="M 42.282813 242.2875  L 325.926563 242.2875  "
           style="fill:none;stroke:#000000;stroke-linecap:square;stroke-linejoin:miter;stroke-width:0.8;"
           id="path424" />
      </g>
      <g
         id="patch_6">
        <path
           d="M 42.282813 10.7  L 325.926563 10.7  "
           style="fill:none;stroke:#000000;stroke-linecap:square;stroke-linejoin:miter;stroke-width:0.8;"
           id="path427" />
      </g>
    </g>
    <g
       id="patch_7">
      <path
         d="M 345.226562 242.2875  L 628.870312 242.2875  L 628.870312 10.7  L 345.226562 10.7  z "
         style="fill:#ffffff;"
         id="path430" />
    </g>
    <g
       id="pane3d_1">
      <g
         id="patch_8">
        <path
           d="M 382.827925 191.114824  L 464.00825 134.334817  L 462.656684 25.837541  L 376.950023 76.85321  "
           style="fill:#f2f2f2;opacity:0.5;stroke:#f2f2f2;stroke-linejoin:miter;"
           id="path434" />
      </g>
    </g>
    <g
       id="pane3d_2">
      <g
         id="patch_9">
        <path
           d="M 464.00825 134.334817  L 595.512745 166.078505  L 601.014735 54.309538  L 462.656684 25.837541  "
           style="fill:#e6e6e6;opacity:0.5;stroke:#e6e6e6;stroke-linejoin:miter;"
           id="path438" />
      </g>
    </g>
    <g
       id="pane3d_3">
      <g
         id="patch_10">
        <path
           d="M 382.827925 191.114824  L 521.188422 228.085521  L 595.512745 166.078505  L 464.00825 134.334817  "
           style="fill:#ececec;opacity:0.5;stroke:#ececec;stroke-linejoin:miter;"
           id="path442" />
      </g>
    </g>
    <g
       id="axis3d_1">
      <g
         id="line2d_19">
        <path
           d="M 382.827925 191.114824  L 521.188422 228.085521  "
           style="fill:none;stroke:#000000;stroke-linecap:square;stroke-width:0.8;"
           id="path446" />
      </g>
      <g
         id="text_20">
        <!-- Caudal Finbeat Period (s) -->
        <defs
           id="defs449">
          <path
             d="M 20.515625 31  L 20.515625 11.71875  Q 20.515625 5.46875 21.875 3.953125  Q 23.734375 1.8125 27.484375 1.8125  L 30.03125 1.8125  L 30.03125 0  L 1.65625 0  L 1.65625 1.8125  L 4.15625 1.8125  Q 8.34375 1.8125 10.15625 4.546875  Q 11.140625 6.0625 11.140625 11.71875  L 11.140625 54.5  Q 11.140625 60.75 9.8125 62.25  Q 7.90625 64.40625 4.15625 64.40625  L 1.65625 64.40625  L 1.65625 66.21875  L 25.921875 66.21875  Q 34.8125 66.21875 39.9375 64.375  Q 45.0625 62.546875 48.578125 58.203125  Q 52.09375 53.859375 52.09375 47.90625  Q 52.09375 39.796875 46.75 34.71875  Q 41.40625 29.640625 31.640625 29.640625  Q 29.25 29.640625 26.46875 29.984375  Q 23.6875 30.328125 20.515625 31  M 20.515625 33.796875  Q 23.09375 33.296875 25.09375 33.046875  Q 27.09375 32.8125 28.515625 32.8125  Q 33.59375 32.8125 37.28125 36.734375  Q 40.96875 40.671875 40.96875 46.921875  Q 40.96875 51.21875 39.203125 54.90625  Q 37.453125 58.59375 34.21875 60.421875  Q 31 62.25 26.90625 62.25  Q 24.421875 62.25 20.515625 61.328125  z "
             id="TimesNewRomanPSMT-50" />
        </defs>
        <g
           transform="translate(384.95391 230.831223)rotate(-345.039759)scale(0.1 -0.1)"
           id="g452">
          <use
             xlink:href="#TimesNewRomanPSMT-43"
             id="use454" />
          <use
             x="66.699219"
             xlink:href="#TimesNewRomanPSMT-61"
             id="use456" />
          <use
             x="111.083984"
             xlink:href="#TimesNewRomanPSMT-75"
             id="use458" />
          <use
             x="161.083984"
             xlink:href="#TimesNewRomanPSMT-64"
             id="use460" />
          <use
             x="211.083984"
             xlink:href="#TimesNewRomanPSMT-61"
             id="use462" />
          <use
             x="255.46875"
             xlink:href="#TimesNewRomanPSMT-6c"
             id="use464" />
          <use
             x="283.251953"
             xlink:href="#TimesNewRomanPSMT-20"
             id="use466" />
          <use
             x="308.251953"
             xlink:href="#TimesNewRomanPSMT-46"
             id="use468" />
          <use
             x="363.867188"
             xlink:href="#TimesNewRomanPSMT-69"
             id="use470" />
          <use
             x="391.650391"
             xlink:href="#TimesNewRomanPSMT-6e"
             id="use472" />
          <use
             x="441.650391"
             xlink:href="#TimesNewRomanPSMT-62"
             id="use474" />
          <use
             x="491.650391"
             xlink:href="#TimesNewRomanPSMT-65"
             id="use476" />
          <use
             x="536.035156"
             xlink:href="#TimesNewRomanPSMT-61"
             id="use478" />
          <use
             x="580.419922"
             xlink:href="#TimesNewRomanPSMT-74"
             id="use480" />
          <use
             x="608.203125"
             xlink:href="#TimesNewRomanPSMT-20"
             id="use482" />
          <use
             x="633.203125"
             xlink:href="#TimesNewRomanPSMT-50"
             id="use484" />
          <use
             x="688.818359"
             xlink:href="#TimesNewRomanPSMT-65"
             id="use486" />
          <use
             x="733.203125"
             xlink:href="#TimesNewRomanPSMT-72"
             id="use488" />
          <use
             x="766.503906"
             xlink:href="#TimesNewRomanPSMT-69"
             id="use490" />
          <use
             x="794.287109"
             xlink:href="#TimesNewRomanPSMT-6f"
             id="use492" />
          <use
             x="844.287109"
             xlink:href="#TimesNewRomanPSMT-64"
             id="use494" />
          <use
             x="894.287109"
             xlink:href="#TimesNewRomanPSMT-20"
             id="use496" />
          <use
             x="919.287109"
             xlink:href="#TimesNewRomanPSMT-28"
             id="use498" />
          <use
             x="952.587891"
             xlink:href="#TimesNewRomanPSMT-73"
             id="use500" />
          <use
             x="991.503906"
             xlink:href="#TimesNewRomanPSMT-29"
             id="use502" />
        </g>
      </g>
      <g
         id="Line3DCollection_1">
        <path
           d="M 385.473861 191.821833  L 466.531362 134.943867  L 465.305626 26.382653  "
           style="fill:none;stroke:#b0b0b0;stroke-width:0.8;"
           id="path505" />
        <path
           d="M 411.117752 198.674024  L 490.968076 140.842612  L 490.972473 31.664503  "
           style="fill:none;stroke:#b0b0b0;stroke-width:0.8;"
           id="path507" />
        <path
           d="M 437.209703 205.645939  L 515.800567 146.836892  L 517.076302 37.036277  "
           style="fill:none;stroke:#b0b0b0;stroke-width:0.8;"
           id="path509" />
        <path
           d="M 463.761559 212.740743  L 541.038527 152.929049  L 543.628366 42.50029  "
           style="fill:none;stroke:#b0b0b0;stroke-width:0.8;"
           id="path511" />
        <path
           d="M 490.785588 219.961714  L 566.691969 159.121498  L 570.640312 48.058941  "
           style="fill:none;stroke:#b0b0b0;stroke-width:0.8;"
           id="path513" />
        <path
           d="M 518.294499 227.312249  L 592.771237 165.416736  L 598.124191 53.714708  "
           style="fill:none;stroke:#b0b0b0;stroke-width:0.8;"
           id="path515" />
      </g>
      <g
         id="xtick_10">
        <g
           id="line2d_20">
          <path
             d="M 386.172116 191.331868  L 384.074752 192.803586  "
             style="fill:none;stroke:#000000;stroke-linecap:square;stroke-width:0.8;"
             id="path519" />
        </g>
        <g
           id="text_21">
          <!-- 0.0 -->
          <g
             transform="translate(372.189326 213.343586)scale(0.1 -0.1)"
             id="g522">
            <use
               xlink:href="#TimesNewRomanPSMT-30"
               id="use524" />
            <use
               x="50"
               xlink:href="#TimesNewRomanPSMT-2e"
               id="use526" />
            <use
               x="75"
               xlink:href="#TimesNewRomanPSMT-30"
               id="use528" />
          </g>
        </g>
      </g>
      <g
         id="xtick_11">
        <g
           id="line2d_21">
          <path
             d="M 411.806033 198.175539  L 409.738607 199.672867  "
             style="fill:none;stroke:#000000;stroke-linecap:square;stroke-width:0.8;"
             id="path532" />
        </g>
        <g
           id="text_22">
          <!-- 0.2 -->
          <g
             transform="translate(397.829525 220.337641)scale(0.1 -0.1)"
             id="g535">
            <use
               xlink:href="#TimesNewRomanPSMT-30"
               id="use537" />
            <use
               x="50"
               xlink:href="#TimesNewRomanPSMT-2e"
               id="use539" />
            <use
               x="75"
               xlink:href="#TimesNewRomanPSMT-32"
               id="use541" />
          </g>
        </g>
      </g>
      <g
         id="xtick_12">
        <g
           id="line2d_22">
          <path
             d="M 437.887552 205.138708  L 435.851436 206.662321  "
             style="fill:none;stroke:#000000;stroke-linecap:square;stroke-width:0.8;"
             id="path545" />
        </g>
        <g
           id="text_23">
          <!-- 0.4 -->
          <g
             transform="translate(423.91873 227.454175)scale(0.1 -0.1)"
             id="g548">
            <use
               xlink:href="#TimesNewRomanPSMT-30"
               id="use550" />
            <use
               x="50"
               xlink:href="#TimesNewRomanPSMT-2e"
               id="use552" />
            <use
               x="75"
               xlink:href="#TimesNewRomanPSMT-34"
               id="use554" />
          </g>
        </g>
      </g>
      <g
         id="xtick_13">
        <g
           id="line2d_23">
          <path
             d="M 464.428501 212.224535  L 462.425125 213.775131  "
             style="fill:none;stroke:#000000;stroke-linecap:square;stroke-width:0.8;"
             id="path558" />
        </g>
        <g
           id="text_24">
          <!-- 0.6 -->
          <g
             transform="translate(450.468839 234.696432)scale(0.1 -0.1)"
             id="g561">
            <use
               xlink:href="#TimesNewRomanPSMT-30"
               id="use563" />
            <use
               x="50"
               xlink:href="#TimesNewRomanPSMT-2e"
               id="use565" />
            <use
               x="75"
               xlink:href="#TimesNewRomanPSMT-36"
               id="use567" />
          </g>
        </g>
      </g>
      <g
         id="xtick_14">
        <g
           id="line2d_24">
          <path
             d="M 491.441127 219.436289  L 489.471983 221.01459  "
             style="fill:none;stroke:#000000;stroke-linecap:square;stroke-width:0.8;"
             id="path571" />
        </g>
        <g
           id="text_25">
          <!-- 0.8 -->
          <g
             transform="translate(477.492175 242.067775)scale(0.1 -0.1)"
             id="g574">
            <use
               xlink:href="#TimesNewRomanPSMT-30"
               id="use576" />
            <use
               x="50"
               xlink:href="#TimesNewRomanPSMT-2e"
               id="use578" />
            <use
               x="75"
               xlink:href="#TimesNewRomanPSMT-38"
               id="use580" />
          </g>
        </g>
      </g>
      <g
         id="xtick_15">
        <g
           id="line2d_25">
          <path
             d="M 518.938116 226.777357  L 517.004761 228.384113  "
             style="fill:none;stroke:#000000;stroke-linecap:square;stroke-width:0.8;"
             id="path584" />
        </g>
        <g
           id="text_26">
          <!-- 1.0 -->
          <g
             transform="translate(505.001504 249.571686)scale(0.1 -0.1)"
             id="g587">
            <use
               xlink:href="#TimesNewRomanPSMT-31"
               id="use589" />
            <use
               x="50"
               xlink:href="#TimesNewRomanPSMT-2e"
               id="use591" />
            <use
               x="75"
               xlink:href="#TimesNewRomanPSMT-30"
               id="use593" />
          </g>
        </g>
      </g>
    </g>
    <g
       id="axis3d_2">
      <g
         id="line2d_26">
        <path
           d="M 595.512745 166.078505  L 521.188422 228.085521  "
           style="fill:none;stroke:#000000;stroke-linecap:square;stroke-width:0.8;"
           id="path597" />
      </g>
      <g
         id="text_27">
        <!-- Caudal Finbeat Amplitude (cm) -->
        <defs
           id="defs600">
          <path
             d="M 45.75 22.171875  L 20.125 22.171875  L 15.625 11.71875  Q 13.96875 7.859375 13.96875 5.953125  Q 13.96875 4.4375 15.40625 3.296875  Q 16.84375 2.15625 21.625 1.8125  L 21.625 0  L 0.78125 0  L 0.78125 1.8125  Q 4.9375 2.546875 6.15625 3.71875  Q 8.640625 6.0625 11.671875 13.234375  L 34.96875 67.71875  L 36.671875 67.71875  L 59.71875 12.640625  Q 62.5 6 64.765625 4.015625  Q 67.046875 2.046875 71.09375 1.8125  L 71.09375 0  L 44.96875 0  L 44.96875 1.8125  Q 48.921875 2 50.3125 3.125  Q 51.703125 4.25 51.703125 5.859375  Q 51.703125 8.015625 49.75 12.640625  z M 44.390625 25.78125  L 33.15625 52.546875  L 21.625 25.78125  z "
             id="TimesNewRomanPSMT-41" />
        </defs>
        <g
           transform="translate(537.957468 265.439594)rotate(-39.83744)scale(0.1 -0.1)"
           id="g603">
          <use
             xlink:href="#TimesNewRomanPSMT-43"
             id="use605" />
          <use
             x="66.699219"
             xlink:href="#TimesNewRomanPSMT-61"
             id="use607" />
          <use
             x="111.083984"
             xlink:href="#TimesNewRomanPSMT-75"
             id="use609" />
          <use
             x="161.083984"
             xlink:href="#TimesNewRomanPSMT-64"
             id="use611" />
          <use
             x="211.083984"
             xlink:href="#TimesNewRomanPSMT-61"
             id="use613" />
          <use
             x="255.46875"
             xlink:href="#TimesNewRomanPSMT-6c"
             id="use615" />
          <use
             x="283.251953"
             xlink:href="#TimesNewRomanPSMT-20"
             id="use617" />
          <use
             x="308.251953"
             xlink:href="#TimesNewRomanPSMT-46"
             id="use619" />
          <use
             x="363.867188"
             xlink:href="#TimesNewRomanPSMT-69"
             id="use621" />
          <use
             x="391.650391"
             xlink:href="#TimesNewRomanPSMT-6e"
             id="use623" />
          <use
             x="441.650391"
             xlink:href="#TimesNewRomanPSMT-62"
             id="use625" />
          <use
             x="491.650391"
             xlink:href="#TimesNewRomanPSMT-65"
             id="use627" />
          <use
             x="536.035156"
             xlink:href="#TimesNewRomanPSMT-61"
             id="use629" />
          <use
             x="580.419922"
             xlink:href="#TimesNewRomanPSMT-74"
             id="use631" />
          <use
             x="608.203125"
             xlink:href="#TimesNewRomanPSMT-20"
             id="use633" />
          <use
             x="633.125"
             xlink:href="#TimesNewRomanPSMT-41"
             id="use635" />
          <use
             x="705.341797"
             xlink:href="#TimesNewRomanPSMT-6d"
             id="use637" />
          <use
             x="783.125"
             xlink:href="#TimesNewRomanPSMT-70"
             id="use639" />
          <use
             x="833.125"
             xlink:href="#TimesNewRomanPSMT-6c"
             id="use641" />
          <use
             x="860.908203"
             xlink:href="#TimesNewRomanPSMT-69"
             id="use643" />
          <use
             x="888.691406"
             xlink:href="#TimesNewRomanPSMT-74"
             id="use645" />
          <use
             x="916.474609"
             xlink:href="#TimesNewRomanPSMT-75"
             id="use647" />
          <use
             x="966.474609"
             xlink:href="#TimesNewRomanPSMT-64"
             id="use649" />
          <use
             x="1016.474609"
             xlink:href="#TimesNewRomanPSMT-65"
             id="use651" />
          <use
             x="1060.859375"
             xlink:href="#TimesNewRomanPSMT-20"
             id="use653" />
          <use
             x="1085.859375"
             xlink:href="#TimesNewRomanPSMT-28"
             id="use655" />
          <use
             x="1119.160156"
             xlink:href="#TimesNewRomanPSMT-63"
             id="use657" />
          <use
             x="1163.544922"
             xlink:href="#TimesNewRomanPSMT-6d"
             id="use659" />
          <use
             x="1241.328125"
             xlink:href="#TimesNewRomanPSMT-29"
             id="use661" />
        </g>
      </g>
      <g
         id="Line3DCollection_2">
        <path
           d="M 378.801004 75.75144  L 384.574475 189.893234  L 522.792725 226.74709  "
           style="fill:none;stroke:#b0b0b0;stroke-width:0.8;"
           id="path664" />
        <path
           d="M 396.268261 65.354305  L 401.070714 178.355258  L 537.934002 214.115082  "
           style="fill:none;stroke:#b0b0b0;stroke-width:0.8;"
           id="path666" />
        <path
           d="M 413.205677 55.272549  L 417.091601 167.149759  L 552.619212 201.86356  "
           style="fill:none;stroke:#b0b0b0;stroke-width:0.8;"
           id="path668" />
        <path
           d="M 429.637001 45.492037  L 432.65739 156.262569  L 566.868655 189.975589  "
           style="fill:none;stroke:#b0b0b0;stroke-width:0.8;"
           id="path670" />
        <path
           d="M 445.584582 35.999467  L 447.787201 145.680316  L 580.701442 178.435223  "
           style="fill:none;stroke:#b0b0b0;stroke-width:0.8;"
           id="path672" />
        <path
           d="M 461.069472 26.782306  L 462.499097 135.390364  L 594.135586 167.227436  "
           style="fill:none;stroke:#b0b0b0;stroke-width:0.8;"
           id="path674" />
      </g>
      <g
         id="xtick_16">
        <g
           id="line2d_27">
          <path
             d="M 521.63578 226.438608  L 525.10921 227.364746  "
             style="fill:none;stroke:#000000;stroke-linecap:square;stroke-width:0.8;"
             id="path678" />
        </g>
        <g
           id="text_28">
          <!-- 0 -->
          <g
             transform="translate(532.537394 246.531105)scale(0.1 -0.1)"
             id="g681">
            <use
               xlink:href="#TimesNewRomanPSMT-30"
               id="use683" />
          </g>
        </g>
      </g>
      <g
         id="xtick_17">
        <g
           id="line2d_28">
          <path
             d="M 536.789174 213.815959  L 540.226188 214.713987  "
             style="fill:none;stroke:#000000;stroke-linecap:square;stroke-width:0.8;"
             id="path687" />
        </g>
        <g
           id="text_29">
          <!-- 1 -->
          <g
             transform="translate(547.482331 233.710576)scale(0.1 -0.1)"
             id="g690">
            <use
               xlink:href="#TimesNewRomanPSMT-31"
               id="use692" />
          </g>
        </g>
      </g>
      <g
         id="xtick_18">
        <g
           id="line2d_29">
          <path
             d="M 551.486301 201.573378  L 554.8875 202.444555  "
             style="fill:none;stroke:#000000;stroke-linecap:square;stroke-width:0.8;"
             id="path696" />
        </g>
        <g
           id="text_30">
          <!-- 2 -->
          <g
             transform="translate(561.977385 221.27598)scale(0.1 -0.1)"
             id="g699">
            <use
               xlink:href="#TimesNewRomanPSMT-32"
               id="use701" />
          </g>
        </g>
      </g>
      <g
         id="xtick_19">
        <g
           id="line2d_30">
          <path
             d="M 565.747462 189.693952  L 569.113443 190.539465  "
             style="fill:none;stroke:#000000;stroke-linecap:square;stroke-width:0.8;"
             id="path705" />
        </g>
        <g
           id="text_31">
          <!-- 3 -->
          <defs
             id="defs708">
            <path
               d="M 5.078125 53.609375  Q 7.90625 60.296875 12.21875 63.9375  Q 16.546875 67.578125 23 67.578125  Q 30.953125 67.578125 35.203125 62.40625  Q 38.421875 58.546875 38.421875 54.15625  Q 38.421875 46.921875 29.34375 39.203125  Q 35.453125 36.8125 38.578125 32.375  Q 41.703125 27.9375 41.703125 21.921875  Q 41.703125 13.328125 36.234375 7.03125  Q 29.109375 -1.171875 15.578125 -1.171875  Q 8.890625 -1.171875 6.46875 0.484375  Q 4.046875 2.15625 4.046875 4.046875  Q 4.046875 5.46875 5.1875 6.546875  Q 6.34375 7.625 7.953125 7.625  Q 9.1875 7.625 10.453125 7.234375  Q 11.28125 6.984375 14.203125 5.4375  Q 17.140625 3.90625 18.265625 3.609375  Q 20.0625 3.078125 22.125 3.078125  Q 27.09375 3.078125 30.78125 6.9375  Q 34.46875 10.796875 34.46875 16.0625  Q 34.46875 19.921875 32.765625 23.578125  Q 31.5 26.3125 29.984375 27.734375  Q 27.875 29.6875 24.21875 31.265625  Q 20.5625 32.859375 16.75 32.859375  L 15.1875 32.859375  L 15.1875 34.328125  Q 19.046875 34.8125 22.921875 37.109375  Q 26.8125 39.40625 28.5625 42.625  Q 30.328125 45.84375 30.328125 49.703125  Q 30.328125 54.734375 27.171875 57.828125  Q 24.03125 60.9375 19.34375 60.9375  Q 11.765625 60.9375 6.6875 52.828125  z "
               id="TimesNewRomanPSMT-33" />
          </defs>
          <g
             transform="translate(576.042567 209.21015)scale(0.1 -0.1)"
             id="g711">
            <use
               xlink:href="#TimesNewRomanPSMT-33"
               id="use713" />
          </g>
        </g>
      </g>
      <g
         id="xtick_20">
        <g
           id="line2d_31">
          <path
             d="M 579.591772 178.161759  L 582.923126 178.982726  "
             style="fill:none;stroke:#000000;stroke-linecap:square;stroke-width:0.8;"
             id="path717" />
        </g>
        <g
           id="text_32">
          <!-- 4 -->
          <g
             transform="translate(589.696722 197.496919)scale(0.1 -0.1)"
             id="g720">
            <use
               xlink:href="#TimesNewRomanPSMT-34"
               id="use722" />
          </g>
        </g>
      </g>
      <g
         id="xtick_21">
        <g
           id="line2d_32">
          <path
             d="M 593.037245 166.961795  L 596.334554 167.759269  "
             style="fill:none;stroke:#000000;stroke-linecap:square;stroke-width:0.8;"
             id="path726" />
        </g>
        <g
           id="text_33">
          <!-- 5 -->
          <g
             transform="translate(602.957608 186.121056)scale(0.1 -0.1)"
             id="g729">
            <use
               xlink:href="#TimesNewRomanPSMT-35"
               id="use731" />
          </g>
        </g>
      </g>
    </g>
    <g
       id="axis3d_3">
      <g
         id="line2d_33">
        <path
           d="M 595.512745 166.078505  L 601.014735 54.309538  "
           style="fill:none;stroke:#000000;stroke-linecap:square;stroke-width:0.8;"
           id="path735" />
      </g>
      <g
         id="text_34">
        <!-- Speed (cm/s) -->
        <g
           transform="translate(638.405801 133.677667)rotate(-87.181807)scale(0.1 -0.1)"
           id="g738">
          <use
             xlink:href="#TimesNewRomanPSMT-53"
             id="use740" />
          <use
             x="55.615234"
             xlink:href="#TimesNewRomanPSMT-70"
             id="use742" />
          <use
             x="105.615234"
             xlink:href="#TimesNewRomanPSMT-65"
             id="use744" />
          <use
             x="150"
             xlink:href="#TimesNewRomanPSMT-65"
             id="use746" />
          <use
             x="194.384766"
             xlink:href="#TimesNewRomanPSMT-64"
             id="use748" />
          <use
             x="244.384766"
             xlink:href="#TimesNewRomanPSMT-20"
             id="use750" />
          <use
             x="269.384766"
             xlink:href="#TimesNewRomanPSMT-28"
             id="use752" />
          <use
             x="302.685547"
             xlink:href="#TimesNewRomanPSMT-63"
             id="use754" />
          <use
             x="347.070312"
             xlink:href="#TimesNewRomanPSMT-6d"
             id="use756" />
          <use
             x="424.853516"
             xlink:href="#TimesNewRomanPSMT-2f"
             id="use758" />
          <use
             x="452.636719"
             xlink:href="#TimesNewRomanPSMT-73"
             id="use760" />
          <use
             x="491.552734"
             xlink:href="#TimesNewRomanPSMT-29"
             id="use762" />
        </g>
      </g>
      <g
         id="Line3DCollection_3">
        <path
           d="M 596.289177 150.305842  L 463.817162 118.995181  L 381.99967 175.014227  "
           style="fill:none;stroke:#b0b0b0;stroke-width:0.8;"
           id="path765" />
        <path
           d="M 596.973077 136.412901  L 463.648944 105.491478  L 381.26979 160.825957  "
           style="fill:none;stroke:#b0b0b0;stroke-width:0.8;"
           id="path767" />
        <path
           d="M 597.66591 122.338503  L 463.478622 91.81886  L 380.530059 146.446184  "
           style="fill:none;stroke:#b0b0b0;stroke-width:0.8;"
           id="path769" />
        <path
           d="M 598.367851 108.079072  L 463.306157 77.974139  L 379.780275 131.871004  "
           style="fill:none;stroke:#b0b0b0;stroke-width:0.8;"
           id="path771" />
        <path
           d="M 599.079082 93.630932  L 463.131506 63.954045  L 379.020233 117.096406  "
           style="fill:none;stroke:#b0b0b0;stroke-width:0.8;"
           id="path773" />
        <path
           d="M 599.799788 78.990315  L 462.95463 49.755224  L 378.249721 102.11827  "
           style="fill:none;stroke:#b0b0b0;stroke-width:0.8;"
           id="path775" />
        <path
           d="M 600.530159 64.153346  L 462.775484 35.374237  L 377.46852 86.932361  "
           style="fill:none;stroke:#b0b0b0;stroke-width:0.8;"
           id="path777" />
      </g>
      <g
         id="xtick_22">
        <g
           id="line2d_34">
          <path
             d="M 595.183595 150.04453  L 598.502655 150.829012  "
             style="fill:none;stroke:#000000;stroke-linecap:square;stroke-width:0.8;"
             id="path781" />
        </g>
        <g
           id="text_35">
          <!-- 20 -->
          <g
             transform="translate(609.021224 155.20502)scale(0.1 -0.1)"
             id="g784">
            <use
               xlink:href="#TimesNewRomanPSMT-32"
               id="use786" />
            <use
               x="50"
               xlink:href="#TimesNewRomanPSMT-30"
               id="use788" />
          </g>
        </g>
      </g>
      <g
         id="xtick_23">
        <g
           id="line2d_35">
          <path
             d="M 595.860085 136.154768  L 599.201407 136.92971  "
             style="fill:none;stroke:#000000;stroke-linecap:square;stroke-width:0.8;"
             id="path792" />
        </g>
        <g
           id="text_36">
          <!-- 40 -->
          <g
             transform="translate(609.817979 141.336984)scale(0.1 -0.1)"
             id="g795">
            <use
               xlink:href="#TimesNewRomanPSMT-34"
               id="use797" />
            <use
               x="50"
               xlink:href="#TimesNewRomanPSMT-30"
               id="use799" />
          </g>
        </g>
      </g>
      <g
         id="xtick_24">
        <g
           id="line2d_36">
          <path
             d="M 596.545407 122.083655  L 599.909292 122.848739  "
             style="fill:none;stroke:#000000;stroke-linecap:square;stroke-width:0.8;"
             id="path803" />
        </g>
        <g
           id="text_37">
          <!-- 60 -->
          <g
             transform="translate(610.625112 127.288319)scale(0.1 -0.1)"
             id="g806">
            <use
               xlink:href="#TimesNewRomanPSMT-36"
               id="use808" />
            <use
               x="50"
               xlink:href="#TimesNewRomanPSMT-30"
               id="use810" />
          </g>
        </g>
      </g>
      <g
         id="xtick_25">
        <g
           id="line2d_37">
          <path
             d="M 597.239736 107.827617  L 600.62649 108.582517  "
             style="fill:none;stroke:#000000;stroke-linecap:square;stroke-width:0.8;"
             id="path814" />
        </g>
        <g
           id="text_38">
          <!-- 80 -->
          <g
             transform="translate(611.442827 113.05547)scale(0.1 -0.1)"
             id="g817">
            <use
               xlink:href="#TimesNewRomanPSMT-38"
               id="use819" />
            <use
               x="50"
               xlink:href="#TimesNewRomanPSMT-30"
               id="use821" />
          </g>
        </g>
      </g>
      <g
         id="xtick_26">
        <g
           id="line2d_38">
          <path
             d="M 597.94325 93.382984  L 601.353186 94.127361  "
             style="fill:none;stroke:#000000;stroke-linecap:square;stroke-width:0.8;"
             id="path825" />
        </g>
        <g
           id="text_39">
          <!-- 100 -->
          <g
             transform="translate(609.771333 98.634793)scale(0.1 -0.1)"
             id="g828">
            <use
               xlink:href="#TimesNewRomanPSMT-31"
               id="use830" />
            <use
               x="50"
               xlink:href="#TimesNewRomanPSMT-30"
               id="use832" />
            <use
               x="100"
               xlink:href="#TimesNewRomanPSMT-30"
               id="use834" />
          </g>
        </g>
      </g>
      <g
         id="xtick_27">
        <g
           id="line2d_39">
          <path
             d="M 598.656134 78.745989  L 602.08957 79.479495  "
             style="fill:none;stroke:#000000;stroke-linecap:square;stroke-width:0.8;"
             id="path838" />
        </g>
        <g
           id="text_40">
          <!-- 120 -->
          <g
             transform="translate(610.610845 84.022545)scale(0.1 -0.1)"
             id="g841">
            <use
               xlink:href="#TimesNewRomanPSMT-31"
               id="use843" />
            <use
               x="50"
               xlink:href="#TimesNewRomanPSMT-32"
               id="use845" />
            <use
               x="100"
               xlink:href="#TimesNewRomanPSMT-30"
               id="use847" />
          </g>
        </g>
      </g>
      <g
         id="xtick_28">
        <g
           id="line2d_40">
          <path
             d="M 599.378574 63.912762  L 602.835838 64.635039  "
             style="fill:none;stroke:#000000;stroke-linecap:square;stroke-width:0.8;"
             id="path851" />
        </g>
        <g
           id="text_41">
          <!-- 140 -->
          <g
             transform="translate(611.461585 69.214882)scale(0.1 -0.1)"
             id="g854">
            <use
               xlink:href="#TimesNewRomanPSMT-31"
               id="use856" />
            <use
               x="50"
               xlink:href="#TimesNewRomanPSMT-34"
               id="use858" />
            <use
               x="100"
               xlink:href="#TimesNewRomanPSMT-30"
               id="use860" />
          </g>
        </g>
      </g>
    </g>
    <g
       id="axes_2">
      <g
         id="line2d_41">
        <path
           clip-path="url(#p30d01d1de6)"
           d="M 533.726117 212.207547  L 541.39426 203.325336  L 542.205287 200.136715  L 542.163006 197.659383  L 541.762942 195.481162  L 541.165194 193.468657  L 540.441992 191.561586  L 539.632135 189.72752  L 538.758885 187.946985  L 537.837286 186.207368  L 536.877634 184.500027  L 535.887283 182.818777  L 534.871668 181.159043  L 533.834923 179.517339  L 532.780264 177.890953  L 531.710244 176.277727  L 530.626922 174.67592  L 529.531986 173.084101  L 528.426835 171.501087  L 527.312646 169.925879  L 526.190413 168.357634  L 525.06099 166.795627  L 523.925111 165.239235  L 522.783418 163.687914  L 521.636471 162.141188  L 520.484765 160.598639  L 519.328737 159.059894  L 518.168779 157.524622  L 517.005244 155.992527  L 515.838447 154.46334  L 514.668678 152.93682  L 513.496198 151.412747  L 512.321247 149.890919  L 511.144047 148.371152  L 509.964802 146.853276  L 508.783702 145.337135  L 507.600925 143.822583  L 506.416636 142.309484  L 505.230994 140.79771  L 504.044145 139.287143  L 502.856232 137.77767  L 501.667389 136.269183  L 500.477745 134.761583  L 499.287425 133.25477  L 498.096551 131.748653  L 496.90524 130.243142  L 495.713608 128.738149  L 494.521768 127.233592  L 493.329833 125.729386  L 492.137914 124.225452  L 490.946123 122.721709  L 489.754572 121.218079  L 488.563375 119.714483  L 487.372644 118.210842  L 486.182498 116.707077  L 484.993054 115.203108  L 483.804437 113.698854  L 482.616773 112.194232  L 481.430193 110.689157  L 480.244834 109.18354  L 479.06084 107.677291  L 477.878362 106.170315  L 476.697559 104.662513  L 475.518601 103.153781  L 474.341667 101.644007  L 473.166949 100.133075  L 471.994655 98.62086  L 470.825008 97.107227  L 469.658248 95.592033  L 468.494638 94.07512  L 467.334465 92.556318  L 466.178044 91.035441  L 465.025721 89.512283  L 463.87788 87.98662  L 462.734948 86.458198  L 461.597404 84.926738  L 460.465786 83.391923  L 459.340702 81.853397  L 458.222846 80.310752  L 457.113013 78.763523  L 456.012122 77.211172  L 454.921241 75.653071  L 453.841627 74.088482  L 452.774771 72.516531  L 451.722462 70.936167  L 450.686869 69.346113  L 449.670667 67.744793  L 448.677202 66.130235  L 447.710741 64.499919  L 446.776846 62.850556  L 445.88296 61.17774  L 445.039372 59.475368  L 444.260885 57.734647  L 443.569928 55.942233  L 443.002924 54.076418  L 442.625116 52.098253  L 442.572408 49.926463  L 443.215715 47.338812  L 446.652776 43.075742  "
           style="fill:none;stroke:#1f77b4;stroke-linecap:square;stroke-width:3;"
           id="path864" />
      </g>
    </g>
  </g>
  <defs
     id="defs866">
    <clipPath
       id="p491897d9ff">
      <rect
         height="231.5875"
         width="283.64375"
         x="42.282813"
         y="10.7"
         id="rect869" />
    </clipPath>
    <clipPath
       id="p30d01d1de6">
      <rect
         height="231.5875"
         width="283.64375"
         x="345.226562"
         y="10.7"
         id="rect872" />
    </clipPath>
  </defs>
  <text
     xml:space="preserve"
     style="font-style:normal;font-weight:normal;font-size:32px;line-height:125%;font-family:sans-serif;letter-spacing:0px;word-spacing:0px;fill:#000000;fill-opacity:1;stroke:none;stroke-width:1px;stroke-linecap:butt;stroke-linejoin:miter;stroke-opacity:1"
     x="4.6581569"
     y="10.932329"
     id="text5004"
     sodipodi:linespacing="125%"><tspan
       sodipodi:role="line"
       id="tspan5006"
       style="stroke-linecap:butt;stroke-linejoin:round;-inkscape-font-specification:'Times New Roman, ';font-family:'Times New Roman';font-weight:normal;font-style:normal;font-stretch:normal;font-variant:normal;font-size:16px"
       x="4.6581569"
       y="10.932329">A</tspan></text>
  <text
     xml:space="preserve"
     style="font-style:normal;font-weight:normal;font-size:32px;line-height:125%;font-family:sans-serif;letter-spacing:0px;word-spacing:0px;fill:#000000;fill-opacity:1;stroke:none;stroke-width:1px;stroke-linecap:butt;stroke-linejoin:miter;stroke-opacity:1"
     x="337.40091"
     y="10.932329"
     id="text5004-1"
     sodipodi:linespacing="125%"><tspan
       sodipodi:role="line"
       id="tspan5006-2"
       style="font-style:normal;font-variant:normal;font-weight:normal;font-stretch:normal;font-size:16px;font-family:'Times New Roman';-inkscape-font-specification:'Times New Roman, ';stroke-linecap:butt;stroke-linejoin:round"
       x="337.40091"
       y="10.932329">B</tspan></text>
</svg>
